/* XPM */
static char *_da9852966454fcbd621bfe0af51e1e1DsXa4yzz9m27oy52[] = {
/* columns rows colors chars-per-pixel */
"64 60 7 1 ",
"  c #312320",
". c #4C1217",
"X c #4C2A20",
"o c #57332B",
"O c #774F2A",
"+ c #6271A1",
"@ c #959C99",
/* pixels */
"@@@@@@@@@@@@@@@@@@@@@@@@OOOOOOOOOOOOOOOO@@@@@@@@@@@@@@@@@@@@@@@@",
"@@@@@@@@@@@@@@@@@@@@@@@@OOOOOOOOOOOOOOOO@@@@@@@@@@@@@@@@@@@@@@@@",
"@@@@@@@@@@@@@@@@@@@@@@@@OOOOOOOOOOOOOOOO@@@@@@@@@@@@@@@@@@@@@@@@",
"@@@@@@@@@@@@@@@@@@@@@@@@OOOOOOOOOOOOOOOO@@@@@@@@@@@@@@@@@@@@@@@@",
"@@@@@@@@@@@@@@@@XXXXXXXX                OOOOOOOO@@@@@@@@@@@@@@@@",
"@@@@@@@@@@@@@@@@XXXXXXXX                OOOOOOOO@@@@@@@@@@@@@@@@",
"@@@@@@@@@@@@@@@@XXXXXXXX                OOOOOOOO@@@@@@@@@@@@@@@@",
"@@@@@@@@@@@@@@@@XXXXXXXX                OOOOOOOO@@@@@@@@@@@@@@@@",
"@@@@@@@@@@@@XXXX                                OOOO@@@@@@@@@@@@",
"@@@@@@@@@@@@XXXX                                OOOO@@@@@@@@@@@@",
"@@@@@@@@@@@@XXXX                                OOOO@@@@@@@@@@@@",
"@@@@@@@@@@@@XXXX                                OOOO@@@@@@@@@@@@",
"@@@@@@@@XXXX        oooooooo        oooooooo        OOOO@@@@@@@@",
"@@@@@@@@XXXX        oooooooo        oooooooo        OOOO@@@@@@@@",
"@@@@@@@@XXXX        oooooooo        oooooooo        OOOO@@@@@@@@",
"@@@@@@@@XXXX        oooooooo        oooooooo        OOOO@@@@@@@@",
"@@@@@@@@        oooooooooooo        oooooooooooo        @@@@@@@@",
"@@@@@@@@        oooooooooooo        oooooooooooo        @@@@@@@@",
"@@@@@@@@        oooooooooooo        oooooooooooo        @@@@@@@@",
"@@@@@@@@        oooooooooooo        oooooooooooo        @@@@@@@@",
"@@@@@@@@    oooooooooooooooo        oooooooooooooooo    @@@@@@@@",
"@@@@@@@@    oooooooooooooooo        oooooooooooooooo    @@@@@@@@",
"@@@@@@@@    oooooooooooooooo        oooooooooooooooo    @@@@@@@@",
"@@@@@@@@    oooooooooooooooo        oooooooooooooooo    @@@@@@@@",
"@@@@XXXX    oooooooooooooooo        oooooooooooooooo    OOOO@@@@",
"@@@@XXXX    oooooooooooooooo        oooooooooooooooo    OOOO@@@@",
"@@@@XXXX    oooooooooooooooo        oooooooooooooooo    OOOO@@@@",
"@@@@XXXX    oooooooooooooooo        oooooooooooooooo    OOOO@@@@",
"@@@@        oooooooooooooooo        oooooooooooooooo        @@@@",
"@@@@        oooooooooooooooo        oooooooooooooooo        @@@@",
"@@@@        oooooooooooooooo        oooooooooooooooo        @@@@",
"@@@@        oooooooooooooooo        oooooooooooooooo        @@@@",
"@@@@    oooooooooooooooooooo        oooooooooooooooooooo    @@@@",
"@@@@    oooooooooooooooooooo        oooooooooooooooooooo    @@@@",
"@@@@    oooooooooooooooooooo        oooooooooooooooooooo    @@@@",
"@@@@    oooooooooooooooooooo        oooooooooooooooooooo    @@@@",
"@@@@    oooooooooooooooooooo        oooooooooooooooooooo    @@@@",
"@@@@    oooooooooooooooooooo        oooooooooooooooooooo    @@@@",
"@@@@    oooooooooooooooooooo        oooooooooooooooooooo    @@@@",
"@@@@    oooooooooooooooooooo        oooooooooooooooooooo    @@@@",
"@@@@    oooooooo    ....oooo        oooo    ....oooooooo    @@@@",
"@@@@    oooooooo    ....oooo        oooo    ....oooooooo    @@@@",
"@@@@    oooooooo    ....oooo        oooo    ....oooooooo    @@@@",
"@@@@    oooooooo    ....oooo        oooo    ....oooooooo    @@@@",
"@@@@    oooooooo        oooo        oooo        oooooooo    @@@@",
"@@@@    oooooooo        oooo        oooo        oooooooo    @@@@",
"@@@@    oooooooo        oooo        oooo        oooooooo    @@@@",
"@@@@    oooooooo        oooo        oooo        oooooooo    @@@@",
"@@@@    oooooooooooooooooooo        oooooooooooooooooooo    @@@@",
"@@@@    oooooooooooooooooooo        oooooooooooooooooooo    @@@@",
"@@@@    oooooooooooooooooooo        oooooooooooooooooooo    @@@@",
"@@@@    oooooooooooooooooooo        oooooooooooooooooooo    @@@@",
"@@@@    oooooooooooooooooooo        oooooooooooooooooooo    @@@@",
"@@@@    oooooooooooooooooooo        oooooooooooooooooooo    @@@@",
"@@@@    oooooooooooooooooooo        oooooooooooooooooooo    @@@@",
"@@@@    oooooooooooooooooooo        oooooooooooooooooooo    @@@@",
"++++                                                        ++++",
"++++                                                        ++++",
"++++                                                        ++++",
"++++                                                        ++++"
};
