/* XPM */
static char *afbb16af7f5d469ba44dd9027f6c46beMHeLgZ6bNpYgaQtk[] = {
/* columns rows colors chars-per-pixel */
"64 72 219 2 ",
"   c #7F642F",
".  c #7F7250",
"X  c #8C5F1E",
"o  c #905F1D",
"O  c #8A660D",
"+  c #8A671E",
"@  c #9D6619",
"#  c #A46D1F",
"$  c #B2711F",
"%  c #A3781A",
"&  c #835E27",
"*  c #8F6C2A",
"=  c #996B27",
"-  c #906930",
";  c #816536",
":  c #A66D20",
">  c #8A774B",
",  c #8F7852",
"<  c #EE9B1C",
"1  c #EF9E17",
"2  c #F39B1E",
"3  c #F4971E",
"4  c #EFA715",
"5  c #F4A51C",
"6  c #F6A91E",
"7  c #FCBC1F",
"8  c #CD9537",
"9  c #DB9234",
"0  c #DC9B3B",
"q  c #DD962A",
"w  c #EE9B25",
"e  c #E69B29",
"r  c #EC9C2B",
"t  c #F69722",
"y  c #FC9726",
"u  c #F49C23",
"i  c #FA9C24",
"p  c #F39C2A",
"a  c #F99B29",
"s  c #EC9E34",
"d  c #E49D3C",
"f  c #ED9D3A",
"g  c #E49933",
"h  c #F29E34",
"j  c #EAA52C",
"k  c #F9A224",
"l  c #FEA02E",
"z  c #F2A12E",
"x  c #FEBC23",
"c  c #FFB425",
"v  c #ECA134",
"b  c #E5A23D",
"n  c #EAA13C",
"m  c #E7A036",
"M  c #F6A233",
"N  c #F4A739",
"B  c #FFC61D",
"V  c #FBC718",
"C  c #FBCB22",
"Z  c #F4CB2A",
"A  c #FCCB2F",
"S  c #F7C727",
"D  c #ECCE3A",
"F  c #FECA35",
"G  c #F6D135",
"H  c #A9995A",
"J  c #B29853",
"K  c #B8A659",
"L  c #908C6F",
"P  c #978D76",
"I  c #9D9676",
"U  c #AE9B64",
"Y  c #AD9E6B",
"T  c #A6986D",
"R  c #BD9B67",
"E  c #B4956A",
"W  c #BC966C",
"Q  c #B59A6C",
"!  c #BA9A6B",
"~  c #AF9173",
"^  c #A6967E",
"/  c #AB9679",
"(  c #A39B7C",
")  c #AB9C7D",
"_  c #A29A76",
"`  c #B49B73",
"'  c #B99E76",
"]  c #A28A72",
"[  c #B7A369",
"{  c #BCA171",
"}  c #B4A47A",
"|  c #ACA47D",
" . c #DD9D45",
".. c #D59D4D",
"X. c #D89D47",
"o. c #C39859",
"O. c #C79B5C",
"+. c #D49D52",
"@. c #D09F5A",
"#. c #D99B50",
"$. c #E39D44",
"%. c #E69F45",
"&. c #DCA246",
"*. c #DBA04B",
"=. c #CDA15B",
"-. c #D4A155",
";. c #D0A159",
":. c #DCB647",
">. c #E4A344",
",. c #E3A54B",
"<. c #E2A650",
"1. c #EABD56",
"2. c #CBA363",
"3. c #C7A163",
"4. c #E0B570",
"5. c #FFCF45",
"6. c #EFD042",
"7. c #FFDB4D",
"8. c #FDD547",
"9. c #E6CB59",
"0. c #EFD55E",
"q. c #FFD554",
"w. c #FFD45A",
"e. c #F9DC5C",
"r. c #F8D956",
"t. c #E9CE6C",
"y. c #EACB63",
"u. c #F5DB61",
"i. c #FEDC64",
"p. c #FFDC6E",
"a. c #F7D766",
"s. c #E5CC70",
"d. c #EDD478",
"f. c #FFDE7D",
"g. c #F6D973",
"h. c #EDD666",
"j. c #FFE163",
"k. c #FFE474",
"l. c #FEE37B",
"z. c #908E8F",
"x. c #959584",
"c. c #9C9784",
"v. c #969B86",
"b. c #9C9A85",
"n. c #94958F",
"m. c #939A8B",
"M. c #9C9A8C",
"N. c #9B968A",
"B. c #8D8E92",
"V. c #8D9595",
"C. c #8E9A94",
"Z. c #8E979A",
"A. c #8D9A9B",
"S. c #939794",
"D. c #959C95",
"F. c #9A9B95",
"G. c #95969A",
"H. c #969C9A",
"J. c #9A9B9B",
"K. c #9A9790",
"L. c #88908A",
"P. c #A49686",
"I. c #A39A84",
"U. c #AB9D82",
"Y. c #A4968B",
"T. c #A29B8B",
"R. c #A99A8C",
"E. c #A49E92",
"W. c #A29C9B",
"Q. c #9AA289",
"!. c #91A094",
"~. c #95A19B",
"^. c #9AA29C",
"/. c #9BA197",
"(. c #A3A38E",
"). c #A8A385",
"_. c #A3A194",
"`. c #A1A59C",
"'. c #A8A19B",
"]. c #949CA2",
"[. c #9A9CA2",
"{. c #A89FA2",
"}. c #96A1A2",
"|. c #9AA3A2",
" X c #A8A9A3",
".X c #A9B4B0",
"XX c #DDD09C",
"oX c #DAC681",
"OX c #E0CD80",
"+X c #EDD783",
"@X c #FFDF8B",
"#X c #F3DD89",
"$X c #F6DD93",
"%X c #FFE583",
"&X c #FEE48D",
"*X c #FBE68A",
"=X c #F6E296",
"-X c #FFE393",
";X c #FDE59C",
":X c #FDE99B",
">X c #F3E49F",
",X c #FFDFA6",
"<X c #FEEAA5",
"1X c #F2E5AB",
"2X c #F9E7A6",
"3X c #FFF3AE",
"4X c #F5EAB8",
"5X c #FFF2B6",
"6X c #FDF4BE",
"7X c #D4D8CA",
"8X c #EFE9CF",
"9X c #F5EECA",
"0X c #F8ECC7",
"qX c #FEF2C3",
"wX c #FAF5CA",
"eX c #EAE1D2",
"rX c #F5ECD4",
"tX c #F6F0D3",
"yX c #F9F4D7",
/* pixels */
"H.H.H.H.H.H.H.H.H.H.H.H.H.H.H.H.H.H.H.H.H.H.H.H.H.H.H.H.H.H.H.H.H.H.H.F.H.H.H.H.H.H.H.H.H.H.H.H.H.H.H.H.H.H.J.H.H.H.H.H.H.H.H.H.",
"H.H.H.H.H.H.H.H.H.H.H.F.H.H.H.H.H.H.H.H.H.H.H.F.H.H.H.H.H.H.H.H.H.H.J.H.H.H.H.H.H.F.H.H.H.H.H.H.H.H.H.F.H.H.F.H.H.H.H.H.H.H.H.H.",
"H.H.H.H.H.H.H.H.H.H.H.H.H.H.H.H.H.H.H.H.H.H.H.H.J.H.H.H.H.H.H.H.H.H.H.H.H.H.H.H.H.H.H.H.H.H.H.H.H.H.H.H.H.H.H.H.H.H.H.H.H.H.H.H.",
"H.H.H.H.H.H.H.H.H.H.H.H.H.H.H.H.H.H.H.H.H.H.H.H.H.H.H.H.H.H.F.H.H.H.H.H.H.H.H.H.H.H.H.H.H.H.H.H.H.H.H.H.H.H.H.H.H.H.H.H.H.H.H.F.",
"H.H.H.H.H.H.H.F.H.H.H.H.H.H.H.H.H.H.H.F.H.H.H.H.H.H.H.H.H.H.J.H.H.H.H.H.H.H.H.H.H.H.H.H.H.H.H.H.H.H.H.H.H.F.H.H.H.H.F.H.H.H.H.H.",
"H.H.H.H.H.H.H.H.H.H.H.H.J.H.H.H.H.H.H.J.H.H.H.H.H.H.H.H.H.H.H.H.H.H.H.H.H.H.H.H.H.H.H.H.H.H.H.H.H.H.J.H.H.H.H.H.H.H.H.H.H.H.H.H.",
"H.D.H.H.H.H.H.H.H.H.H.H.H.H.F.H.H.H.H.H.H.H.H.F.H.H.F.H.H.H.H.H.H.J.H.H.H.H.H.H.H.H.H.H.J.H.H.H.H.H.H.H.H.H.H.H.H.H.H.H.H.H.H.H.",
"H.J.H.H.J.H.H.H.H.H.H.H.H.H.H.H.H.H.H.H.H.H.H.H.H.H.H.H.H.H.H.H.H.H.H.H.H.F.H.H.H.^.F.H.H.H.H.H.H.H.H.H.H.H.H.H.H.H.H.H.H.J.H.H.",
"H.H.H.H.H.H.H.H.H.H.H.H.H.H.H.H.H.H.H.H.H.H.H.J.H.H.H.H.H.H.H.H.H.H.H.H.H.H.J.H.H.H.H.H.H.H.H.H.H.H.F.H.H.H.H.H.H.H.H.H.H.H.H.H.",
"H.H.H.H.H.F.J.H.H.H.H.H.H.H.J.H.H.F.H.H.H.H.H.H.H.H.H.H.H.H.H.H.H.H.H.H.H.H.H.F.H.H.H.H.H.F.H.H.H.H.H.H.J.H.H.H.H.H.H.J.F.H.H.H.",
"H.H.H.H.H.H.H.H.H.H.H.H.H.H.H.H.H.H.H.H.H.H.H.H.H.H.H.H.H.H.H.F.H.H.F.H.H.H.H.H.H.H.H.H.H.H.H.H.H.H.H.H.H.H.H.H.H.H.H.H.H.H.H.H.",
"H.H.H.H.H.H.H.H.H.F.H.H.H.H.H.H.H.H.H.H.H.H.H.H.J.H.H.H.H.H.H.J.H.H.H.H.H.H.H.H.H.H.H.H.H.H.H.H.H.H.H.H.H.H.H.H.H.H.H.H.H.H.H.H.",
"H.H.H.F.H.H.H.H.H.H.H.H.H.H.H.H.H.H.H.J.H.H.H.H.F.H.H.H.H.H.H.H.H.H.H.H.H.H.H.H.H.H.H.H.H.H.H.H.H.H.H.H.F.H.H.H.H.H.H.H.H.H.H.H.",
"H.H.H.H.H.H.H.H.H.H.J.H.F.H.H.H.H.H.H.H.H.H.H.H.H.H.H.H.H.H.H.H.H.H.J.H.F.H.H.H.H.H.H.F.H.H.H.J.H.H.H.H.H.H.H.H.H.H.H.H.H.H.H.H.",
"H.H.H.H.H.H.H.H.F.H.H.H.H.H.H.H.H.H.H.H.F.H.H.H.H.H.H.H.H.H.H.H.H.H.H.H.H.H.H.H.H.H.H.H.H.H.H.H.H.H.H.H.H.H.H.H.H.H.H.H.H.F.H.H.",
"H.H.H.H.H.H.H.H.H.H.H.H.H.H.H.H.H.H.H.H.H.H.H.H.H.H.H.H.H.H.H.H.H.H.H.H.H.H.H.H.H.H.H.H.H.H.H.H.H.H.J.H.H.H.H.H.H.H.H.H.H.H.J.H.",
"H.H.H.H.H.H.H.H.H.H.H.H.J.H.H.H.H.H.H.H.J.H.H.H.H.H.H.H.J.H.H.H.H.H.H.H.F.H.H.H.H.H.H.H.H.H.H.H.H.H.H.H.F.H.H.H.H.H.H.H.H.H.H.H.",
"H.H.H.H.F.H.H.H.H.H.H.H.H.H.H.H.H.H.H.H.H.F.H.H.H.H.H.H.H.H.H.H.H.H.H.H.H.H.H.J.H.H.H.H.H.H.H.H.F.H.H.H.H.H.H.H.H.H.H.H.H.H.H.F.",
"H.H.H.H.H.H.H.H.H.H.H.H.H.F.H.H.H.H.H.H.H.H.H.H.H.H.H.H.H.H.F.H.H.H.H.H.H.H.H.H.H.H.H.F.H.H.H.H.H.H.H.H.H.H.H.H.H.H.H.J.H.H.H.H.",
"H.J.H.H.H.H.H.H.H.H.H.H.H.H.H.H.H.H.H.H.H.H.H.H.H.H.H.H.H.H.H.H.H.H.H.H.H.H.H.H.H.H.H.H.H.H.H.H.H.H.H.H.H.H.H.H.H.H.H.H.H.H.H.H.",
"H.H.H.H.H.H.H.H.H.H.F.H.H.H.H.H.H.H.H.H.H.H.H.H.H.H.H.H.H.H.H.H.H.J.H.F.H.H.H.H.H.H.J.H.H.H.H.H.H.H.H.H.H.H.H.H.H.H.H.H.H.H.H.H.",
"H.H.H.H.H.H.H.J.H.H.H.H.H.H.H.H.H.H.H.H.H.H.H.H.H.H.F.H.H.H.H.H.H.H.H.H.H.H.H.H.H.H.H.H.H.H.H.H.H.H.H.F.H.H.H.H.H.H.H.H.H.H.H.H.",
"H.H.H.H.H.H.H.H.H.H.H.J.H.H.H.H.H.H.H.H.H.H.H.H.H.H.H.H.H.H.H.H.H.H.H.H.H.H.H.H.H.H.H.H.F.H.H.H.H.H.H.J.H.H.H.H.H.H.H.H.H.H.H.H.",
"H.H.H.H.H.F.H.H.H.H.H.H.H.H.H.F.H.H.H.F.J.H.H.H.H.H.H.H.H.H.H.H.H.H.H.H.H.H.H.H.F.H.H.H.H.J.H.H.H.H.H.H.H.H.H.H.H.H.F.H.H.H.H.J.",
"H.H.H.H.H.H.H.H.H.H.H.H.H.H.H.H.H.H.H.H.H.H.H.H.H.H.H.H.H.H.H.F.H.H.H.H.H.F.H.H.F.H.H.H.H.H.H.H.H.H.H.H.H.H.H.H.H.H.H.H.H.H.H.H.",
"H.H.H.J.H.H.H.H.J.H.H.H.H.H.H.H.H.H.H.H.H.H.H.H.H.H.H.H.H.H.H.H.H.H.H.H.H.H.H.H.H.H.H.H.H.H.H.H.H.H.H.H.H.H.H.H.H.H.H.F.H.H.H.H.",
"H.H.F.H.H.H.H.H.H.H.H.F.H.H.H.J.H.H.H.H.H.H.H.H.H.F.H.H.H.H.H.H.H.H.H.H.H.H.H.H.H.H.H.H.H.H.H.H.H.H.H.H.H.F.H.H.H.H.H.H.H.H.H.H.",
"H.H.H.H.H.H.H.H.H.H.H.H.H.H.H.H.H.H.F.H.H.H.H.H.H.H.H.H.H.H.H.H.H.H.H.H.H.H.H.H.H.H.H.H.H.H.H.H.H.H.H.H.H.H.H.H.H.H.H.J.H.H.H.H.",
"H.H.H.H.H.H.H.H.H.H.H.H.H.H.H.H.H.H.H.J.H.H.H.H.H.H.J.H.H.H.H.H.H.H.H.H.H.J.H.H.H.H.H.H.H.H.H.H.H.H.H.H.H.H.H.H.H.H.H.H.H.H.H.H.",
"H.H.H.H.H.H.H.H.H.H.H.H.H.H.H.H.H.H.H.H.H.H.H.H.H.H.H.H.H.H.H.H.H.H.H.H.H.H.H.H.H.H.H.H.H.H.H.H.H.H.H.H.H.H.H.H.H.H.H.H.H.H.H.H.",
"H.H.H.H.H.H.H.H.H.H.H.H.H.H.H.H.H.H.H.H.H.F.H.H.H.H.H.H.H.H.H.H.H.H.H.H.H.H.H.H.H.H.H.H.H.H.H.H.H.H.H.H.H.H.H.H.H.H.H.H.H.H.H.J.",
"H.H.H.H.J.H.H.F.F.H.H.H.H.F.H.H.H.H.H.H.H.H.H.J.J.J.H.H.H.H.H.~.F.H.H.H.H.H.H.F.D.~.H.H.H.H.H.F.F.F.H.H.H.~.H.H.H.F.F.H.H.H.H.F.",
"J.H.H.H.J.H.J.D.H.D.C.G.F.F.J.F.G.H.H.H.[.H.J.[.].H.G.H.~.C.H.!.~.C.G.[.V. XV.D.!.!.~.A.|.|.S.m._.K.J.].}.}.V.^.F.F.H.H.H.H.H.D.",
"D.H.H.].].J.J.D.S.D.H.~.H.^._.J.D.A.G.D.G.D.H.H.].H.].].H.H.D.C.^.^.[.J.z. XM.v.m.Q.!.v.b.b.I I _ _ T.n.G.|.C.H.F.F.H.H.].~.H.D.",
"F.H.H.H.H.J.H.D.D.H.H.H.D.S.D.H.H.^.~.H.D.^.^.H.J.J.[.H.~.H.G.D.C.H.H.F.'.eXrX9XwXwX4X1X2X;X#X*X+X$XXX).v.^.F.J.F.H.H.H.].~.H.D.",
"D.H.H.H.].H.H.H.H.H.G.D.D.F.H.H.D.C.C.S.C.m.m.D.G.H.H.H.H.A.D.H.H.|.J.S._.yXyXwXqX5X1X-X-Xf.h.0.0.g.d.Y P F.J.J.H.J.H.].A.}.A.!.",
"J.D.H.H.H.H.H.H.H.G.G.~.~.|.~.D.H.H.~.!.!.^.^./.H.H.[.[.|.[.|.[.C.~.!.m.(.8XyX4X6X5X:X%X%Xk.u.r.7.j.d.[ I ^.J.G.H.].}.A.].A.~.~.",
"F.J.J.H.H.~.].[.H.H.H.!.}.A.L.L.C.C.m.m.m.Q.v.v.c.c.b.v.v.M.M.b.Q.(.Q._ | 4XqXqX5X<X@X@Xl.k.i.e.r.i.s.U I /.G.].].H.H.].A.}.~.H.",
"J.H.H.H.!.A.H.].H.H.~.C.A.~. X X_.Q.(.( _ _ T T Y Y Q U U U U H H H J J K $X<X5X<X:X*Xl.%Xk.a.y.p.g.4.Y Q.^.A.|.H.H.H.!.H.H.H.H.",
"F.D.H.G.D.H.[.].].H.~.C.A..X7XyXyXtX9X4X1X1X1X=X+X+Xd.d.s.t.y.y.9.9.9.0.:.1.&.X.&.&.b b b 8 % O O + L L /.}.Z.}.H.H.H.H.H.H.H.H.",
"D.H.J.H.D.~.H.].G.[.H.}.].!.yXtX9XwX6X1X2X:X*Xd.h.u.e.r.D D D G Z Z Z Z S j j s s e M e f  .@ + ;   > x.|.A.A.~.D.D.H.F.H.H.J.H.",
"D.F.].H.D.H.H.].G.].D.!.A.D.tXqXqXqX5X2X=X*Xl.u.e.r.7.8.G Z C C V V V V 7 4 < < u < i w N $.# = -   , c.|.A.A.~.D.F.D.F.H.H.H.F.",
"D.H.H.J.!.H.].].G.H.C.A.H._.qX6X5X5X3X;X&X%Xl.p.w.q.7.G A Z C C C B V S x 6 k u i < k w s 9 @ o X & > P ^.~.G.~.F.F.F.J.H.H.D.D.",
"H.H.[.].H.C.H.H.H.H.H.H.|.R.2X$X;X;X-X@Xf.f.p.i.w.q.q.5.F F F A x 7 x c c k u u u 2 i t p 9 $ # : = , I M.D.H.J.F.F.H.H.H.H.D./.",
"H.G.[.[.H.D.H.H.G.J.H.H.J._ 4.<.>.>.>.b m v v j r w k w 1 2 < 4 5 5 5 6 5 2 t t u 3 2 y l M g 9 0 8 R Q R.F.H.J.J.J.H.H.A.~.H.!.",
"C.G.[.[.D.!.D.H.D.H.}.H.W.] -.q r r w u p u u u p a u p u u i i < 3 2 2 2 2 t i i 2 3 y k l p v N n =.! P.G.[.[.J.F.H.H.~.H.~.C.",
"!.~.[.[.H.D.!.H.F.G.[.H.{.~ <.w u u 2 u 2 i u u a u u t u u u u t a i u 2 u i k u u u t 3 3 2 2 u m +.E P.J.[.[.J.H.H.D.H.~.H.H.",
"!.H.[.[.H.D.D.H.J.H.A.V.W.~ >.w k u w m n d d r a u a s n >.&.&.$.$.$.$.s r z u w u u i y 2 k 2 2 v +.! Y.[.[.].H.H.D.H.H.A.H.~.",
"!.D.J.].H.~.D.F.J.J.].A.F.W 0 u 2 z  .o.E E J %.a y M $.o.~ / I.^ U.~ E o.X.s a a y a u u 2 p i i h ..W P.D.H.].H.H.H.H.H.].H.].",
"D.D.J.J.H.D.H.J.W.J.].A.F.' X.p t s @.Q b.c.Q -.r y h ..Q N.D.H.].J.J.P.W @.%.p y y i u 2 w u a i s ..R ( D.H.H.H.D.D.H.H.H.H.[.",
"D.D.J.J.H.H.H.H.J.J.].H.F.` ..v r n @.E ( P.Q ;.g p f +.Q b.F.H.D.F.K.Y.` @.b p a t i u 2 5 u i p >.@.Q b.D.H.G.D.F.D.D.H.H.H.H.",
"D.H.H.J.F.H.H.H.J.J.H.].H.U.@.&.>.<.2.` I.I.` 2.>.f ,.@.` T.F.H.D.F.F.T.` O.&.d f f s m r j s s d *.3.` b.D.!.D.D.D.F./.A.H.H.H.",
"H.H.H.J.F.D.~.H.H.H.H.].J.U.{ ;.=.2.3.) T.M.I.{ =.-.=.3.).F.~.}.H.D.J.M.) ' =.+.+.#.+.+.......#.+.O.{ ) M.F.H.H.D.F.D.H.H.~.H.H.",
"H.D.F.F.D./.A.H.H.H.].H.H.T.` ! Q ` U.T./.F.b.U.! R [ ) M.D.A.].G.~.H.D.T.) ! ! W W ' W Q W W W R Q ) I.D.H.H.H.F.D.J.H.H.H.H.H.",
"H.H.D.F.D.!.D.~.H.J.~.H.H.F.U.U.P.I.M.K.J.[.D.M.( ( ( b.D.A.].A.].].].G.F.E.P.^ Y.Y.Y.Y.T.T.Y.Y.^ U.T.K.H.H.[.H.J.H.H.].H.H.H.H.",
"H.H.F.F.D.D.~.C.H.H.H.G.G.D.M.F.n.D.F.J.}.}.].H.F.M.m.H.H.].].].].].].].H.J.F.n.J.J.].].H.J.J.J.K.M.F.H.G.H.[.H.J.H.H.].H.H.J.H.",
"H.H.F.D.D.!.C.H.H.D.H.H.H.~.H.H.A.~.J.J.J.H.].H.D.D.D.H.H.H.].J.].].[.].[.G.J.J.H.].].}.!.~.H.H.H.H.].H.H.].H.H.J.J.H.].G.H.H.J.",
"H.H.F.F.H.H.~.~.D.H.H.~.].A.].].].].H.J.J.J.H.H.H.~.H.~.H.H.H.H.J.[.[.[.G.J.H.H.~.A.H.A.~.C.D.D.H.].].}.].].H.H.[.G.[.H.[.H.J.D.",
"[.H.D.D.H.H.H.D.H.H.H.H.~.].].].].].H.D.F.F.H.H.H.H.H.C.~.D.D.F.J.J.[.J.J.J.J.D.~.H.H.H.D.D.F.D.].].].A.H.H.D.H.H.H.G.H.H.H.D.D.",
"].H.D.D.~.H.H.H.H.D.~.C.H.].].].].H.H./.D.F.D.F.H.H.H.~.D.D.D.H.G.].H.G.D.J.G.H.H.G.H.H.D.F.F./.}.A.H.H.H.D.D.H.H.J.J.H.J.F.D.F.",
"[.J.H.H.A.].H.D.D.~.].H.C.D.H.].].H.H.A.D.D.J.F.].H.H.H.~.H.D.H.A.H.~.D.H.H.H.H.].H.].H.H.J.H.H.H.H.H.H.F.D.D.D.H.H.J.H.F.D.F.D.",
"H.].~.C.].].H.F.D.~.A.~.!./.H.H.J.H.H.!.~.D.D.J.H.H.H.H.H.~.C.~.A.~.D.!.D.D.H.H.H.H.H.].].].].H.H.H.H.D.D.F./.H.H.H.H.J.J.D.H.H.",
"].[.~.A.].].J.F.D.H.H.A.!.F.J.J.J.F.~.A.!.C.F.J.W.F.H.H.H.C.!.].~.~.!.F.F.F.H.H.D.H.D.H.H.H.H.H.J.J.F.F.D.D.G.H.].].].J.J.H.H.H.",
"J.H.H.~.].[.J.F.F.H.~.H.D.F.G.J.F.D.H.!.~.H.F.J.K.J.H.H.H.H.H.H.H.~.D.D.F.F.H.H.H.D.H.H.H.H.H.H.F.J.F.F.H.D.H.H.].H.[.G.J.J.H.H.",
"H.H.H.H.H.H.H.H.H.H.H.H.D.H.F.J.H.F.H.H.H.H.F.F.H.H.J.H.H.H.H.H.H.H.F.H.F.H.H.H.H.F.H.H.F.H.H.H.H.H.F.H.F.H.H.H.H.J.J.H.H.H.H.H.",
"H.H.H.H.H.H.H.H.H.H.H.H.H.H.H.H.H.H.H.H.H.H.H.H.H.H.H.H.H.H.H.H.H.H.H.H.H.H.H.H.H.H.H.H.H.H.H.H.H.H.H.J.H.H.H.H.H.H.H.H.H.H.H.H.",
"H.H.H.H.H.H.H.H.H.H.H.H.H.H.H.H.H.H.H.H.H.H.H.H.H.H.H.H.H.H.H.H.H.H.H.H.H.H.H.H.H.H.H.H.H.H.H.H.H.H.H.H.H.H.H.H.H.H.H.H.H.H.H.H.",
"H.H.H.H.H.H.H.H.H.H.H.H.H.H.H.H.H.H.H.H.H.H.H.H.H.H.H.H.H.H.H.H.H.H.H.H.H.H.H.H.H.H.H.H.H.H.H.H.H.H.H.H.H.H.H.H.H.H.H.F.H.H.H.H.",
"H.H.H.F.H.H.H.H.H.H.H.H.H.H.H.H.H.H.H.H.H.H.H.H.H.H.H.H.H.F.H.H.F.H.H.H.H.H.H.H.H.H.H.H.H.H.H.H.H.H.H.H.H.H.H.H.H.H.H.H.H.H.H.H.",
"H.H.H.H.H.H.H.H.H.H.H.H.H.H.H.H.H.H.H.H.H.F.H.H.H.H.H.H.H.J.H.H.H.H.H.H.H.H.H.H.H.H.H.F.H.H.H.H.H.H.H.H.H.H.F.H.H.H.H.H.H.H.H.H.",
"H.H.H.H.H.H.H.H.H.H.J.H.H.H.H.H.H.H.H.H.H.H.H.H.H.H.H.H.H.H.H.H.H.H.J.H.H.H.H.H.H.H.H.H.H.H.H.H.H.H.H.H.H.H.H.H.H.H.H.H.H.H.F.H.",
"H.H.H.H.H.H.H.J.H.H.F.H.H.H.H.H.H.H.H.H.H.H.H.H.F.H.H.H.H.H.H.H.H.H.H.H.H.H.H.H.H.H.H.H.H.H.H.H.H.H.H.H.H.H.H.H.H.H.H.H.H.H.H.J."
};
