/* XPM */
static char *_b71ca03260b40ecf2a6da927b55ee51qKKwbxjDulLsPQla[] = {
/* columns rows colors chars-per-pixel */
"64 72 105 2 ",
"   c #2E395B",
".  c #313B5E",
"X  c #323E60",
"o  c #2E4058",
"O  c #34445E",
"+  c #374565",
"@  c #3A4466",
"#  c #344862",
"$  c #394964",
"%  c #37446B",
"&  c #3B4669",
"*  c #3D496B",
"=  c #374470",
"-  c #424F71",
";  c #4D5F77",
":  c #52637D",
">  c #556384",
",  c #596686",
"<  c #566A82",
"1  c #5A6A86",
"2  c #5A6688",
"3  c #5B698A",
"4  c #5F708A",
"5  c #5F719C",
"6  c #616B8E",
"7  c #62758D",
"8  c #626E92",
"9  c #657196",
"0  c #64759C",
"q  c #5F71A2",
"w  c #6273A3",
"e  c #8DA2B7",
"r  c #93A4BE",
"t  c #9AAFC4",
"y  c #9BAFC7",
"u  c #9AABC5",
"i  c #9EAEC8",
"p  c #9FAECB",
"a  c #9EB5C3",
"s  c #9BB0C5",
"d  c #9DB2C7",
"f  c #9EB3C6",
"g  c #9EB5C5",
"h  c #9FB4C7",
"j  c #9EB5C7",
"k  c #9EB3C8",
"l  c #9FB0CA",
"z  c #9FB4C9",
"x  c #A0AFCC",
"c  c #A1B6C7",
"v  c #A0B1CB",
"b  c #A0B2CA",
"n  c #A1B6C9",
"m  c #A1B6CB",
"M  c #A2B2CC",
"N  c #A3B3CD",
"B  c #A3B5CD",
"V  c #A2B6CE",
"C  c #A4B5CF",
"Z  c #A0B9CD",
"A  c #A3B8CD",
"S  c #A0B9CF",
"D  c #A2B8CF",
"F  c #A2BBCF",
"G  c #A4B9CE",
"H  c #A6BBCE",
"J  c #A1BCCD",
"K  c #A2BCCD",
"L  c #A1BCCF",
"P  c #A0BDCF",
"I  c #A3B7D0",
"U  c #A5B6D0",
"Y  c #A5B6D2",
"T  c #A6B7D3",
"R  c #A0B7D6",
"E  c #A3B6D6",
"W  c #A2B7D6",
"Q  c #A2B6D7",
"!  c #A5B5D6",
"~  c #A8B7D4",
"^  c #A0B8D0",
"/  c #A2B8D0",
"(  c #A2BBD1",
")  c #A2BAD2",
"_  c #A4B8D1",
"`  c #A5BBD0",
"'  c #A4BAD1",
"]  c #A6BBD0",
"[  c #A5B9D2",
"{  c #A7B8D2",
"}  c #A4BAD2",
"|  c #A5BBD2",
" . c #A5BBD3",
".. c #A6BAD3",
"X. c #A1BCD1",
"o. c #A3BCD0",
"O. c #A3BCD2",
"+. c #A6BCD3",
"@. c #A7BBD4",
"#. c #A6BBD6",
"$. c #A7BBD6",
"%. c #A4BCD6",
"&. c #A8B9D3",
"*. c #A9BAD6",
"=. c #A9BAD8",
/* pixels */
"w w 0 0 Q =./ H J J J J J J J J o.o.o.J o./ o.o.o.J / o.o.o.o.P P o.P P +.J o.o.o.o.o.z o.o.o.o.J H P J J H P H H J =.R w 5 w w ",
"q w 5 0 R %.D +.J J H J J H H J o.P o.o.P z o.P o.o.P z o.P o.z o.o.P z o.o.P z o.P o.o.o.X.P P J J H J J J J J +./ %.R 0 0 w w ",
"q w 5 0 R %.z o.H J J J P P J o.P P P P P P P P P P P P P P P P o.P X.P P P P P P P P P X.P P P z X.P J J J J P J z %.R 0 5 w q ",
"q q 5 0 R %.X.o.J J J J P P P z P P P P P P P P P P P P P P P P P P P P P P P P P P P P z P P P P o.J o.J P H P o.D %.R 0 5 w q ",
"q w 5 0 X.%.^ o.J X.X.X.%.o.X.X.z P P P P z J J P P X.z P P X.z P P X.X.P P P P z P P P P P z X.P P X.X.X.X.o.z o.^ $.R 0 5 q 5 ",
"q w 5 0 R %./ +./ o.o.o.o.o.X.z X.X.P P P o.o.J o.o.o.J P P o.J P P z o.o.o.X.o.X.X.P P P P P J P P X.o.X.o.o.o.o.^ $. .0 5 w q ",
"5 0 5 0 R $./ +.o./ +./ %.o.%.P o./ o.o.%.P H [ o.o.o.o.%.o.o.o.%.o.o.o.o.o.o.o./ o.o.o.%.P D o.+.o.R / / / [ [ %./ +.R 0 5 0 5 ",
"0 w 9 0 ! *.[ [  . .[ / [ o.$.P [ [ [ / +.$.&.H %.[ R [ +.o.R [ R o.[ [ / [ +.R [ [  .[ [ +.[ H +.o.+.o. . .[ [  .U *.+.0 0 w 0 ",
"X - @ @ - O O $ # + # # @ # # # # @ # # @ O . O @ O O @ @ # # + $ # # @ @ # @ O $ # @ O @ @ O @ O # # $ O O O . # # @ & & & % = ",
"= X & @ . O - O @ # @ # # # O @ + @ @ @ @ @ - . - . - @ @ @ @ @ @ @ @ @ @ @ @ @ @ @ $ @ & @ @ $ $ O @ O O - O - @ @ O @ + @ & % ",
"= = @ @ - . @ O & $ @ @ $ @ $ $ @ * % % & & - - @ - - X & & & & - & & & & & % % - & & & & & % % $ $ @ @ - O - . O O - . & = X - ",
"= * X - @ @ O - @ @ @ # @ + @ @ + % + % @ @ . @ . . @ + @ @ + % . + @ @ + + & % . @ @ @ + + + % @ @ + @ @ @ @ X & @ O - & = = X ",
"& & & & @ @ @ O 3 3 6 3 3 3 3 3 5 2 3 3 3 3 3 3 6 6 6 , 3 3 6 3 6 6 3 3 6 3 3 3 6 6 3 3 6 3 3 3 3 3 6 3 6 6 2 6 @ @ @ @ & @ @ & ",
"& & @ @ @ @ @ @ 2 2 2 2 , 2 , , < 2 2 2 2 3 3 > 6 , , 1 2 2 2 2 , , 2 2 2 2 2 2 , , 2 2 2 2 2 2 < , , , 2 2 2 2 @ @ @ @ & @ & & ",
"@ @ @ @ @ @ + % 3 3 3 3 3 3 3 3 3 3 3 3 3 3 3 3 3 3 2 3 3 3 1 3 2 1 3 3 3 3 3 2 2 3 3 3 3 3 3 3 3 1 3 3 6 2 6 2 @ @ @ @ @ @ & @ ",
"@ @ @ @ + + + % 3 3 3 3 3 1 3 3 3 2 2 3 3 3 3 3 3 3 2 1 3 3 3 1 3 1 3 3 3 3 3 3 2 1 3 3 3 3 3 3 3 3 3 3 2 2 2 , @ @ @ @ @ & @ @ ",
"@ & @ @ , , 6 : 1 1 2 2 3 3 3 2 6 3 3 3 3 3 3 6 3 3 3 3 3 3 3 3 3 6 3 3 3 3 3 3 3 6 3 3 3 3 3 3 2 3 3 3 2 2 2 3 < 3 1 6 O O @ @ ",
"@ @ @ @ 6 : : 6 1 1 2 2 3 3 2 2 2 2 , , , , , , 1 < , , , , , , , , , < 2 , 1 < , , , < 2 < 2 2 3 3 3 3 2 2 3 < 1 1 : 6 O - - @ ",
"@ @ @ @ 7 : 6 : 1 , 2 2 3 3 6 2 3 3 1 3 3 3 3 1 3 3 3 3 6 1 1 6 1 3 3 3 3 3 4 3 1 3 3 3 3 3 3 4 2 6 3 2 > 2 2 2 1 1 1 3 O O O O ",
"@ @ & @ 6 : 6 6 2 , 2 2 3 8 6 3 , , < < < < < < < < < < < < < < < : < < < < < < < < < < < < < < 3 6 6 6 3 2 2 2 1 3 < 3 - - . - ",
"@ @ & + 6 : 6 6 6 1 2 3 6 9 9 9  .o.o.H ] H [ H +.+.o.o.+.+.+.H +.H +.+.+.+.+.+.] H +.H +.+.+.$.8 8 8 8 2 2 2 3 , 3 , 6 . - . @ ",
"@ @ & + 6 : : 6 2 2 3 8 9 9 9 9 / o.z D K K z D J z z o.z z z D H J J z z D z z D D z z z z z o.9 9 9 8 6 6 3 3 1 , , , X - @ @ ",
"@ @ & + 6 6 6 6 2 2 6 6 6 9 9 9  .$.+.+.+.$.+.+.+.+.+.$.+.+.+.+.+.+.+.+.+.+.+.+.$.$.+.+.$.$. . .9 9 9 9 6 3 3 3 3 3 , 6 @ X @ @ ",
"- @ & O 1 : 6 6 2 2 2 6 9 9 w w ! [ [ / [ / [ o.[ / +./ o.%./ [ / [ [ / / [ [ / o./ o.$.U [ U U 9 9 9 9 3 2 2 2 3 3 6 6 X - @ @ ",
"X & X - 6 , , 3 3 3 2 3 % & X X @ # # @ # + # # + # # + # # + + # # + # + # # + # # @ # # # + + % = & % 6 2 3 3 3 3 2 3 & & & @ ",
"- X - X 6 6 3 1 3 3 2 3 % & - X @ # @ + & @ & + @ + & + & & @ + & @ @ + + + & $ % + @ + @ @ & + @ & & + 3 2 3 1 1 3 2 3 @ & & & ",
"& X X X 6 : : 6 1 1 2 3 & & & X & & * * & & & * & & * & @ & & * & & & & & & & & & & * % & & & & & & = % 3 2 3 1 1 3 2 3 & & + + ",
"@ - X - 7 : 6 6 3 3 2 6 @ = & & & & + + + + % % & & + + + + % % @ & + & & & + & & + & & & + & & - X & % 3 2 3 1 3 3 , 3 + & @ @ ",
"@ @ $ @ 6 : 6 : 1 3 2 3 & & & & 2 3 3 3 3 6 6 3 3 3 3 6 3 6 3 6 6 3 3 3 2 3 3 3 3 3 3 3 3 3 6 3 X & - X 3 , 3 3 1 7 : 1 + @ @ @ ",
"@ @ $ @ 6 : 7 : 1 3 2 3 % & + & 2 2 2 2 2 2 1 < 2 2 2 1 2 2 1 < 2 1 3 < 2 2 2 2 2 2 1 2 2 , 2 2 = & - X 6 , 3 1 1 : 6 6 + & @ @ ",
"- . @ O 6 : 7 6 1 1 2 3 + & & + 1 1 3 3 3 < 3 1 1 1 1 1 2 3 3 1 3 1 3 1 3 3 1 1 1 3 3 1 3 2 3 3 X - X X 1 , 7 : 1 1 : 6 O $ @ @ ",
". - - . 6 : 6 : 3 3 , 3 + & & % 1 1 1 1 < 3 3 < 1 1 1 < < < < 1 1 < 1 1 < 1 1 1 1 1 1 1 1 1 2 6 & X & - 6 1 1 6 : 6 , 6 @ $ @ @ ",
"@ @ % # 3 3 3 3 3 3 3 3 + * @ & 1 1 6 : : 1 : 7 k n d j c j c c s +.t m < 4 : 4 1 1 1 3 2 1 3 3 % @ & & 6 2 3 3 3 3 2 3 % % $ @ ",
"@ + * % 3 > 3 3 3 3 2 3 + & @ + 6 7 : 6 7 : 7 : M d c j a a j c H z t m 1 4 1 < 1 1 3 1 3 3 3 2 @ @ & & 3 2 3 3 3 3 2 3 % % @ & ",
"& @ % % 3 3 3 3 3 3 2 3 + % @ @ 1 : 6 : : 7 1 1 n n n n n c c c j d D H < < 4 4 1 1 2 2 2 1 2 3 + & & + 3 2 3 3 3 3 > 3 + & @ @ ",
"+ @ % % 3 2 3 3 3 3 2 3 + & @ @ 1 6 6 : 7 : 1 : k M M k d d c c s s s e 7 : < : 1 < 3 3 3 2 3 2 & & & + 3 2 3 3 3 3 3 3 + & + & ",
"& @ & & 3 2 3 3 3 3 2 3 + & @ @ 1 6 : 6 6 1 1 1 $ # @ O O - O O $ $ $ ; r &.C &.1 1 1 1 3 1 3 2 X @ & % 3 2 3 3 3 2 2 6 % & @ & ",
"+ @ & + 3 2 3 3 3 3 2 3 + * @ @ 1 1 6 : 1 1 1 1 + + $ O + @ O O O $ o O M &.u M 1 1 1 3 1 3 2 3 @ @ & + 3 2 3 3 3 3 2 3 + & & + ",
"@ @ & % 3 2 3 3 3 3 2 3 + & @ & : 7 : 6 1 , 2 1 $ @ @ $ - X X & O O $ $ i i i ! 1 1 2 2 3 2 1 2 & @ & & 3 2 3 3 3 3 2 3 & & + @ ",
"@ + & + 3 3 3 3 3 3 2 3 @ @ & $ 7 : : 6 1 3 3 1 + + @ @ X & & @ $ O $ $ M N ~ M 3 < 3 2 3 1 3 1 @ @ & & 3 2 3 2 3 3 2 3 + & @ @ ",
"@ @ & + 3 2 2 2 3 3 2 3 % % @ @ 6 : : 6 : 6 7 : @ @ @ & X - & @ $ $ @ @ @ $ O O : : 6 6 3 1 3 3 @ @ % % 3 2 3 3 3 3 2 3 % * + @ ",
"@ @ & + 3 2 6 3 3 3 2 3 # % @ @ 7 : 6 : 6 : 6 6 @ + @ & & X = @ $ $ $ O $ O @ $ 6 6 6 : 1 3 1 2 & & $ + 3 2 3 3 3 3 2 3 % % + & ",
"@ & & & 3 2 3 3 3 3 3 3 % % @ @ 6 : 6 6 6 6 6 : % + @ @ & & = @ @ @ @ @ @ @ @ @ 1 6 6 : 1 2 1 1 @ @ % % 3 2 3 3 3 3 2 3 & & & + ",
"@ @ & & 3 2 3 3 3 3 2 3 + * @ + : 7 : 7 : : 6 6 & & & @ & & @ @ @ @ $ @ @ $ O @ 6 : 6 7 3 1 1 , & @ % % 3 2 3 3 3 3 2 3 + @ + & ",
"@ @ * % 3 2 3 3 3 3 2 3 + + @ @ 2 2 3 1 6 6 1 1 @ + @ + @ @ @ @ @ @ @ @ @ @ @ @ : 6 1 1 3 , 1 3 @ & & + 3 2 3 3 3 3 2 3 & & & + ",
"@ @ & # 3 2 3 3 3 3 2 3 + * & + 3 3 1 3 6 : 1 1 @ # @ & @ @ @ @ . - @ @ @ @ @ @ 1 1 , , 1 3 3 1 @ @ & + 6 2 3 3 2 3 2 3 + & X & ",
"@ & % % 3 2 3 3 3 3 2 3 % * @ % 2 3 1 1 1 1 1 , @ @ O @ @ & @ @ - @ @ @ @ @ @ @ 6 , 1 1 3 1 3 3 @ @ & + 3 2 3 3 3 3 2 3 & & @ @ ",
"+ @ % % 3 2 3 3 3 3 2 3 + @ $ % 3 < 1 1 3 1 , 6 $ @ @ @ @ @ @ @ . @ @ @ @ @ @ @ , 1 , 6 , 3 1 2 @ @ & % 3 2 3 3 3 3 2 3 & & & @ ",
"& @ & & 6 2 3 3 3 3 2 3 % % % $ 2 2 3 6 2 2 2 2 & X - X @ & @ & @ @ + & & + @ & 2 2 6 2 6 2 2 6 & @ & + 3 2 3 3 3 3 2 3 % % * + ",
"+ @ & + 3 2 3 3 3 3 2 3 % % @ @ 6 2 3 2 2 6 2 6 X - & & & + @ @ @ X & & + & @ & 2 2 6 2 2 2 6 2 + @ & & 3 2 3 3 3 3 2 3 % % & @ ",
"@ @ & + 3 2 3 3 3 3 2 3 + & & @ 3 3 3 3 2 6 2 3 & - & X % * % % & & & & & & % # 6 2 2 6 2 2 2 3 + & & + 6 2 3 3 3 3 2 3 + & @ @ ",
"@ + & % 3 2 3 3 3 3 2 3 + & @ @ 2 3 2 2 3 2 2 2 X X X - + # % % & & + + & + % % 2 6 2 2 2 6 3 3 & & & + 3 2 3 3 3 3 2 3 + & + & ",
"@ @ & + 3 2 3 3 3 3 2 6 % * @ @ 3 3 3 3 3 2 2 2 8 6 3 3 3 3 3 3 3 3 3 3 3 3 3 3 2 2 3 3 3 3 3 3 + @ @ @ 6 2 3 3 2 3 3 3 % & @ & ",
"@ @ & % 3 2 3 3 3 2 2 3 + & & + 2 3 2 3 3 3 2 2 2 2 2 2 3 3 2 2 2 2 2 3 2 3 3 3 2 2 3 2 2 3 3 2 - X - X 3 2 3 2 2 3 2 3 + & & + ",
"@ @ & & 3 2 3 2 3 3 2 3 + & + & 3 3 2 3 3 2 2 6 2 3 3 3 3 3 3 3 3 3 3 3 3 3 3 3 3 3 3 2 2 2 6 6 X & & X 3 2 3 2 3 6 2 3 & & + @ ",
"@ @ & & 3 2 3 3 3 3 2 3 + & & + 2 3 3 3 3 2 6 2 3 2 3 3 3 3 3 3 3 3 3 3 2 3 3 3 2 2 3 3 2 2 2 2 - X - X 6 2 3 2 3 3 2 3 + & @ @ ",
"& + * % 3 2 3 3 3 > 6 > % X & + X @ & X - X @ @ & X X - + & + % % % @ @ @ @ @ & @ & & @ @ & & @ + * O % > 3 > 3 3 3 2 3 % % @ @ ",
"+ + * # 3 2 3 3 3 > 3 2 * % * & - X X - @ & @ @ & & & X @ + & & @ + @ @ & @ @ @ @ @ X & @ @ & X & % % * 2 5 > 3 3 3 2 3 % % @ @ ",
"& + % % 3 2 3 3 3 2 3 > & X + X - @ & % & & & & & - X - @ & & & & & & @ - X & & @ & & & - - & - X X + % > 3 2 3 3 3 2 3 + & & @ ",
"@ @ % % 3 2 3 3 5 2 1 > - + - & @ X & % @ @ @ @ @ @ - X @ @ % % + + @ @ X - X @ + & & % X X X & @ - * * > 3 3 3 3 3 2 3 + * @ @ ",
"@ @ & & 3 2 3 3 2 2 6 2 > > 2 > 3 3 8 3 3 3 6 3 2 2 6 6 3 3 3 3 3 6 3 3 6 2 6 2 3 3 3 3 6 3 3 6 , , > > 3 6 2 2 3 3 2 3 + * + + ",
"@ @ & X 3 2 3 3 2 2 2 6 3 3 6 6 2 2 2 2 2 2 2 2 2 2 , , 2 2 2 2 2 2 2 2 6 2 2 2 2 2 2 2 2 2 2 2 6 6 6 2 3 3 3 3 2 3 2 3 % & @ + ",
"& + & & 6 2 3 3 3 6 2 2 2 2 2 , 3 3 3 3 3 2 3 3 3 3 6 2 3 3 3 3 3 3 6 3 3 3 3 3 3 3 3 6 3 3 2 2 , 2 2 2 2 2 3 6 3 3 2 3 & & @ @ ",
"+ & & & 3 2 3 2 6 3 2 2 6 6 2 2 3 3 3 3 2 3 3 3 3 2 2 2 3 3 3 3 3 3 2 2 2 3 3 3 3 3 3 2 2 2 2 6 2 2 3 6 2 3 3 3 3 3 2 3 & & @ @ ",
"@ @ @ @ & @ @ & 2 6 6 6 6 , 6 6 2 6 2 6 6 6 2 6 2 2 6 2 6 2 6 2 6 2 6 2 6 2 3 3 3 3 6 3 3 3 3 3 3 3 6 6 2 6 2 6 & @ @ @ @ @ @ @ ",
"@ @ & & & @ & @ 6 2 , , , 6 2 2 2 2 2 2 2 2 2 2 2 2 2 2 2 2 2 2 2 2 2 2 2 2 2 2 3 2 2 2 2 2 3 2 2 2 2 2 2 2 2 2 @ & @ @ & @ @ @ ",
"& - & & @ & & @ 2 2 , 6 2 2 6 2 2 6 2 2 2 2 2 2 6 2 2 2 2 2 2 2 2 3 2 2 2 2 3 3 3 2 3 2 3 3 3 2 6 2 6 2 6 2 2 6 & & & & & @ @ @ ",
"X X X & @ X @ @ 2 6 2 6 6 2 6 2 6 2 2 6 6 2 6 2 2 6 6 2 6 6 2 6 6 2 6 2 3 6 3 3 6 3 3 3 3 3 3 2 2 6 6 2 2 6 2 6 . @ @ . @ @ @ @ ",
". . . . . . . X                                                                                                 . . . . . . . . ",
".               .   .   .   .                         .           .                 .               .               .   .   .   ",
"                  .     . . . .       . .   . .         . .   .     .   X     . . . .         . . . . . . .   .                 ",
"    .   . .   .                                                                             .                     . .   .       "
};
