/* XPM */
static char *_ab1033bb77848ced26ab566106d1547pTU9rTXO3wtmc38O[] = {
/* columns rows colors chars-per-pixel */
"166 48 142 2 ",
"   c #000000",
".  c #0D0000",
"X  c #0D0A06",
"o  c #00050C",
"O  c #070A0F",
"+  c #0B0B0B",
"@  c #150000",
"#  c #1A0000",
"$  c #100D0E",
"%  c #000413",
"&  c #010B15",
"*  c #0F0F11",
"=  c #121213",
"-  c #181713",
";  c #1C1B1B",
":  c #250000",
">  c #2A0000",
",  c #350000",
"<  c #341100",
"1  c #242424",
"2  c #2C2B27",
"3  c #2B2B2B",
"4  c #333333",
"5  c #3D3D3D",
"6  c #424242",
"7  c #4B4B4B",
"8  c #606060",
"9  c gray45",
"0  c #EA6B1A",
"q  c #F26F1D",
"w  c #EE711F",
"e  c #F7771E",
"r  c #F9761E",
"t  c #DE7F3F",
"y  c #E97021",
"u  c #E5732C",
"i  c #EA762B",
"p  c #E9782D",
"a  c #F67622",
"s  c #F87621",
"d  c #F67824",
"f  c #F87821",
"g  c #F37828",
"h  c #E47B35",
"j  c #EB7A34",
"k  c #E27E3C",
"l  c #CA7D49",
"z  c #DD7E41",
"x  c #D37E48",
"c  c #E17F40",
"v  c #BD8763",
"b  c #DD8043",
"n  c #D4834E",
"m  c #C78259",
"M  c #CB875A",
"N  c #D38350",
"B  c #D28956",
"V  c #DE8D56",
"C  c #E58143",
"Z  c #E4864A",
"A  c #E28B56",
"S  c #D09367",
"D  c #DC936A",
"F  c #C79678",
"G  c #B1B1B1",
"H  c #E2B095",
"J  c #E5B79F",
"K  c #CEB1A3",
"L  c #CAB8AC",
"P  c #DDB9A3",
"I  c #DEBDAA",
"U  c #C6C3BE",
"Y  c #E3C4AF",
"T  c #E8C2AD",
"R  c #E4C3B2",
"E  c #E0CABF",
"W  c #BFC4CA",
"Q  c gray78",
"!  c #CCC7C1",
"~  c #CDCAC6",
"^  c #C6C6C9",
"/  c #C9C7CA",
"(  c #C5CCCB",
")  c #CCCECD",
"_  c #D1C3C0",
"`  c #D4CCCC",
"'  c #C6D0CF",
"]  c #CDD0CF",
"[  c #C7CFD1",
"{  c #CACDD2",
"}  c #C9CED2",
"|  c #CACED1",
" . c #CDCCD1",
".. c #CCCDD1",
"X. c #CDCED0",
"o. c #CECFD1",
"O. c #CCCDD2",
"+. c #CECFD3",
"@. c #CACDD4",
"#. c #CCCBD0",
"$. c #D0CED1",
"%. c #C5D1D1",
"&. c #C7D1D0",
"*. c #C7D1D2",
"=. c #CAD0D0",
"-. c #CCD0D1",
";. c #CCD0D3",
":. c #CED2D3",
">. c #D3D2D0",
",. c #D2D2D0",
"<. c #D7D3D2",
"1. c #D1D2D6",
"2. c #D3D3D3",
"3. c #D8D3D0",
"4. c #D9D4D0",
"5. c #DED6D4",
"6. c #D9D9DB",
"7. c #DBDBDB",
"8. c #EACFC4",
"9. c #E1E0DE",
"0. c #E0E0DE",
"q. c #E7E3E2",
"w. c #E6E5E3",
"e. c #E5E3E4",
"r. c #E7E3E4",
"t. c #E7E6E4",
"y. c #E3E3E3",
"u. c #E8E2E2",
"i. c #E9E3E3",
"p. c #E8E4E3",
"a. c #E8E2E4",
"s. c #E9E3E5",
"d. c #E8E3E7",
"f. c #E9E5E4",
"g. c #EBE7E6",
"h. c #E9E8E6",
"j. c #EBEBEB",
"k. c #F2EEED",
"l. c #F4F3EF",
"z. c #EFEDF0",
"x. c #F3F3F3",
"c. c #FFFFFF",
/* pixels */
"                                                                                                                                                                      ] ] ' ( ] ) ) ) ) ) ) ) ) ] ) ) ) ) ) ) ) ) ) ) ] ) ) ) ) ) ) ) ) ) ] ) ) ) ) ) ) ) ) ) ] ] ~ >.0.h.f.i.i.i.i.i.i.i.i.f.f.i.i.d.                                      ",
"                                                                                                                                                                      ] ) ) ~ ) ) ) ) ) ) ] ) ) ) ) ) ) ] ) ) ) ) ) ) ) ) ) ) ) ] ) ) ) ) ) ) ) ] ) ] ) ) ) ) ) ` ) >.0.g.f.i.i.i.i.i.i.i.i.9.f.i.s.d.    X                                 ",
"                                                                                                                                                                      ) ,.) ~ ] ) ) ] ) ) ) ) ) ) ) ) ) ) ) ) ] ) ] ) ) ) ] ~ ) ) ) ) ] ) ) ) ) ~ ) ) ) ) ] ) ) ] ~ >.9.g.f.f.i.i.i.i.i.i.i.f.f.a.s.a..                                     ",
"                                                                                                                                                                      ' ] ) ( ] ) ) ) ) ) ) ) ] ) ) ] ) ) ] ] ~ ) ) ) ) ) ) ] ] ) ) ) ) ) ) ] ) ] ] ) ) ) ) ) ) ] ~ >.9.g.f.9.f.i.i.i.i.i.i.i.f.a.a.a.    X                                 ",
"                                                                                                                                                                      ] ) ) ( ) ] ) ) ) ] ) ) ) ] ) ) ) ) ) ) ) ) ) ) ] ) ) ) ] ) ] ) ) ) ] ) ) ) ) ) ) ) ) ) ] ` ( 3.9.g.g.i.i.i.i.i.i.i.i.9.f.f.d.d.    o                                 ",
"                                                                                                                                                                      ] ` ) ) ] ) ) ) ) ) ) ) ) ~ ) ) ) ) ] ) ) ] ] ) ) ) ) ) ) ) ) ) ) ' ~ ) ) ) ) ] ) ) ) ) ) ) ) ,.9.g.g.9.i.i.i.i.i.i.i.f.i.i.d.d..   X                                 ",
"                                                                                                                                                                      ) ] ( ~ ] ) ) ] ) ) ) ] ) ' ] ] ) ) ) ) ) ] ~ ) ) ) ) ] ( ) ) ) ) ] ) ) ] ) ) ) ) ~ ] ) ) ] ~ ` 9.g.i.i.i.i.i.i.i.i.i.i.f.i.a.a.    +                                 ",
"                                                                                                                                                                      ) ,.) ( ] ) ) ) ) ) ) ) ) ) ) ) ) ) ) ) ] ) ) ) ) ) ] ) ) ) ) ] ) ) ) ) ) ] ) ) ' ] ) ) ) ` ~ >.u.g.g.i.i.i.i.i.i.i.i.f.i.a.a.a.        .                             ",
"                                                                                                                                                                      ] ] ' ( ` ) ) ) ) ) ) ] ) ) ) ] ) ) ) ] ) ) ) ] ) ] ) ) ) ) ] ) ) ) ] ) ) ) ) ) ] ~ ) ) ) ~ ] >.9.f.f.i.i.i.i.i.i.i.i.g.9.a.d.d.    .                                 ",
"                                                                                                                                                                      ] ] ] ( ] ) ) ) ) ) ) ) ) ) ) ) ) ) ) ) ) ) ) ) ) ) ) ) ) ) ) ) ) ) ) ) ) ) ) ) ) ] ] ) ) ] ) >.9.f.f.9.i.i.i.i.i.i.i.g.i.a.a.t..   o                                 ",
"                                                                                                                                                                      ] ) ~ ~ ] ) ) ) ] ) ) ) ) ) ] ) ) ) ) ) ) ] ~ ) ) ) ) ] ) ) ) ) ) ) ) ] ) ) ] ) ) ) ) ) ] ] ~ >.9.g.f.f.f.i.i.i.i.i.i.i.i.s.s.r.    X                                 ",
"                                                                                                                                                                      ' ,.] ( ] ) ) ) ) ) ) ) ) ) ) ) ) ) ] ) ) ] ] ) ) ) ) ) ) ) ) ] ) ) ) ' ~ ) ) ) ) ) ) ) ) ] ~ >.9.g.f.9.g.i.i.i.i.i.i.i.g.a.s.s.                                      ",
"                                                                                                                                                                      ] ] ) ) ) ) ) ) ) ) ) ) ) ) ) ) ] ( ) ] ) ) ) ) ] ) ) ) ) ) ) ) ) ) ) ) ] ) ) ) ) ) ) ) ) ] ~ >.9.g.i.i.i.i.i.i.i.g.g.9.9.a.s.t.    .                                 ",
"                                                                                                                                                                      ] ] ) ~ ] ] ) ) ) ] ) ) ) ) ) ) ] ) ] ] ~ ) ) ) ) ) ) ) ] ] ) ) ) ) ) ) ) ) ) ) ] ] ) ) ) ` ] >.9.g.i.i.i.i.i.i.i.9.f.g.g.a.s.a..   +   +                             ",
"                                                                                                                                                                      ) ] ) ) ' ) ] ) ) ) ) ) ) ) ] ] ] ) ) ) ] ) ' ] ) ) ] ] ] ) ) ) ) ] ] ) ) ] ) ' ) ) ) ) ] ) ~ 3.9.g.i.i.g.i.g.i.i.f.f.f.f.a.s.d.                                      ",
"                                                                                                                                                                      ) ] ) ~ ] ) ) ] ( ) ) ) ) ] ~ ) ~ ) ) ) ) ] ~ ) ) ) ~ ] ~ ) ) ) ) ] ~ ) ] ] ~ ] ~ ) ] ] ~ ] ~ >.9.g.f.9.i.i.g.9.i.f.f.9.9.a.d.t.                                      ",
"                                                                                                                                                                      ....) ) #.) ] ] ' ] ) ` ~ ) ] ] ( ) ) ' ) ) ) ] ( ) ) ) ( ) ( ) ~ ) ~ ' ) ) ( ] ) ) ( ( ~ ~ ] ) ~ ) ~ ~ ) ) ) ~ ) ~ ' ~ ) ) :.]     o                                 ",
"                                                                                                                                                                      ) :.) / ) ( ] ' ' ] ) ) ` ) ~ ) ) ) ] ~ ) ) ] ~ ) ) ) ) ) ) ~ ] ] ) ) ] ~ ) ) ( ] ) ~ ] ] ) ) ) ) ) ) ) ) ) ~ ~ ) ) ) ] ] | ] ]       o                               ",
"                                                                                                                                                                      ..@.) ) ) ) ) ( ) ) ) ) ) ] ) ) ) ] ) ) ..] ) ) ) ) ] ) ..) ] ) ) #.....) ) ) ,.` ) ) ) ] ) ..` ..] ] ) ) ) ) ] ] ` ....) ) | )                                       ",
"                                                                                                                                                                      ) :.) / ) ] ~ ) ] ' ) ) ) ) ) ) ` ) ) ..) ) ) ` ) ) ) ..) ) ] ] ] ) $.) ) ) ) ) ) ,.) ) ] ..) ..) ] ] ) ) ) ] ] ,...) ....) ) ]     o X                               ",
"                                                                                                                                                                      ) ) ) ( ) ) ) ~ ( ) ) ) ..) ) ( ] ) ) ( ) ( ' ~ ' ) ( ) ) ) ) ) ) ) ] ) ) ] ( ) ) ) ] ' ) ) ) ) ) ) ( ) ) ) ( / ) ( ] ) ( ..) )                                       ",
"                                                                                                                                                                      ) :.( ( ] ' ( ' ( ) | #.| ( ] ~ ] ) ) ) ( ] ) ) ] ) ) ) ( ) ) ) ( ' ( ) ( ] ) ' / ' ~ ) ) ) ) ( ( ] ' ( ) ] ] ) ) ~ ] ) ) ) | )             o                         ",
"                                                                                                                                                                      ) ] ] ( ' ' &.' [ | | @.@.) ) ] ) ) ) ) ) ) ) ~ ] ) ) ) ) ~ ) ) ) ) ) ) ) ) ) ) ) ) ) ) ) ) ) ) ) ) ) ) ` ) ) ) ) ] ) ) ) | @.|                                       ",
"                                                                                                                                                                      ) ) ( ( &.&.&.' =.) |  .$.) ` ) ) #.` ) ) ` ) ` ) ` ) $.) ] ) ` ) ` ) ` ) ) ` ) ` ) ) ` ) #.) ` ) ) ` #.) ) ` ) ) ) ) ` ..@.;.*.      X       o                       ",
"                                                                                                                                                                X   X ! 5.~ ( ) [ ( ( ) ( ) ` / #.) ..) #.) #.#.#.) #.) #.#.#.) #.) #.| #.#.#.) ) ) ) ) #.) #.#.| ) #.) #.) #.) #.) #.) #.) #.#.^ 1.W o o       X                           ",
"                                                                                                                                                                      ! ` ~ ~ :.| ) ) ) ` ` ` #.#.#...) #...#.....) #...#.....) #.| #.) #.#.#.) #.) ....#...#.#...) #...#.#.....#...#.) #...#.) ` 5./ +   o               o                 ",
"                                                                                                                                                                & % & ^ 3.` $.6.:.:.$.` ` ` ` ,.` ] ..] :.] ..] ..) #.) $.] =.] ..:.:.) ..:.#...#.=...] :.] ..:...] #.) $.) :.) ..:...] $.:...` _ 8._ $   o o                               ",
"                                                                                                                                                                & o X L I P I I R R R R T T T Y R Y Y Y Y Y R T Y R R Y T R Y R Y T Y Y Y T Y Y R T Y Y Y Y Y T R T R Y R Y Y Y Y T Y Y Y Y R T H J K #                 o     o             ",
"                                                                                                                                                                  @ : S V Z Z Z z n z z z b t b z k c c t c c c c c c c c c c c z k c c c c c c c k c k t c c c k c c z c c c k z c c c c c c z A D F @ X               o                   ",
"                                                                                                                                                                . @ > N t y e 0 g g w a y e g w a e a a a e e a e a a e a e a a e a a a e a a e a a a a a e e a a a a e s q a r a e e a q e s a u z m # .     o                             ",
"                                                                                                                                                                  @ : B h y d r r s s s r e d d a a a s s s a a s a g s a a a a a s a a s a g s a a s s a a a a a s s g a a s g a a a a g s a a e u n : @                   .               ",
"                                                                                                                                                                    @ v l t C k k k k k k k t t z t j j g g a a s g s s s g d s g a a g s g s a a g g s g g a a s g j j k z z z z z t z c z z k k z M : @ X                                 ",
"  -   -         +           + +     +     +               +   +       +     =     -     +     =   +   +     +       +   -         =   *   *     +               O   . . # # # : # : # : # # : : # : , b j a r s d g a a a a d a g a a a a a s s a a a a s s a a a p b , : # @ @ : @ < # # # # # # # @ .   X     +             +           = ",
"          ;         +   1   +                   -                               +                 +             +             =   +   -   +     + +                 +   1   +   X +               . > N j s r r a d a a s e a a e a a a s a a a s a a s a d a s a p n : .       +       = * *           +   =       +   ; + +   +   +       ",
"=   3         3 + ; 1       1   +           +       - =   =   + + =                 + 1     3           - 4       ; = +         + 1       +   *   - +   +       + ; 1       1 +         = 4       . : N j a r r a d s a s s a a a a a a s a s a d a a a a a a s f p N : .         2   $ -   $   + +     *   +   = ; 1       1 +             ",
"c.c.c.) 8   5 Q c.c.t.1 + 3 t.c.c.c.c.c.c.c.c.c.+ 4 6.c.x.c.c.c.c.c.c.c.c.c.c.c.c.c.c.y.; ; t.c.c.c.c.c.z.j.1 ; 3 y.x.c.c.c.c.c.c.y.3 -         3 y.c.c.c.c.c.c.c.c.h.1 + 3 t.c.c.c.c.c.z.j.1 ;   . : N j a r r a g a a s s g a e a a a d a a a s a s a a s a a f p N : .     o = c.k.c.z.= $   c.c.c.c.x.9 y.c.x.c.h.1 + 3 t.c.c.c.c.c.c.c.",
"c.c.c.c.2.6 6.c.c.c.c.    + c.c.c.c.c.c.c.c.c.c.  - x.c.c.c.c.c.c.c.c.c.c.c.x.c.c.c.c.c.    c.c.j.c.c.c.c.c.      c.c.c.2.c.x.c.c.c.+       + +   c.c.c.c.c.c.c.c.c.c.    + c.c.j.c.c.c.c.c.      . : n j a r r d g a a s r d y a a a s a a a s a s s a s a a a f p n : .         c.c.c.c.+     c.c.c.c.c.2.c.c.c.c.c.      c.c.c.c.c.c.c.c.",
"c.c.7.c.c.h.c.c.c.c.c.    + c.c.c.c.2.6.c.c.c.c.; 4 y.x.7.c.c.c.c.y.c.x.h.c.c.c.c.7.c.c.; - c.c.c.c.t.c.c.j.1 +   c.c.c.1 = ; t.c.c.        X     c.c.c.c.h.x.c.c.c.c.    + c.c.c.c.t.c.c.h.1 *   . : n j a r r a a a a s e d e a a a a a s a s a a a a d s a s a p N : @   o o   c.c.c.x.    ; c.c.c.c.j.c.c.c.c.c.c.    + c.c.c.c.y.h.c.c.",
"c.c.c.c.0.c.x.c.c.c.c.  +   c.c.x.j.4 5 j.c.c.c.    4 = 4 h.c.c.2.= - * 4 6.c.z.h.4   3     c.c.c.x.- - + 1     + c.c.c.      c.c.c.    +         c.x.x.j.3 3 y.c.c.c.  +   c.c.c.x.- * * 3       . > n j a r r a g a a s s a g a a s s a d s a a s a s a s a s f p N : .       ; l.c.c.x.3     c.c.c.c.7 G 7 y.c.c.c.  + + c.c.c.7.4   1   ",
"c.x.c.j.3 2.3 x.c.c.c.      c.c.c.c.    x.c.c.c.;   ;   = c.c.c.c.+     = x.c.c.c.1   3   ; c.c.c.c.          *   c.c.c.  +   c.c.c.    *   +     c.c.c.c.    c.c.c.c.      c.c.c.c.          =   . : n j a r r g d a a s s d d s a a a a s a a s d a s d a a a f p N : .   o     -     =   +   c.c.c.c.  3   c.c.c.c.      c.c.c.x.;       ",
"c.c.c.c.      c.c.c.c.      c.c.c.c.c.c.c.c.c.c.          c.c.c.c.        c.c.c.c.    +     c.c.c.c.c.c.c.c.  X   c.x.c.c.c.c.x.c.c.    +     +   c.c.c.c.    c.c.c.c.      c.c.c.c.c.c.c.c.      . : N j a r r a a a a s s a a a s s a d s s a a a a a s s a a d p n : .   o     c.c.c.c.o     c.c.c.c.      c.c.c.c.      c.c.c.c.c.c.c.c.",
"c.c.c.c.      c.c.c.c.      c.c.c.c.c.c.c.c.c.c.          c.c.c.c.        c.c.c.c.          c.c.c.c.c.c.c.c.    + c.c.c.) 2.c.c.x.h.; +           c.x.c.c.+   c.c.c.c.      c.c.c.c.c.c.c.c.=     . > N j a r r a g a a s r g a a a d a a a a a s a s d a a s a e p n : .         c.c.c.c.    . c.c.c.c.+     c.c.c.c.      c.c.z.c.c.c.c.c.",
"c.c.c.c.+     c.c.c.c.      c.c.c.c.6.2.c.c.c.c.          c.c.c.c.        c.c.c.c.          c.c.c.c.x.c.c.x.;     c.c.x.5 5 x.c.= 1   +   + + = + c.c.c.c.    c.c.c.c.      c.c.c.c.7.h.h.7.=     . : N j a r r a a g s s a d d s a a s s a s a a a a a a s a a f p N : .         c.c.c.c.      c.c.c.c.      c.c.c.c.      c.c.c.c.x.c.c.c.",
"c.c.c.c.      c.c.c.c.      c.c.c.c.4 4 c.c.c.c.          c.c.c.c.        c.c.c.c.          c.c.c.x.;     ;   +   c.c.x.    x.c.      1           c.c.c.j.    c.c.c.c.      c.c.c.j.6 3 3 5       . > N j a r r a g a a a e d d s a a a s a a a a s a s a a d s d p N : .     o   c.c.c.c.      c.c.c.c.      c.c.c.c.      c.c.c.6.3     + ",
"c.c.c.c.      c.c.c.c.      c.c.c.x.    c.c.c.c.    +     c.c.c.c.        c.c.c.c.          c.c.c.x.;     ;   =   c.c.c.    c.c.+ ;       +   +   c.c.c.x.4 5 c.c.c.c.      c.c.c.x.          +   . > N j a r r a g a a s s d y a s a a d s a s a s a s s s a a r p n : .   o     c.c.c.c.      c.c.c.c.      c.c.c.c.      c.c.c.7.3     + ",
"c.c.c.c.+     c.c.c.c.      c.c.c.c.    c.c.c.c.          c.c.c.c.        c.c.c.c.          c.c.c.c.x.c.c.x.;     c.c.c.    c.c.c.j.1 +   +     + c.c.c.c./ 2.c.c.c.c.      c.c.c.c.=   + -   *   . > N j a r s a a a s s r a d a a d s s a a a a a a a a a s a d p n : .         c.c.c.c.      c.c.c.c.      c.c.c.c.      c.c.c.c.x.x.c.c.",
"c.c.c.c.      c.c.c.c.      c.c.c.c.  = c.c.c.c.          c.c.c.c.        c.c.c.c.          c.c.c.c.c.c.c.c.      c.c.c.+   c.c.c.c.              c.c.c.c.c.c.c.c.c.c.      c.c.x.c.              . : N j a r r d i r a s s a a a a a s a a s a s d s a s a a d f p N : .     +   l.c.c.c.      c.c.c.c.+     c.c.c.c.      c.c.x.c.c.c.c.c.",
"c.c.c.c.      c.c.c.c.      c.c.c.c.    c.c.c.c.          c.c.c.c.        c.c.c.c.          c.c.c.c.c.c.c.c.      c.c.c.+   c.c.c.c.    =         c.c.x.c.c.c.c.c.c.c.      c.c.c.c.        + +   . : N j a r r a g a a s s a d a s a a s a a a s a a a a a a r d p N : @         c.c.c.c.      c.c.c.c.      c.c.c.c.      c.c.c.c.c.c.c.c."
};
