/* XPM */
static char *_1c7a85cac0d424abf0f8d5301172e6bvQMAClO7H6uGWjMX[] = {
/* columns rows colors chars-per-pixel */
"166 48 165 2 ",
"   c #000000",
".  c #0A0000",
"X  c #01020A",
"o  c #0B0B0B",
"O  c #130000",
"+  c #1C0000",
"@  c #1E0A00",
"#  c #100E0F",
"$  c #0E0F11",
"%  c #0F1316",
"&  c #121212",
"*  c #181713",
"=  c #1A1917",
"-  c #111518",
";  c #1C1C1C",
":  c #250000",
">  c #290000",
",  c #2A1700",
"<  c #242424",
"1  c #2C2B27",
"2  c #27282A",
"3  c #2B2B2B",
"4  c #333333",
"5  c #3D3D3D",
"6  c #424242",
"7  c #4B4B4B",
"8  c #606060",
"9  c gray45",
"0  c #F7AC2F",
"q  c #FEAC2D",
"w  c #F6AC33",
"e  c #FEAE35",
"r  c #F3AD3D",
"t  c #FDAD38",
"y  c #FBB136",
"u  c #F7B138",
"i  c #FDB239",
"p  c #F7AF42",
"a  c #F8AE41",
"s  c #F4AF49",
"d  c #EFB248",
"f  c #F3B047",
"g  c #FBB347",
"h  c #FFBF46",
"j  c #F5B54D",
"k  c #FAB34B",
"l  c #EAAE55",
"z  c #E6AE5A",
"x  c #ECB155",
"c  c #E3B15C",
"v  c #EAB159",
"b  c #F5B353",
"n  c #FAB250",
"m  c #F2B55D",
"M  c #DFAF65",
"N  c #DEB063",
"B  c #DCB268",
"V  c #D7B077",
"C  c #D6B17B",
"Z  c #E2AE62",
"A  c #E5B462",
"S  c #EAB567",
"D  c #E0B068",
"F  c #FEC247",
"G  c #F4C74C",
"H  c #FCC54C",
"J  c #F4C84E",
"K  c #FCC94E",
"L  c #F6C753",
"P  c #F9C652",
"I  c #F5C953",
"U  c #FAC851",
"Y  c #F2C55D",
"T  c #EEC762",
"R  c #E6C76D",
"E  c #EAC66D",
"W  c #EAC86F",
"Q  c #F2C464",
"!  c #F0C960",
"~  c #EBC771",
"^  c #ECCA71",
"/  c #E9C77F",
"(  c #E6C87F",
")  c #E9C879",
"_  c #B1B1B1",
"`  c #DDC899",
"'  c #E2C784",
"]  c #E9C684",
"[  c #E2C987",
"{  c #DEC7A5",
"}  c #DFCBA6",
"|  c #DECBAD",
" . c #D7CCB8",
".. c #E1CAA7",
"X. c #E4C7A9",
"o. c #E2CAAB",
"O. c #E8CDAF",
"+. c #F4DDBD",
"@. c #FAE0BD",
"#. c gray78",
"$. c #CCCDC6",
"%. c #C7CDCE",
"&. c #CCCECD",
"*. c #D2CBC6",
"=. c #D1CCCB",
"-. c #DACFCD",
";. c #C7D0CB",
":. c #CBD0CB",
">. c #CCCCD2",
",. c #D1CBD1",
"<. c #CBD3D2",
"1. c #D3D3D2",
"2. c #DBDBDB",
"3. c #E4DEDD",
"4. c #F6E3C4",
"5. c #FAE4C4",
"6. c #F1E2CF",
"7. c #E5E4DF",
"8. c #EBE1DF",
"9. c #EDE2DF",
"0. c #F3E1D7",
"q. c #E1DFE0",
"w. c #DFE0E2",
"e. c gray88",
"r. c #E7E3E2",
"t. c #E5E4E0",
"y. c #E5E3E4",
"u. c #E6E3E6",
"i. c #E6E4E5",
"p. c #E7E5E6",
"a. c #E3E3E3",
"s. c #EBE3E1",
"d. c #EAE2E0",
"f. c #EBE1E2",
"g. c #E9E3E3",
"h. c #EBE2E3",
"j. c #EBE1E0",
"k. c #EDE1E1",
"l. c #ECE0E0",
"z. c #ECE2E1",
"x. c #EDE1E3",
"c. c #E9E4E0",
"v. c #ECE4E2",
"b. c #EBE1E4",
"n. c #E9E3E5",
"m. c #E8E2E4",
"M. c #EBE2E5",
"N. c #E8E2E6",
"B. c #E9E3E7",
"V. c #EBE2E7",
"C. c #ECE3E4",
"Z. c #E8E4E5",
"A. c #E9E5E6",
"S. c #EDE6E5",
"D. c #E7E5E8",
"F. c #EBE0E8",
"G. c #E9E7E8",
"H. c #E8E8E9",
"J. c #EBEBEB",
"K. c #F4F3EF",
"L. c #EBEFF2",
"P. c #EFF3F6",
"I. c #F3F3F3",
"U. c #F1F5F8",
"Y. c #FFFFFF",
/* pixels */
"                                                                                                                                                                . X   &.$.$.$.$.&.$.&.&.%.<.&.&.&.&.&.&.&.&.&.&.&.&.&.&.&.:.&.:.&.:.&.&.&.&.&.&.&.&.&.&.:.&.&.:.%.;.<.w.H.D.u.M.u.p.Z.Z.p.p.M.u.M.M.G.    o   . . X .                       ",
"                                                                                                                                                                      &.:.:.%.:.&.&.&.;.:.:.&.&.&.&.&.&.&.&.>.&.&.&.>.:.>.&.>.:.>.&.&.&.&.&.>.:.>.:.>.&.>.&.>.&.&.$.1.w.G.G.M.M.M.r.h.h.h.h.h.M.M.M.c.          .   X X X                   ",
"                                                                                                                                                                  .   &.<.>.%.>.>.;.;.;.:.$.$.&.>.&.>.>.>.=.>.&.>.>.=.&.>.&.>.,.>.>.>.>.>.>.>.&.>.&.,.&.>.=.>.&.&.&.1.7.G.C.h.z.z.z.c.h.9.z.z.z.h.8.7.    o   . .   .                       ",
"                                                                                                                                                                      1.,.>.>.>.%.;.;.;.$.$.&.&.&.&.>.&.>.>.&.>.&.&.>.&.=.>.>.&.&.=.>.&.=.>.&.&.&.>.&.>.>.>.&.&.&.$.1.3.S.C.h.h.z.c.h.c.h.z.z.z.3.z.t.                      X               ",
"                                                                                                                                                                      =.,.>.>.>.>.<.:.:.:.&.,.,.&.:.&.&.:.:.&.$.&.$.:.&.&.&.&.&.:.&.&.:.&.&.:.&.&.:.&.&.&.&.&.$.>.&.1.w.H.p.p.a.p.p.u.p.t.p.p.Z.M.S.Z.X   X                                 ",
"                                                                                                                                                                      =.=.,.>.>.>.>.:.:.&.&.,.,.&.&.&.:.&.&.&.:.&.&.&.&.$.&.$.&.&.&.&.:.$.&.&.&.:.$.&.:.&.:.:.&.=.=.1.q.G.p.a.p.r.p.p.p.p.u.u.h.3.z.Z.X X X   X                             ",
"                                                                                                                                                                X X   &.*.*.$.*.$.$.$.$.*.*.=.=.=.&.>.>.&.>.&.&.>.>.&.>.&.&.>.>.&.&.>.>.&.>.:.>.&.&.>.>.>.>.&.=.=.*.-.3.v.v.7.c.h.8.c.c.h.h.h.9.0.0.9.  X X X X   .                         ",
"                                                                                                                                                                  X    .| } } o.| | } } ....o.o.o.| | o.| | | o.| | | | | | o.X.o.| o.| o.| | | | o.| | o.| o.o.X.X.O.@.5.4.4.4.4.4.4.4.4.4.4.4.+.5.6..   X X                               ",
"                                                                                                                                                                . O + C S z m v v v v l v v z z v x x x b l l l x l x l b l l x l x l l x l l l x x l l x d l v v c A E W E R ^ W W ~ ~ W ~ ~ ^ ) ] ` . .                                   ",
"                                                                                                                                                                . O : M b r i y t r t t t t t t e e e e w w e e e q e e w w w e q e e e q e e e e e e e e e e t y f d H U J J I J L L L L L L Y ! ^ [ O .             X X                   ",
"                                                                                                                                                                  . + N b w i q e y e e e e t t t t e e t t t t t t e e t t t t e t t t e t t t e t t t t t e t t r f h K H G K K H P H H P H U L T ( O .                 X                 ",
"                                                                                                                                                                X   + N j 0 q q q q e e e e t t t t t e t t t e t t t e t t t e t t t t t t e e t t t t t t t t t t y h K H F J L H P H P P P U U Y / O .   X         X   X                 ",
"                                                                                                                                                                    + Z k 0 q q e e e e e t t t e e e e q e q e e e e e q e q e e e e e e e e e e e q e e e e e t t f h K J J I I I I L L L L Y L Q ] O . . X   X         X                 ",
"                                                                                                                                                                  . + Z k q i e e e t t e e t a e e e e e q e e e q e e e q e e e q e q e q e q e q e e e q e e t t i H K J J I J I I L L L Y L L Q ] O   X X X                             ",
"                                                                                                                                                                  . + Z k e i t t t e e e e t t e e e w e e e w e w e w e e e w e e e e w e e e e e e w e e e e t t i h K J J J J P J P P P L L U Y ] O .   X X                             ",
"                                                                                                                                                                    + Z n t t e t e e e e e t e e e e e e e e e e e e e e e e e e e e e e e w e e e w e e e e e e e t F K F F K H H H H P H H P P Y / + . X                                 ",
"                                                                                                                                                                  . + Z k w t e y t t e 0 e t y e e e e e e e e e e e e e e e e e e e e e e e e t i e e e i e e e e t i t u y u u y w u y y r y u d B + .                                   ",
"                                                                                                                                                                  . : Z k w i e t t t e q e e t e i e e e e e i e e e e e e e e e e e e e e e e e e e e e e e e e e e e e e e e e e e t e e e e e s B + .   X X         X                   ",
"                                                                                                                                                                  . + Z k e i e t t e q e q i y e e e e e e e e e e e e e e e e e e e e e e e e e e e e e e e e e e e e e e e e e e i e e e e e e j D + .   X                               ",
"                                                                                                                                                                  . + Z k w i q i t t e e e e t e e e e e e e e e e e e e i e e e e e e e e e i e e e e e e e e e e e e e e e e e e e e e e e e t s D + . o   X           X                 ",
"                                                                                                                                                                  . : Z k w t e t t t e e y e t e e e e e e e e t e e e i e e e e e e e e e e e i e e e e e e e e e e i e e e e e e e e e e e i t f M + . o                                 ",
"                                                                                                                                                                  . + Z k 0 e e t t t y q 0 e y e e e e e e e e i e e e e e e e e e e e t e e e e e e e e e i e e e e e e e e e e e e i e e e e e f D O .     X         X                   ",
"                                                                                                                                                                  . + Z k w i e t y e e e e y t e e e e e e e i e e e e e e e e e e e e e e e e e e e e e e e e e e e e i e e e e e e e e e e e e s D + .   X X         X                   ",
"                                                                                                                                                                  . : Z k w i q t t e q e e e t e i e e e e e e e e e e e e e e e e e e e e e e e e e e e e e e e e e e e e e e e e e e e e e e e s B + .     .         .                   ",
"                                                                                                                                                                  . + Z k 0 t e e t e e e e e t e e i e e e e e e e e e e e e e e e e e e e e e e e i e e e e e e e e e e e e e e i e e e e e i e j M + .   X           X                   ",
"                                                                                                                                                                  . + Z k 0 t e t t e e q e e y e e t e e e e e e e e e e e e e e e e e e i e e e e e e e e e e e e e e e e e e e e e e e e e e t s B + . X   X                             ",
"                                                                                                                                                                  . : Z k e i q t t e e e e e y e e e e e e e e e e t e e i e e i e e e e e e e e e e e t e e e e e e e e e i e e e e e e e e e t p N + . .   X         X                   ",
"                                                                                                                                                                  . + Z k w i e t t e e 0 e e t e e e e i e e e e e i e e e e e e e e e e e e e e e e e i e e e i e e e e e e e e e e e e e e e e s B + .   X                               ",
"                                                                                                                                                                  . + Z k w i q t u e e e e e y e e e e e e e e e e e e e e e e e e e e e e e e e e e e e e e e e e e e e e e e e e e e e e t e e f B + .   X X         X                   ",
"                                                                                                                                                                  . : Z k w i e t t e y e e e t e e e e e e e e e e e e e e e e e e e e e e e e e e e e e e e e e e e e e e e i e e e e e e e e t s D + .                                   ",
"                                                                                                                                                                  . : Z k 0 t e t t t q q e e i e e e e e e e e e e e e e e e e e i e e e e e e e e e e e e e e e e e e e e e e e e e e e e e e e j D @ .   . X         X                   ",
"                                                                                                                                                                    O V S l m l v v v x x l x v x x s g t e e e e e e e i e e e e t e e i e e e e e i e e e e e t t p s b x v v x x x v b v l l l A C O . X                                 ",
"  *   *       X o       o   o o     o   X o               o   o   X   o     &     &     o     &   o   o X   o       o   &   X     &   %   o   o o     X X       o   . . O . @ @ . , O @ O O @ @ O + > l g 0 i e t t t e e e e t e e e e e e e e e e e e e e e e t f z > O O O O @ O , O O O O + O . .     .     o       X   o o         o o ",
"          ;         o   ; X o                   &                           X   o       X   X     o           X o             &   o   *   o     o o           X     o   < . o   . X           X   . : Z k w e e y w t y q e e t e y e e i e e e e e i e e e e e e f D + .       X       - $ o     X     #   &       o   < . o   &   X       ",
"&   3         3 o ; <       < X o   X       o       * &   # X o o &                 o <     1           & 4       ; & X X       o <       o   &   * o   o       o ; <       < X         & 4       . + Z k w i e t t e e e e e y e e e e e e e e e e e e e e e e t f B + . X   X   1   o -   o   . o X   %   o X & ; <       < X             ",
"Y.Y.Y.&.8   5 #.U.Y.H.< o 1 t.Y.Y.Y.Y.Y.Y.Y.Y.Y.o 4 2.Y.I.Y.Y.Y.U.Y.Y.Y.Y.Y.Y.Y.Y.Y.Y.a.; ; t.Y.Y.Y.Y.Y.K.H.< ; 3 t.I.Y.Y.Y.Y.Y.U.a.2 *         2 a.Y.Y.Y.Y.Y.Y.I.Y.H.< o 3 t.Y.Y.Y.Y.Y.I.H.< ;   . + Z k w i e t t e e e e e e e e e e e e e e e e e e e e e e t s M + . .   X * U.K.Y.L.& #   Y.Y.Y.Y.I.9 7.Y.U.Y.H.< o 3 a.Y.Y.Y.Y.Y.Y.Y.",
"Y.Y.Y.Y.1.6 2.Y.Y.Y.Y.    X Y.Y.Y.Y.Y.Y.Y.Y.Y.Y.  * U.Y.Y.Y.Y.Y.Y.Y.Y.Y.Y.Y.I.Y.Y.Y.Y.Y.    Y.Y.J.Y.Y.Y.Y.Y.      Y.Y.Y.1.Y.I.Y.Y.Y.o     X o o   Y.Y.Y.Y.Y.Y.Y.Y.Y.Y.    o Y.Y.J.Y.Y.Y.Y.Y.      . : Z a e t e t y t e 0 e e e e e e e e e e e e e e e e e e e t j M + .     X   Y.Y.Y.Y.$     Y.Y.Y.Y.Y.1.Y.Y.Y.Y.Y.    X Y.Y.U.Y.Y.Y.Y.Y.",
"Y.Y.2.Y.Y.H.Y.Y.Y.Y.Y.    o Y.Y.Y.Y.1.2.Y.Y.Y.Y.; 4 a.I.2.Y.Y.Y.Y.a.Y.I.G.Y.Y.Y.Y.7.Y.U.; * Y.Y.Y.Y.H.Y.Y.J.< $   Y.Y.U.< * ; p.Y.Y.X             Y.Y.Y.Y.H.I.Y.Y.Y.Y.    o Y.Y.Y.Y.p.Y.Y.H.< o   . + Z k e e e t t e e e e e u e i e e e e e e e e e i i e e e e f M + .   X     Y.Y.Y.P.    ; Y.Y.Y.Y.J.Y.Y.Y.Y.Y.Y.    o Y.Y.Y.Y.p.H.Y.Y.",
"Y.Y.U.Y.2.Y.I.Y.Y.U.Y.  o X Y.Y.U.J.4 5 J.Y.U.Y.    4 & 4 J.Y.Y.2.& = & 3 2.Y.P.H.4   3     Y.Y.U.I.& & o <     o Y.Y.Y.      Y.Y.Y.    o       . Y.U.J.J.3 3 p.Y.U.Y.  o X Y.Y.U.I.* % # 1       . + Z k w i e i t e q e q e t e e e e e e e e e e e e e e e e t f D + .     X ; K.Y.Y.U.2     Y.Y.U.Y.7 _ 7 a.Y.U.Y.  o o Y.Y.I.2.4 X <   ",
"Y.U.Y.I.3 1.3 I.Y.Y.Y.      Y.Y.Y.Y.    I.Y.Y.Y.;   ;   & U.Y.Y.Y.X     * I.Y.Y.Y.<   3   ; Y.Y.Y.Y.      X   $   Y.Y.Y.X o   Y.Y.Y.    &   X   X Y.Y.Y.Y.    Y.Y.Y.Y.      Y.Y.Y.Y.      X   &   . : Z k w i q t t t e e y t y e e e e e i e e e e e e e e e e e f D + . o   X   *     %   o   Y.Y.Y.Y.  3   Y.Y.Y.Y.      Y.Y.Y.I.;   X   ",
"Y.Y.Y.Y.X     Y.Y.Y.Y.      Y.Y.Y.U.Y.Y.Y.Y.Y.Y.          Y.Y.Y.Y.        Y.Y.Y.Y.          Y.Y.Y.Y.Y.Y.Y.Y.  .   Y.U.Y.Y.Y.Y.U.Y.Y.    o     o   Y.Y.Y.Y.    Y.Y.Y.Y.      Y.Y.Y.Y.Y.Y.Y.Y.      . + Z k 0 t e e t e e q e e t e e e i e e e e e e e e e e e e e j M + .   X     Y.Y.Y.Y..     Y.Y.Y.Y.      Y.Y.Y.Y.      Y.Y.Y.Y.Y.Y.Y.Y.",
"Y.Y.Y.Y.      Y.Y.Y.Y.X     Y.Y.Y.Y.Y.Y.Y.Y.Y.Y.    X     Y.Y.Y.Y.        Y.Y.Y.Y.          Y.Y.Y.Y.Y.Y.Y.Y.X   o Y.Y.Y.=.1.Y.Y.I.H.; o X         Y.U.Y.Y.o   Y.Y.Y.Y.X     Y.Y.Y.Y.Y.Y.Y.Y.&     . + Z k 0 t e t t e e e e e y e e e e e e e e e e e e e e e e t f M + . X X .   Y.Y.Y.Y.      Y.Y.Y.Y.o     Y.Y.Y.Y.      Y.Y.I.Y.Y.Y.Y.Y.",
"Y.Y.Y.Y.o     Y.Y.Y.Y.      Y.Y.Y.Y.2.1.Y.Y.Y.Y.    X     Y.Y.Y.Y.        Y.Y.Y.Y.    X     Y.Y.Y.Y.U.Y.Y.U.=     Y.Y.K.5 5 I.Y.& <   o   . o & o Y.Y.Y.Y.    Y.Y.Y.Y.      Y.Y.Y.Y.2.J.H.2.& X   . : Z k e i q t t e e e e e u e e e e e e i e e e i e e e e e t f B + .   X     Y.Y.Y.Y.X     Y.Y.Y.Y.      Y.Y.Y.Y.      Y.Y.Y.Y.I.U.Y.Y.",
"Y.Y.Y.Y.X     Y.Y.Y.Y.      Y.Y.Y.I.5 4 Y.Y.Y.Y.          Y.Y.Y.Y.        Y.Y.Y.Y.          Y.Y.Y.K.;     ;   o   Y.Y.U.    I.Y.      <   X       Y.Y.Y.J.    U.Y.Y.Y.      Y.Y.Y.J.6 < < 6       . + Z k w i e t t e e q e e t e e e e e e e e e e e e e e i e t s M + .     X   Y.Y.Y.Y.      Y.Y.Y.Y.X     Y.Y.Y.Y.X     Y.Y.Y.2.3   X o ",
"Y.Y.Y.Y.      Y.Y.Y.Y.X     Y.Y.Y.U.    U.Y.Y.Y.    .     Y.Y.Y.Y.        Y.Y.Y.Y.          Y.Y.Y.I.;     ;   & X Y.Y.Y.    Y.Y.o ;       o   o   Y.Y.Y.I.4 5 Y.Y.Y.Y.X     Y.Y.Y.I.          o   . + Z k w i q t u e e e e e y e e e e e e e e e e e e e e e e t j M + .     X   Y.Y.Y.Y.      Y.Y.Y.Y.X     Y.Y.Y.Y.      Y.Y.Y.2.4   o o ",
"Y.Y.Y.Y.o     Y.Y.Y.Y.      Y.Y.Y.Y.    Y.Y.Y.Y.    X     Y.Y.Y.Y.        Y.Y.Y.Y.          Y.Y.Y.Y.U.Y.Y.I.;     Y.Y.Y.    Y.Y.Y.J.< o X o     o Y.Y.Y.Y.&.1.Y.Y.Y.Y.      Y.Y.Y.Y.& X o & X &   . : Z k w i e t t e e e q t t e e e e e e e e e e e e e e e e e f M + .         Y.Y.Y.Y.X     Y.Y.Y.Y.X     Y.Y.Y.Y.X     Y.Y.Y.Y.I.I.Y.Y.",
"Y.Y.Y.Y.      Y.Y.Y.Y.      Y.Y.Y.Y.  & Y.Y.Y.Y.          Y.Y.Y.Y.        Y.Y.Y.Y.    X     Y.Y.Y.Y.Y.Y.Y.Y.      Y.Y.Y.o   Y.Y.Y.Y.              Y.Y.Y.Y.Y.Y.Y.Y.Y.Y.      Y.Y.U.Y.              . + Z k 0 t e t w t e e q e y e e e i e e e e e e e e e i e e t f D + . .   X   Y.Y.Y.Y.      Y.Y.Y.Y..     Y.Y.Y.Y.      Y.Y.K.Y.Y.Y.Y.Y.",
"Y.Y.Y.Y.X     Y.Y.Y.Y.      Y.Y.Y.Y.  X Y.Y.Y.Y.          Y.Y.Y.Y.        Y.Y.Y.Y.          Y.Y.Y.Y.Y.Y.Y.Y.  X   Y.Y.Y.o   Y.Y.Y.Y.    &   X     Y.Y.U.Y.Y.Y.U.Y.Y.Y.      Y.Y.Y.Y.        o o   . + Z k e t e y t t i e e e t e e e e e e e e e i e e e t e e e f D @ . X X     Y.Y.Y.Y.      Y.Y.Y.Y.X     Y.Y.Y.Y.      Y.Y.Y.Y.I.Y.Y.Y."
};
