/* XPM */
static char *_b0f4d3ec3934cbae990329a9d371546tQsU2wPUnHhQDZzM[] = {
/* columns rows colors chars-per-pixel */
"166 48 139 2 ",
"   c #000000",
".  c #0B0001",
"X  c #090708",
"o  c #060A09",
"O  c #0B0B0B",
"+  c #140000",
"@  c #1C0000",
"#  c #100F0D",
"$  c #10100E",
"%  c #131313",
"&  c #181617",
"*  c #161B17",
"=  c #1B1B1B",
"-  c #230000",
";  c #280000",
":  c #232323",
">  c #292826",
",  c #2B2B2B",
"<  c #333333",
"1  c #3D3D3D",
"2  c #7E353B",
"3  c #7E3440",
"4  c #723A42",
"5  c #414141",
"6  c gray29",
"7  c #606060",
"8  c #6C6C6C",
"9  c #852F3C",
"0  c #8D2F3E",
"q  c #972737",
"w  c #9B2532",
"e  c #9E2834",
"r  c #9B2D3C",
"t  c #82323C",
"y  c #8C303B",
"u  c #94323C",
"i  c #A32634",
"p  c #AB2736",
"a  c #A12832",
"s  c #A12638",
"d  c #A22A3A",
"f  c #9C2D40",
"g  c #813340",
"h  c #8E3440",
"j  c #823944",
"k  c #923241",
"l  c #AAAAAA",
"z  c #E3BFBF",
"x  c gray78",
"c  c #C7CDC6",
"v  c #CBCAC6",
"b  c #C6CDC9",
"n  c #CCCECD",
"m  c #DEC6C6",
"M  c #D2CBC6",
"N  c #DAC8C6",
"B  c #D1CCCC",
"V  c #C7D0CC",
"C  c #CED0CF",
"Z  c #CECCD1",
"A  c #D0CBD1",
"S  c #D3D2D0",
"D  c #D2D2D0",
"F  c LightGray",
"G  c gray82",
"H  c #D7D7D7",
"J  c #D1D1D1",
"K  c gray86",
"L  c #D8D8D8",
"P  c #DFDFDF",
"I  c gainsboro",
"U  c #DADADA",
"Y  c #E4C2C1",
"T  c #E5C3C2",
"R  c #E7C3C3",
"E  c #E3C4C2",
"W  c #E3C3C4",
"Q  c #E3C3C6",
"!  c #E5C3C4",
"~  c #E2C4C4",
"^  c #E2C4C6",
"/  c #E3C7C6",
"(  c #E8C1C4",
")  c #E1E0DE",
"_  c gray88",
"`  c #E1E1E1",
"'  c #E2E2E2",
"]  c gray89",
"[  c #E7E3E2",
"{  c #E6E5E3",
"}  c #E7E3E4",
"|  c #E4E4E4",
" . c gray90",
".. c #E7E6E4",
"X. c #E7E7E7",
"o. c #E8E2E2",
"O. c #E9E3E3",
"+. c #E8E4E3",
"@. c #E8E2E4",
"#. c #E9E3E5",
"$. c #E9E5E4",
"%. c #E8E4E5",
"&. c #EBE7E6",
"*. c #E9E8E6",
"=. c gray91",
"-. c #E9E9E9",
";. c #EAEAEA",
":. c gray92",
">. c #ECECEC",
",. c gray93",
"<. c #EFEEEC",
"1. c #EEEEEE",
"2. c #EFEFEF",
"3. c #EBEBEB",
"4. c #F0EFED",
"5. c gray94",
"6. c #F1F1F1",
"7. c gray95",
"8. c #F3F3F3",
"9. c #F5F1F0",
"0. c #F5F4F2",
"q. c #F4F4F4",
"w. c gray96",
"e. c #F6F6F6",
"r. c gray97",
"t. c #F3F3F3",
"y. c #F8F8F8",
"u. c #F9F9F9",
"i. c gray98",
"p. c #FBFBFB",
"a. c #FFFBFC",
"s. c gray99",
"d. c #FDFDFD",
"f. c #FFFEFD",
"g. c #FFFFFD",
"h. c #FEFEFE",
"j. c #FFFEFF",
"k. c white",
"l. c #FFFFFF",
/* pixels */
"                                                                                                                                                                      C C V n n n n n n n n n C b C n n n n n n n n n C b n n n n n n n n Z C n n n n n n n n C n v S ) &.+.O.O.O.O.O.O.O.O.+.+.O.O. ..   o                                 ",
"                                                                                                                                                                      C C n v C n n n n n n n Z n n n C n n n n n n n n n n n n n n n n b C n n n n n n n n n b n n S ) &.$.O.O.O.O.O.O.O.O.+.+.O.O. ..   .                                 ",
"                                                                                                                                                                      n C n v n n n n Z n n n n n n n n C Z n n n n b C n n C n n n C n n n n n n n n n n n n n M n S ) &.$.O.$.O.O.O.O.O.O.+.+.@.@.@..   .                                 ",
"                                                                                                                                                                      V C n b n n n n C n n n n n n n n n b C n n C Z n n n n n n n n n n n n n C n n n C n n n n n S ) &.$.) $.O.O.O.O.O.O.+.+.@.@.@.    X                                 ",
"                                                                                                                                                                      C n n b C n n n n n n n C n n C n n n n n n n n n n n n n n n n n n n n n n n n n n n n n M n D ) &.$.O.O.O.O.O.O.O.O.+.+.#.#. .                                      ",
"                                                                                                                                                                      C Z n n n n n n n n n n n n n n n n n n n n n n n n n n n n n n n n n n n n n n n n n n n n n D ) &.O.O.O.O.O.O.O.O.O.+.+.@.#. ..   X                                 ",
"                                                                                                                                                                      n C n b A n n n n n n n n n n n n n n C b n n C n n n C n n V Z n n n n n n n n n C n n n B n S ) &.$.O.O.O.O.O.O.O.O.O.O.@.#.X.                                      ",
"                                                                                                                                                                      n n n b C n C n n C b n n n n n C Z n n n n n n n n n n n n n C n n n C n Z V n n n n n n B v S ) &.$.O.O.O.O.O.O.O.O.O.$.@.#.X..   .   X                             ",
"                                                                                                                                                                      C C V b Z C n n n C n n n n n n C n C b n n n n n n n n n n n Z b n n n C C n n C n n n n n v S ) &.+.) O.O.O.O.O.O.O.+.+.@.#.} .   .                                 ",
"                                                                                                                                                                      C C n v C n n n n n n n n n n n b n n Z C n n n n n n n n n n C C n n n n n n n n n n n n n n S ) &.$.O.O.O.O.O.O.O.O.+.+.@.#. .    o                                 ",
"                                                                                                                                                                      C C n v n n n n n n n b n n n n n n n n C n n C n n n n n n n n n n n n n n n n n n n n n M n S ) &.$.O.O.O.O.O.O.O.O.+.+.#.#.#..   .                                 ",
"                                                                                                                                                                      V C n b n n n n n n n C n C n n n n n n Z n n n n n n C n n n n n n n n n n n n n C n n n n n S ) &.$.O.O.O.O.O.O.O.O.+.+. .#. .    X                                 ",
"                                                                                                                                                                      C n n n C n n n n n n n n n n C n n n C b n n n n n n n n n Z C n n n n n n n C n b Z C n n n S ) &.+.O.O.O.O.O.O.O.O.+.+.@.#. ..   X                                 ",
"                                                                                                                                                                      C C n v Z n n n n n n n n n n n n n n n n n n n n Z V n n C b n n n n n n n n n n n n n n M n S ) &.O.[ O.O.O.O.O.O.O.+.+.@.#.#.        X                             ",
"                                                                                                                                                                      n C n b Z n n n C C n n n n n n n n n n n n n C n C n n n C n n n n n n n n n n n n b n n n v D ) &.&.O.O.O.O.O.O.O.O.+.+.@.#.} .                                     ",
"                                                                                                                                                                      n Z n b V n n n n Z b C n n n n n n n n n n n b n n n n n b n n n C n n n n n n n n C n n n n D ) &.{ [ +.+.+.+.+.+.+.{  .@.#.}     X                                 ",
"                                                                                                                                                                      C C n b n n n n n n n n n n n n n C n n n n n n n n n n b n n n n n n n n n n n n n n n C n n C n n n n n Z n n n n n n n n B n                                       ",
"                                                                                                                                                                      n C n v n n n n n n n n n n b C n b n n n n n n n n n n C n n n n C n n n n n n n n n n n n n n n n n n n n n n n n n n n n n n       X                               ",
"                                                                                                                                                                      C C n b Z n n V Z C n n n n n n n Z C n n n n n n n n n n n n V Z n n n n n n C C n n n n n n C n n n n n n n n n n n n n B n n       X                               ",
"                                                                                                                                                                      C C n v C n C n n n n n n Z n n n n n n n n C n n n C n n n n n C n n n n n n b Z n n n n n n b n n n n n n n n n n n n n n n n                                       ",
"                                                                                                                                                                      n C n b Z n n n n n n n n C n C b C n n n n n n n C n n n n n n n n n n n n n n n n n n C n n n n n n b C n n n Z C n C n n n n                                       ",
"                                                                                                                                                                      n C n v n n n n n n n n C n n n n n n n n n n n n Z b n n n n n n n n n n n n n n n n n b n n n n Z n n n n n n n n n n n B n n       X                               ",
"                                                                                                                                                                      n Z n b Z n n n n n n n n C n n n n n n n b C n n n C n n n n n n n n n n n Z n n n n n n n n C n C n n n n n n n n n n n n n B                                       ",
"                                                                                                                                                                      n C n b C n n C n n n n n n n n n n n n C Z n n n n n n n n n n C n n C n b C n n C n n n n n n n n n n n n n n n n n n n B n n       X                               ",
"                                                                                                                                                                      C C n b C n n n n n n n n n n C n n n n n n n n n n n n n n n n n n n n n C n n n n n n n n n n n n n n n n n n n n n n n n n n       .                               ",
"                                                                                                                                                                      C Z n v Z n n C n n n n n n n n n n n n n n C n n n n n n C n n n n n n n n n n n n n n n C n n n n n n n n n n C n n n n n Z n                                       ",
"                                                                                                                                                                      C C n v n n n n n n n n n n n n n b C n n n n n Z n n C n b Z n n n n n n n n n C C Z n n n n n n n n C C n n n Z n n n n n n n       X                               ",
"                                                                                                                                                                      V n n n n n n n n n C n n n n n n Z n n n n n n n n n n n n C C Z b C n n n n n n n b C n n n n n n n b Z n n n n n n n n n B n                                       ",
"                                                                                                                                                                      C C V b n n n Z C n n n n n n n n C n n n n n n n n n n n n n n n n n n n n n b C n n n n Z C b n n n n n n n n n n n n n n B n       X                               ",
"                                                                                                                                                                      V C C n n n n n n n n n n n n n n n n n n n n n n n b C n n n n n n n n C n n n n n n n n n n C n n n n n C n n n n n n n n n n                                       ",
"                                                                                                                                                                      C C n v n n b n n C n n n n n n n n C n n n n n C n n n n n n C n n n n n n n n n Z n C n n n C n n n n n n n n n n n n n n B n       X                               ",
"                                                                                                                                                                      C C n n n n C n n b n n n n n C n b b n C n n n n n n n n n n n n n n n n C n n n C n n b n b n n Z Z n C n n n n n Z n n n n n                                       ",
"  &   &       X X       X   X o     O   X X               O   O   X   O     O     &     O     O   O   O X   O       %   O         %   $   O   X X     X X       O       X   X O   O   O X   o .       V C V c M n n A A n Z b Z n n n b n n b b C b n n n n V b V V Z     o     o   =         X     X         X O       X   X o X         O ",
"          =         O   = X O                   %                       X   o   X       X   o     o           o %       O     O   O   &   O     O O           X     O   =   O     o           X .     n V c c C B B Z n Z n Z n n n n n n C Z C n n n n n n n C V n Z     o X   o       % O #   X       %   %       O   = X O   o   O X     ",
"%   ,         , O = :       : X O     X     O       & %   $ X O O %           X     O :     >       X X O ,       = O X         O :       O   $   & $   X       O = :       : X     X   $ ,       .   n C V c V n n A Z Z A B B M n n n n M n n n M n n n M n n n n B   X X X     ,   O %   O     O X   O   O X O = :       : O             ",
"k.k.k.v 7   1 x u.k.-.: O , ] k.k.k.k.k.k.k.k.k.O < H k.6.k.p.k.u.k.k.k.k.k.u.k.k.u.k.' = =  .k.k.k.s.k.r.1.: & = | k.k.k.k.k.k.u. .: &         > ' k.u.k.k.k.k.u.k.-.: O , ' k.k.k.k.k.7.2.: &       n C c c C n Z Z Z Z n A B n n M n M v n n n n n M n v n n n n B X   X X   & s.4.k.4.% #   k.k.k.k.t.8 P k.u.k.-.: O , ] k.k.k.k.k.k.k.",
"k.k.k.k.J 5 K k.k.k.k.    X k.k.k.k.k.k.k.k.k.k.  & r.k.k.k.k.k.k.k.k.k.k.k.6.k.k.k.k.k.    k.k.1.k.k.k.k.k.X     k.k.k.H k.r.k.k.k.O     X O O   k.k.k.k.k.k.k.k.k.k.    X k.k.6.k.k.k.k.k.X   . .   n C V v C C n n b n Z Z Z n n Z b Z Z Z n n Z n Z n Z Z n n c V     o o     k.g.g.g.#     k.k.k.k.k.K k.k.k.k.k.    X k.k.6.k.k.k.k.k.",
"k.k.P k.k.-.k.k.k.k.k.    O k.k.k.k.J K k.k.k.k.= < ] t.P k.k.k.k.' k.6.-.k.k.k.k.P k.u.= & k.k.k.k.-.k.u. .: % X k.k.r.: = = ' k.k.X       X     k.k.k.k.-.5.k.k.k.k.    O k.k.k.k.-.k.u.*.: $       C M M v B v C n C b b n Z n Z n Z Z V n Z Z n Z n n n n n n n c             k.g.k.9.    = k.k.k.k.1.k.k.k.k.k.k.    O k.k.k.k.-.-.k.u.",
"k.k.r.k.P k.6.k.k.u.k.  o X k.k.6.1.< 1 1.k.u.k.    < % < -.k.k.H % & $ , K k.6.-.<   ,     k.k.r.r.& % O :       k.k.k.      k.k.k.    O       X k.r.1.1., , ' k.u.k.  O X k.k.r.r.= % O :       o   C M M M M M n v n n n b b n n n n n n n n n n n n n n n n M M n     o     = 6.k.k.0.>     k.k.k.k.5 l 6  .k.u.k.  O X k.k.u.P <   &   ",
"k.r.k.5., J , 6.k.k.k.      k.k.k.k.    6.k.k.k.=   =   O k.k.k.k.O     & 6.k.k.k.=   ,   = k.k.k.k.      O   o   k.k.k.X X   k.k.k.    O   X     k.k.k.k.    k.k.k.k.      k.k.k.k.      O   O     . N / E z E E E ~ ~ ~ ~ z z ^ ^ ^ ^ m ^ ^ ^ ^ m ^ ^ ^ ^ ^ ^ ( R m .     o     =     $   #   k.k.k.k.  <   k.k.k.k.      k.k.k.1.=   X   ",
"k.k.k.k.X     k.k.k.k.      k.k.k.u.k.k.k.k.k.k.          k.k.k.k.        k.k.k.k.          k.k.k.k.k.k.k.k.  X   k.y.k.k.k.k.r.k.k.    O     X   k.k.k.k.    k.k.k.k.      k.k.k.k.k.k.k.k.X     + @ 4 j 9 y h 0 0 0 0 q 0 0 0 y y y y y y y 0 0 9 y y y y y y g j 4 @ . .       k.g.k.g.      k.k.k.k.      k.k.k.k.      k.k.k.k.u.k.k.k.",
"k.k.k.k.      k.k.k.k.      k.k.k.k.k.k.k.k.k.k.    X     k.k.k.k.        k.k.k.k.          k.k.k.k.k.k.k.k.X   O k.k.k.n J k.k.6.-.= O X         k.r.k.k.O   k.k.k.k.      k.k.k.k.k.k.k.k.O   . + ; g u q d e s s s s p i i i i a i i i i i i i i i a i a i i r k 3 ; + . X     k.g.k.g.X     k.k.k.k.X     k.k.k.k.      k.k.6.k.k.k.k.k.",
"k.k.k.k.X     k.k.k.k.      k.k.k.k.K J k.k.k.k.    X     k.k.k.k.        k.k.k.k.    X     k.k.k.k.r.k.k.r.=     k.k.5.1 1 6.k.% :   O   X O $ O k.k.k.k.X   k.k.k.k.      k.k.k.k.K -.-.K % X   . - 2 u w p i i i p i p i i i i i p a a a i i i a i i i i a i s f t ; + .       k.k.s.g.      k.k.k.k.      k.k.k.k.      k.k.k.k.6.u.k.k.",
"k.k.k.k.X     k.k.k.k.      k.k.k.r.1 < k.k.k.k.          k.k.k.k.        k.k.k.k.          k.k.k.1.=     =   O   k.k.r.    6.k.      :   X       k.k.k.-.    r.k.k.k.      k.k.k.1.5 : : 5       . @ 2 q w p i i p i i i i i i i a i a a a i i a a i i i i a i s d t ; + .       k.k.k.k.      k.k.k.k.X     k.k.k.k.      k.k.k.K ,   X O ",
"k.k.k.k.      k.k.k.k.X     k.k.k.r.    u.k.k.k.    X     k.k.k.k.        k.k.k.k.          k.k.k.1.=     =   O X k.k.k.    k.k.O =       O   O   k.k.k.t.< 5 u.k.k.k.X     k.k.k.6.          O   . - 2 r w p i i a a a a a a a a i e e w s s w e i i s a i i e i r t - .         k.k.k.g.      k.k.k.k.X     k.k.k.k.      k.k.k.K ,   X O ",
"k.k.k.k.X     k.k.k.k.      k.k.k.k.    k.k.k.k.          k.k.k.k.        k.k.k.k.          k.k.k.k.r.k.k.r.=     k.k.k.    k.k.k.-.: O X o     X k.k.k.k.n F k.k.k.k.      k.k.k.k.% X X % X #   . - j r i p p a a a a a a a i i i s s s s s s e s s s i i s s a r 2 @ . o   o   k.k.k.k.      k.k.k.k.X     k.k.k.k.X     k.k.k.k.6.r.k.k.",
"k.k.k.k.      k.k.k.k.      k.k.k.k.X O k.k.k.k.    X     k.k.k.k.        k.k.k.k.    X     k.k.k.k.k.k.k.k.      k.k.k.O   k.k.k.k.            X k.k.s.k.k.k.k.k.k.k.      k.k.r.k.              . - g r s p i i a a a i i i i s i s s s i i s s s s i p s i s p e t - . o       s.k.k.k.      k.k.k.k.      k.k.k.k.      k.k.6.k.k.k.k.k.",
"k.k.k.k.X     k.k.k.k.      k.k.k.k.  X k.k.k.k.          k.k.k.k.        k.k.k.k.          k.k.k.k.k.k.k.k.  X   k.k.k.O   k.k.k.k.    %   X     k.k.r.k.k.k.u.k.k.k.      k.k.k.k.        # O   X - 2 f s p i i a a i i i i i i i i i p i s p i s i s i i s i a d t - .       . s.s.k.k.      k.k.k.k.X     k.k.k.k.      k.k.k.k.u.k.k.k."
};
