/* XPM */
static char *_8b364dc5af44b6ec831cfec255da60eBF0IQr9EO4KAdLJg[] = {
/* columns rows colors chars-per-pixel */
"64 72 133 2 ",
"   c #2E395B",
".  c #313B5E",
"X  c #323E60",
"o  c #31425C",
"O  c #374565",
"+  c #3A4466",
"@  c #344862",
"#  c #394964",
"$  c #37446B",
"%  c #3B4669",
"&  c #3D4A6B",
"*  c #374470",
"=  c #40516B",
"-  c #424F71",
";  c #495A74",
":  c #52657E",
">  c #566484",
",  c #596686",
"<  c #566A82",
"1  c #5A6A86",
"2  c #5A6688",
"3  c #5B698B",
"4  c #5D718A",
"5  c #5F719C",
"6  c #616B8E",
"7  c #61728C",
"8  c #626E92",
"9  c #657196",
"0  c #64759C",
"q  c #5F71A2",
"w  c #6273A3",
"e  c #7F93AB",
"r  c #7F9CAE",
"t  c #819CAF",
"y  c #8397B0",
"u  c #8897B4",
"i  c #859DB3",
"p  c #899EB5",
"a  c #8B9EB8",
"s  c #86A1B4",
"d  c #89A3B7",
"f  c #8CA4BA",
"g  c #8DA9BB",
"h  c #92A4BE",
"j  c #91AABF",
"k  c #96A7C1",
"l  c #95ACC2",
"z  c #99ACC6",
"x  c #96B2C5",
"c  c #9DB3C6",
"v  c #99B2C8",
"b  c #9DB1CA",
"n  c #9EB2CB",
"m  c #9AB5C8",
"M  c #9AB7C9",
"N  c #9BB6C9",
"B  c #9CB5CB",
"V  c #9DB6CA",
"C  c #9FB3CC",
"Z  c #9DB6CC",
"A  c #9EB3CA",
"S  c #9BB8CA",
"D  c #9DB8CB",
"F  c #9CB9CB",
"G  c #9FB8CC",
"H  c #9EB9CC",
"J  c #9DBACC",
"K  c #9FBACD",
"L  c #9EBBCD",
"P  c #9FBCCE",
"I  c #A0B5C6",
"U  c #A1B5CC",
"Y  c #A0B9CD",
"T  c #A0B9CF",
"R  c #A2B8CF",
"E  c #A1BACE",
"W  c #A0BBCE",
"Q  c #A2BBCF",
"!  c #A1BCCD",
"~  c #A2BCCD",
"^  c #A1BCCF",
"/  c #A0BDCF",
"(  c #A2BBCF",
")  c #A3B7D0",
"_  c #A5B6D0",
"`  c #A5B6D2",
"'  c #A0B7D6",
"]  c #A3B6D6",
"[  c #A2B7D6",
"{  c #A2B6D7",
"}  c #A5B5D6",
"|  c #A5B7D1",
" . c #A0B8D0",
".. c #A2B8D0",
"X. c #A1BAD0",
"o. c #A2BBD1",
"O. c #A2BAD2",
"+. c #A4B8D1",
"@. c #A5BBD0",
"#. c #A4BAD1",
"$. c #A5B9D2",
"%. c #A4BAD2",
"&. c #A5BBD2",
"*. c #A5BBD3",
"=. c #A6BAD3",
"-. c #A1BCD1",
";. c #A3BCD0",
":. c #A2BDD0",
">. c #A1BED0",
",. c #A3BED1",
"<. c #A2BFD1",
"1. c #A3BCD2",
"2. c #A4BDD1",
"3. c #A4BDD3",
"4. c #A5BED2",
"5. c #A4BFD2",
"6. c #A6BFD3",
"7. c #A7BBD4",
"8. c #A6BBD6",
"9. c #A7BBD6",
"0. c #A5BED4",
"q. c #A6BFD5",
"w. c #A4BCD6",
"e. c #A5BBD2",
"r. c #A9BAD6",
"t. c #A8BCD5",
"y. c #A9BDD6",
"u. c #A9BCD6",
"i. c #A9BAD8",
"p. c #A3C0D2",
"a. c #A5C0D3",
"s. c #A7C0D4",
"d. c #A8C3D6",
/* pixels */
"w w 0 0 [ 8...( ~ ~ ~ ~ ~ ~ ~ ~ K T &.:.T T K K T ~ &.&.H H H T Y T :.&.~ ~ :.:.:.:.K V T &.&.~ ~ ~ ~ ~ ~ ~ ~ ~ =.T 8.' 0 5 w w ",
"q w 5 0 [ 8.T =.~ ~ ~ ~ ~ ~ ~ ~ K P ~ :.~ T P P &.a.a.a.p.p.s.d.~ a.a.p.~ K K ..~ p...~ ~ p.:.K ~ ~ ~ ~ ~ ~ ~ ~ ( T 8.' 0 0 w q ",
"q w 5 0 [ w.T :.~ ~ ~ ~ :.P ~ :.P P ~ :.~ ~ :.p./ / H M M M P / a.p.~ / P P K :.P P p.p.:.P K K ~ P -.P P ~ ~ ~ ( T 8.' 0 5 w q ",
"q q 5 0 ' 8.T :.T ~ ~ ~ T -.~ :.-.P P P :.p.>.-.x j g d d d g d s d d d d d d d g x P p.p.K K P :.-.:.~ :.~ ~ ~ &.T 8.' 0 5 w q ",
"q w 5 0 -.w...:.:...:.:.:.-.-.-.:.-.P P ~ P Y c g s r r r s d s r d d d s s s r s d v p.p.L L p.-.P -.-.-.P :.~ :...8.' 0 5 w 5 ",
"q w 5 0 ' w...&...:...:...:.:.P :.~ P :.:.H c j s r r s g x x x -.J J v x d d d r p g P ~ ! Y &.:.~ -.-.:.:...~ :...8.' 0 5 w q ",
"5 0 5 0 ' 8...&.:.....:.8...:...&.:.:...:.Z h p s i p g x ..8.a.p.-.B l f p s s i y f Z a...( t...:.' ..8.=.....8...8.' 0 5 0 5 ",
"0 w 9 0 } u.` =.=.8.=...=.:.8...8.=.8.=.8.n a y s p p k b 8.8.8.y.' z k i i p d a i f V 8.=.@.u...&.&.=...=.=.=.=.` u.=.0 9 w 0 ",
"* * % + = . = o @ @ # @ @ o @ # + @ + @ @ O . = o + X = # O O # + @ # O O O o o + O o # O o # o # o O + o # . + @ @ X = X X X - ",
"* X % % X = . o O O O O O # O @ # + + @ % O = X = X = X % O O O O O % O O + = + + + + % + % % + # + o . = + # + O O = X X - * X ",
"* % % % = X o = % + # # % # # # + + $ $ % + - - + + = X % % % % = % % % $ % & $ + - = + % % $ + # # = = = . + + + = o + % % * * ",
"* % + + + + = o + + O O O O O O + + + $ + + X X + + + + + + O $ X + + + + + $ $ + X = X $ + + $ O O X X = X + + + o = + % % * * ",
"% % % + O % O + 3 3 6 3 6 3 3 6 3 5 3 3 3 3 6 3 6 2 6 6 3 3 3 3 6 6 3 6 3 3 3 3 2 6 3 6 3 3 3 3 6 1 6 1 6 2 6 2 + + + + % % + + ",
"% % + + O @ + + 2 2 2 2 , , , , 2 < > 2 2 2 2 2 2 2 , , 2 2 3 2 , , 2 2 2 2 2 > , 2 2 2 2 2 2 2 , , 2 , 2 2 2 2 + + + + % % + % ",
"+ % + + + + + + 3 3 3 3 3 3 1 1 3 3 3 3 3 3 3 3 2 3 6 2 3 3 3 3 2 3 3 3 3 3 3 3 6 2 3 2 3 3 3 3 3 3 3 3 6 2 6 2 + + + + % + + % ",
"+ % % % + + + $ 2 3 3 3 2 2 3 3 3 2 2 3 3 3 3 3 2 2 2 2 3 3 2 2 2 2 2 3 3 3 3 3 , 2 2 3 2 3 3 3 2 2 3 3 2 2 2 2 + + % + + + + + ",
"+ % + + 6 : 6 : 2 2 1 2 3 3 3 2 6 3 2 2 , , 2 2 2 2 2 3 2 3 3 3 3 3 6 3 2 2 3 3 3 2 2 , , 3 3 > 2 2 3 3 2 2 2 1 1 1 1 1 # % + + ",
"+ + + . 6 : : 6 1 1 , 1 3 3 2 2 6 3 3 1 3 2 3 6 7 3 3 3 3 , , < , , 1 1 , , , 1 6 6 3 3 3 3 3 1 3 3 3 3 2 2 2 1 1 1 1 1 o = o + ",
"+ + + + 6 : 6 : 2 , 2 2 3 3 3 2 2 > > : < 1 , : 1 1 1 1 1 1 1 1 , 1 1 1 3 1 1 1 < , < < , < > > 2 3 6 2 2 < 2 2 1 1 2 3 X + = + ",
"+ + + + 6 : 6 6 1 2 2 2 3 8 6 6 3 3 4 4 7 1 < : : : < < 1 1 1 4 1 1 1 4 4 1 4 1 < : < 1 7 7 4 3 3 8 8 3 2 2 2 2 1 1 1 3 = = o + ",
"+ + = + 6 : 6 6 3 2 2 3 6 8 9 9 R U V V U c h p i i p p p i y i s p i t p p i y f s h c V V n R 8 8 8 6 6 2 3 3 2 2 > 6 X + + + ",
"+ + X + : 6 6 : 2 3 3 8 9 9 9 9 u.&.~ &.&.V j s i p d f g j g f l g s p p f s s f p j c &.~ T u.9 9 9 6 6 6 3 2 2 2 , 2 X - + + ",
"+ % + + 6 , 6 6 2 2 6 6 9 9 9 9 =.R R =.=.n f t p f j z n U T R U k f p s f f f p y f c =.R R ' 9 9 9 9 6 3 2 3 2 6 , 6 X % % + ",
"% + + + 6 , 6 : 2 2 2 6 6 9 0 9 ` R R =.u.U h y z c U =.t.u.u.8.R k a t u a a a d u h U u.=.R 8.9 9 9 9 3 2 2 2 3 3 > 6 - % + % ",
"% + % + 6 6 6 , , 3 2 6 $ % $ * O + @ @ # # @ @ @ @ @ @ # @ + @ @ O O # @ O # @ # + @ @ @ + # + % * $ $ 3 2 3 3 2 3 2 3 O & + + ",
"+ % + + 6 : , , 3 3 2 3 $ % % X O O + O O $ + + $ + O O + $ + @ O O O O O O + O + O + # $ @ + + % % $ + 3 , 3 3 2 3 2 3 O % % $ ",
"+ % % X : 6 6 6 2 2 2 3 $ % $ % % + & + + + & + % % % % + + & & % % % % % + % % % + & & + + % % % % $ + 6 2 3 1 2 3 1 3 + % % + ",
"+ X - % 6 6 : : 1 3 2 6 $ % % + + $ + + + + $ $ % + $ + + + $ + + + % + + $ + + + $ $ + + $ + + - X + $ 3 2 1 6 1 3 1 3 + % + + ",
"+ + # + 6 : 7 6 2 3 2 3 + % + $ 6 3 3 3 3 6 3 3 3 6 3 3 3 6 3 3 3 3 6 3 3 3 3 6 3 3 3 3 6 3 3 6 X % - X 6 , , , 6 7 : : + O % % ",
"+ + + + 6 : : 6 1 3 , 6 $ & + + 2 2 2 2 2 2 2 < 2 , , 1 2 1 2 1 2 2 2 2 2 2 2 2 2 2 2 1 2 2 2 2 * % - X 6 : , 1 : : 6 6 O O + O ",
"+ + = + 6 6 6 : 1 1 1 3 + # $ + 2 1 1 4 3 < 1 4 3 1 3 1 2 1 1 1 3 1 1 1 1 4 2 1 1 1 2 2 2 1 2 2 X - X % 6 6 : 6 6 : , 6 . = + + ",
"+ + + . : : : 6 1 3 , 3 + $ O + 2 1 1 1 < 3 1 3 < 1 < 1 1 < 1 1 1 < < < 3 1 1 1 1 1 1 1 1 1 2 2 - X - X 6 : 6 : 6 7 : 6 + = o + ",
"+ + # + 3 3 3 3 3 3 2 6 O % + % : 6 7 : 7 : : 7 U U I U I I U I ..&.( c 6 1 : 1 : 7 : 6 6 : 6 : + & + + 3 2 3 2 3 2 2 3 $ + + + ",
"+ + $ $ 3 > 3 3 3 3 2 3 O % + O 6 6 : 6 : 7 : : c U c c c I c c T l z j 4 1 4 : 6 : 6 : 6 6 6 : + + + + 6 2 3 3 3 3 3 3 + # + + ",
"+ + $ @ 3 2 3 3 3 3 2 3 O % + O 6 : 6 : 7 : : 7 I R U I I I I I h p k h 7 : 7 1 : 6 : 6 : : 6 6 + + & + 3 2 3 2 3 3 2 3 $ + + + ",
"+ + $ $ 3 2 3 3 3 3 2 3 + % + + 6 : : 6 : 7 : 7 b b I c c c I I s p a y 7 : : : 6 : 7 : 6 6 : 6 + + + + 3 2 3 2 3 3 2 3 + & + $ ",
"$ % + + 3 3 3 3 3 3 2 3 + % % + 6 : 6 : 6 : 6 : O # # # % # o # o o . ; f u._ u.: 6 : 6 6 : 6 6 + + % + 6 2 6 2 3 3 2 3 + # + + ",
"+ + % $ 3 > 3 3 2 3 3 3 O # + % : 6 : 6 : 6 : 6 O o # o + X # O # =   + h _ h _ 6 7 6 : : 6 : : + + % + 6 2 2 2 3 3 2 3 + $ + + ",
"+ + % + 3 3 3 3 3 3 2 3 O % + + 6 : 6 : 1 1 2 1 # + % + % % % X   = + = u h h r.6 : 6 : 6 : : 6 + + & + 6 2 6 , 3 3 2 3 $ & + + ",
"+ $ # + 3 2 3 3 3 3 2 3 O % + + : 6 : 7 1 , 6 1 O O O + % X % + o # + = u h h z : 6 : 7 : 6 6 : + + + + 2 2 6 , 3 3 2 3 + $ + + ",
"+ + % + 2 2 3 3 3 3 2 3 $ $ % + 6 : : 6 : 6 : 6 + + + + + % % + # = . = + + + + : : 6 : 7 6 : 6 + + $ @ 3 3 3 3 2 3 2 3 $ % + + ",
"+ + $ + 3 2 3 1 2 3 2 3 $ % % O 7 : 6 : 6 : : 6 % % + + + % + % = . = . + + + + , 6 : 6 : 6 6 : + + % $ 3 > 3 3 3 3 3 3 @ $ + + ",
"+ + % + 3 2 3 3 2 6 2 6 + # $ O 6 : 7 6 : 6 6 6 % % + % % + + * + + X + + + + + : 6 6 : 6 : 6 : + + $ # 3 2 3 3 3 3 2 3 $ $ + + ",
"+ + & $ 3 3 3 3 2 3 2 3 + # + $ : 6 : 7 6 6 : 6 % X + + % + + + + + + + + + + . 6 6 : 6 : 6 : 6 + + $ $ 3 2 3 3 3 3 2 3 + & + + ",
"+ + # + 3 2 3 3 3 3 2 3 + X + X 6 : : 6 : : 6 6 + X - + + + + + + % + % + % + + : 6 : 6 : 6 6 : + + $ + 3 3 3 3 2 3 2 6 + $ $ O ",
"+ % $ $ 3 3 3 3 3 3 2 3 X - + = : 6 6 6 6 6 6 : X - + + + + + + + % % + + + + + : 6 6 : 6 : : 6 + + & + 3 2 3 3 3 3 2 3 + # % O ",
"+ + $ # 3 > 3 3 3 3 , 6 - X + X 6 6 6 : : 6 : 6 X X = X = X + + + + + % % + % + 6 6 : 6 : : 6 : O O + $ 3 2 3 3 3 3 2 3 O % % + ",
"+ + $ $ 3 2 3 3 2 2 2 6 X - = . 6 : 6 : 6 6 : 6 = + X + X = + $ + + % % + + + + , , 6 : 6 6 : 6 % $ % + 3 2 3 3 3 3 2 3 + % + + ",
"+ + & $ 6 2 3 3 3 3 2 3 $ # $ $ 3 3 2 3 3 3 2 6 X X - X + + + % + + + % + $ + + 2 2 6 2 6 2 2 6 % + % O 3 3 3 3 3 3 3 3 $ $ $ $ ",
"+ + $ + 3 2 3 3 3 3 3 3 @ $ + O 2 2 3 3 2 2 2 6 % % % % + $ + $ + + + % + $ + $ 6 2 2 2 , 2 6 2 + + + + 3 2 3 3 3 3 3 3 $ @ O O ",
"+ O % + 3 2 3 3 3 3 2 3 $ & + + 3 2 3 3 3 2 6 3 X - % - # # $ @ % % % % % % $ # 2 2 6 2 2 6 3 3 + + + + 3 2 3 3 3 3 > 3 O % % % ",
"+ $ # + 3 2 3 3 3 3 2 3 + + % + 3 2 3 2 2 3 2 2 X % X X + $ $ $ + O $ O O O @ $ 2 6 2 2 2 2 3 2 + + % $ 3 2 3 3 3 3 2 3 O % O % ",
"+ + % O 3 2 3 3 3 3 2 3 + # O $ 3 3 2 3 3 3 3 2 8 6 3 3 3 6 3 3 3 3 3 3 3 3 3 3 6 2 2 3 3 3 2 3 + + % + 3 2 3 3 3 3 2 3 O % % % ",
"+ + % $ 3 2 3 2 3 3 2 3 + $ % O 2 3 3 3 2 3 3 2 2 2 2 2 2 2 3 > 2 2 2 2 2 2 3 3 2 2 3 2 2 2 3 3 % + % + 3 2 3 3 3 3 2 3 O % + + ",
"+ $ % O 6 2 3 3 3 3 2 3 + % + O 3 3 3 2 3 2 2 2 3 3 3 3 3 3 3 3 3 3 3 3 3 6 3 3 3 2 3 3 2 2 , 6 + + % $ 3 2 3 3 3 3 2 3 + % % + ",
"+ % % O 3 2 3 2 3 3 2 3 + % + % 2 3 3 3 3 3 2 6 3 3 3 3 3 3 3 3 3 3 3 3 2 3 2 2 3 3 3 2 2 6 2 2 % + + + 3 2 3 3 3 3 2 3 + % + + ",
"+ + # $ 3 2 3 3 3 > 8 > $ o $ + + O % + + + X + + + + + + + + $ $ # % + + + + + + + % + + $ + + + + o $ > 3 > 3 3 3 2 3 $ % O + ",
"+ + $ $ 3 2 3 3 3 > 3 2 * + & + + % % + + % - X + + % + + + + + + + + + + $ + + + % + + + + + + + & $ & 2 5 > 3 3 3 3 3 $ $ + + ",
"+ + $ # 3 2 3 3 3 3 3 > % X + X % % + $ % % % - % % % % % & + + + + & % % % % % % % % $ - - + - X + O $ > 3 2 3 3 3 > 3 $ + + + ",
"+ + $ $ 3 2 3 3 3 3 3 > - + - $ $ + + $ + + + X + + + + + $ $ $ + + $ + + + + + + + $ $ X X + X + % & & > 3 3 3 3 3 2 3 + & + + ",
"+ % $ + 3 2 3 3 2 2 6 2 > > 2 > 3 3 3 3 6 3 3 3 3 6 3 3 3 3 3 3 6 3 3 3 6 2 6 3 3 3 3 3 3 3 6 2 2 , > > 3 3 3 2 3 3 2 3 + $ + + ",
"+ + % + 3 2 3 3 2 2 2 6 2 3 6 6 2 2 2 2 2 2 2 2 2 2 2 2 2 > 3 2 2 2 2 2 , 2 2 2 2 2 3 2 2 2 2 2 8 6 2 2 3 3 3 2 2 3 2 3 + # + + ",
"+ O % $ 3 2 3 2 6 3 2 2 2 2 2 , 3 3 3 3 3 3 3 3 3 3 3 3 3 3 3 3 3 3 3 3 3 3 2 3 3 3 2 6 3 3 3 6 2 2 2 2 2 2 3 3 3 3 2 3 $ & + + ",
"% O % + 6 2 3 3 2 6 2 2 6 6 2 2 2 3 3 3 3 3 3 3 3 2 3 2 3 3 3 3 3 3 3 3 3 3 2 3 3 3 2 3 2 2 2 2 2 2 6 6 3 3 6 3 3 3 2 3 + $ + + ",
"+ % X + + + + + 6 6 2 6 2 2 6 6 2 6 2 2 2 2 2 6 6 2 6 6 2 6 2 6 6 2 6 6 2 6 6 3 3 6 3 3 3 3 3 3 6 3 2 6 2 2 6 2 + % + + + + % % ",
"% % - X % % % % , , 2 2 6 2 2 2 2 2 2 2 2 6 2 2 2 2 2 2 2 2 2 2 2 2 2 2 2 2 2 2 2 2 2 2 2 2 3 2 2 2 6 6 2 2 2 2 % % % % + + % % ",
"% % % = % + + % 2 6 6 2 2 2 2 2 2 2 2 6 2 6 6 2 2 2 2 2 2 2 2 2 2 2 2 2 2 2 6 2 2 2 3 3 3 2 2 2 6 2 2 2 2 2 6 2 + % + + % + + % ",
"+ X X + + + X + 6 2 6 2 6 2 6 6 6 6 2 2 2 2 2 2 6 2 6 2 6 2 2 6 6 2 2 2 6 2 2 2 6 3 3 3 3 2 2 5 2 6 6 2 6 6 2 6 . + + . + + + . ",
". . . . . . . .                 .                       .                                                       . . . . . . . . ",
".   .         .                                         . .                         .           .       .     .     . . .       ",
"  .             . .   . . . . . . . . .     .       . . . .     . . . .   .   . .   .           . . . .   . . .                 ",
".   .   .   .                                                                                 .                   .   .   .     "
};
