/* XPM */
static char *_1211_ea405af661dcc1baeb39877afdab8a2b700d7b2fe1b9699ced13d5d696505cd4[] = {
/* columns rows colors chars-per-pixel */
"112 68 95 2 ",
"   c black",
".  c #010101",
"X  c #020202",
"o  c gray1",
"O  c #040404",
"+  c gray2",
"@  c #060606",
"#  c #070707",
"$  c gray3",
"%  c #090909",
"&  c gray4",
"*  c #0B0B0B",
"=  c #0C0C0C",
"-  c gray5",
";  c #0E0E0E",
":  c gray6",
">  c #101010",
",  c #111111",
"<  c gray7",
"1  c #131313",
"2  c gray8",
"3  c #151515",
"4  c #161616",
"5  c gray9",
"6  c #181818",
"7  c #191919",
"8  c gray10",
"9  c #1B1B1B",
"0  c gray11",
"q  c #1D1D1D",
"w  c #1E1E1E",
"e  c gray12",
"r  c #202020",
"t  c gray13",
"y  c #222222",
"u  c #232323",
"i  c gray14",
"p  c #252525",
"a  c gray15",
"s  c #272727",
"d  c #282828",
"f  c gray16",
"g  c #2A2A2A",
"h  c gray17",
"j  c #2C2C2C",
"k  c gray18",
"l  c #2F2F2F",
"z  c gray19",
"x  c #313131",
"c  c #323232",
"v  c gray20",
"b  c #343434",
"n  c #3A3A3A",
"m  c #3C3C3C",
"M  c #484848",
"N  c gray76",
"B  c #C3C3C3",
"V  c gray77",
"C  c gray80",
"Z  c gray83",
"A  c #D5D5D5",
"S  c gray84",
"D  c #D7D7D7",
"F  c #DADADA",
"G  c gray86",
"H  c gainsboro",
"J  c #DFDFDF",
"K  c gray88",
"L  c #E1E1E1",
"P  c #E2E2E2",
"I  c gray89",
"U  c #E4E4E4",
"Y  c #E7E7E7",
"T  c #E9E9E9",
"R  c #EAEAEA",
"E  c gray92",
"W  c #ECECEC",
"Q  c #EEEEEE",
"!  c #EFEFEF",
"~  c gray94",
"^  c #F1F1F1",
"/  c gray95",
"(  c #F3F3F3",
")  c #F4F4F4",
"_  c gray96",
"`  c #F6F6F6",
"'  c gray97",
"]  c #F8F8F8",
"[  c #F9F9F9",
"{  c gray98",
"}  c #FBFBFB",
"|  c gray99",
" . c #FDFDFD",
".. c #FEFEFE",
"X. c white",
/* pixels */
"                                                                                                                                                                                                                                ",
"                                                                                                                                                                                                                                ",
"                                                                                                                                                                                                                                ",
"                                                                                                                                                                                                                                ",
"                                                                                                                                                                                                                                ",
"                                                                                                                                                                                                                                ",
"                                                                                                                                                                                                                                ",
"                                                                                                                                                                                                                                ",
"                                                                                                                                                                                                                                ",
"                                                                                                                                                                                                                                ",
"                                                                                                                                                                                                                                ",
"                                                                                                                                                                                                                                ",
"                                                                                                                                                                                                                                ",
"                                                                                                                                                                                                                                ",
"                                                                                                                                                                                                                                ",
"                                                                                                                                                                                                                                ",
"                                                                                                                                                                                                                                ",
"                                                                                                                                                                                                                                ",
"                                                                                                                                                                                                                                ",
"                                                                                                                                                                                                                                ",
"                                                                                                                                                                                                                                ",
"                                                                                                                                                                                                                                ",
"                                                                                                                                                                                                                                ",
"                                                                                                                                                                                                                                ",
"+   =   #       . . . . . . . .     $ .   $         $ .   $         $ .   $     X   < . .   X                         # X o X     $     X   o         # X o X     $     X   o         # X o X     $     X   o                   ",
"@   +   o   X o                 - X       o # # - X       o # # - X       o # # +   &       X O                             . $ % *     X   @               . $ % *     X   @               . $ % *     X   @                   ",
"  X .   &       . . . . . . . .   .   % &   X     .   % &   X     .   % &   X   .   * . #   o                       = X O X   .       O + O .       = X O X   .       O + O .       = X O X   .       O + O .                   ",
"O :           %                 X 2         @ - X 2         @ - X 2         @ -         %   O                   #   X     . O #     @           #   X     . O #     @           #   X     . O #     @                           ",
"  .   #   #                       X $ * = .       X $ * = .       X $ * = .     * *     *   % #                 X   O   %   @   @   %     $   4 X   O   %   @   @   %     $   4 X   O   %   @   @   %     $   4                 ",
"# % @ .   p +   . . . . . . . . q         q +   q         q +   q         q +         ; t                       o   X .     i @     ;   7 e     o   X .     i @     ;   7 e     o   X .     i @     ;   7 e                     ",
"        6 E X.X.X.X.X.X.X.X.X.X.! 4 6   q H X.X.! 4 6   q H X.X.! 4 6   q H X.X.X.X.X.X.H z   O                 X .   O @ i Q X.X.X.X.( X.A d = X .   O @ i Q X.X.X.X.( X.A d = X .   O @ i Q X.X.X.X.( X.A d =                 ",
"%   #   - X.X.X.X.X.X.X.X.X.X.X.X.  X   > X.X.| X.  X   > X.X.| X.  X   > X.X.| X.X.X.X.E 7   O                   $ . #   @ X.X.X.X.X.X.X.' 9     $ . #   @ X.X.X.X.X.X.X.' 9     $ . #   @ X.X.X.X.X.X.X.' 9                   ",
"%   #   - X.X.X.X.X.( ) X.' X.X.X.0   @   X.X.X.X.  O   * X.X.X.X.  . .   X.X.X. .X.X.X.X.@   -                   .   @   @ X.X.X.X.X.X.X.X.  .   .   @   @ X.X.X.] X.X.X.X.6     1   y   + X.X.X.] X.X.X.X.6     >   w         ",
"        6 E X.X.F X.X.X.X.L X.] N =   &   X.X.X.T 3 <   6 Y X.X.X.  . .   X.X.X.X.' { X.( a                       .   @   @ X.X.X.X.] X.X.' >     .   @   @ X.X.X.X.X.) X.V n & 4 l   o   = X.X.X.X.X.) X.V n & 8 j       @ o O ",
"# % @ .   p +   j I X.) K i ; 1 M     $   X.X.X.X.Q X.X.` X.X...X.  . .   X.X.X.Y q % + 3     ,                   .   @   @ X.X.X.} 1     1   #   .   @   @ X.X.X.( h   t m Z X.( G 5 >   - X.X.X.( h   t m Z X.` D 9 =   #     ",
"  .   #   #       X.X.X.X.<         o   X X.X.X.X.X.X.X.X.X.X.X.X.  . .   X.X.X.X.      $ . O                     .   @   @ X.X.X.X.        O     .   @   @ X.X.X.X.        X.X.X.X.1     - X.X.X.X.        X.X.X.X.5     # . X ",
"O :           %   X.X.X.X.=   3   . #   o X.X.X.X.X.X.X.X.X.X.X.X.  . .   X.X.X.X.      $ . O                     .   @   @ X.X.X.X.        O     .   @   @ X.X.] X.  8 r   X.| .._       % X.X.] X.  8 r   X.| X./     . o .   ",
"  X .   &       + X.X.X.X..   O   % X   o X.X.X.X.Q X.X.` X.X...X.  . .   X.X.X.Y q % + 3     ,                   .   @   @ X.X.X.} 1     1   #   .   @   @ X.X.X.X.        X.X.X.X.- & @   X.X.X.X.        X.X.X.X., + &       ",
"@   +   o   X o   X.X.X.X.$ # X   X     o X.X.X.T 3 <   6 Y X.X.X.  . .   X.X.X.X.' { X.( a                       .   @   @ X.X.X.X.] X.X.' >     .   @   @ X.X.X.X.+ & $ + X.X.X.X.        X.X.X.X.+ & $ + X.X.X.X.    .   : # ",
"+   =   #         X.X.X.X.  $   O     # . X.X.X.X.  O   * X.X.X.X.  . .   X.X.X. .X.X.X.X.@   -                   .   @   @ X.X.X.X.X.X.X.X.  .   .   @   @ X.X.X. .*     $ X.X.X.X.  o     X.X.X. .*     $ X.X.X.X.    +   -   ",
"                  X.X.X.X.  &       ,   ; | X.X.X.  *   % X.X.X.X.  *   % X.X.X.X.( X.X.F c       & $   O   + .   -   +     X.X.X.X.X.X.X.` 8     =   4   3 ` X.X.X.*     * X.X.X.X.*     * X.X.X.X.  =   O X.X.X.X.@   # . $   ",
"                  X.} X.X.O o       >   ; X.X.X.X.  =     X.X.X.X.  =     X.X.X.X.X.X.X.B n   * w     o ; o .   # :   .     X.X.X.X.X.~ X.S g ;   q   =   1  .X.X.X.O $ $ O X.X.X.X.O $ $ O X.X.X.] %     v P X.X.Q i @ O   . X ",
"                % X.X.X.X.O   # .   -   = X.X.X.X.  $ # $ X.X.X.X.  $ # $ X.X.X.X.] X.X.X.} _ X.E q #       . %       & + , X.X.X.X.X.X.X.X.U [ X.X., 1     X.X.X.X.        X.X.X.X.        X.X.X.X.] X.X.C b o @ i     . X   o ",
"                  X.X.X.X.=   3 X   .   # X.X.X.X.    o O X.X.' X.    o O X.X.' X.X.X.X.X.X.X.X.X.    *   =       . o .     / X.X.X.X. .X.X.X.X.X.X.  o     X.` ' X.  2 2   X.' ' X.  2 2   X.' X.X.X.X.X.X.      @   %   O   X ",
"                  X.X.X.X.:     * X o   2 ] X.X.X.$     O { X.X.X.$     O { X.X.X.X.X.X.X.X.X.X.X.    *   =     X . #     5 X.X.X.X.X.X.X.X.} X.X.X.    o o X.X.X.X.        X.X.X.X.        X.X.X.X.X.R X.X.  & # O .     X   # ",
"                k U X.` L a > 3       - s I X.X.J f - 5 j Y  .] J f - 5 j Y  .] X.X.X.X.X.X.X.X.E q #       . %     #   = 9 D ` X.X.X.X.X.X.X.X.X./ 6 X   , W X.X.^ 0 X X 0 ^ X.X.^ 0 X X 0 ^ X.{ [ X.X.X.' $   .   X O X =     ",
"                  7 6 7 h       < =       p @ & x         g # 1 x         g # 1                 w     o ; o .   O o @       j 8 * -         .   O 6         q ;   <   o o   <     <   o o   <   : #       q   # $ .             ",
"                : &     =   u         >   8         6 5   3   O     6 5   3   O   . @ $ .     &   & $   O   + .         w   >     #     X   O       o + o O         o o o o         o o o o       *   4     @     X o X #       ",
"                                                                                                                                                                                                                                ",
"                                                                                                                                                                                                                                ",
"                                                                                                                                                                                                                                ",
"                                                                                                                                                                                                                                ",
"                                                                                                                                                                                                                                ",
"                                                                                                                                                                                                                                ",
"                                                                                                                                                                                                                                ",
"                                                                                                                                                                                                                                ",
"                                                                                                                                                                                                                                ",
"                                                                                                                                                                                                                                ",
"                                                                                                                                                                                                                                ",
"                                                                                                                                                                                                                                ",
"                                                                                                                                                                                                                                ",
"                                                                                                                                                                                                                                ",
"                                                                                                                                                                                                                                ",
"                                                                                                                                                                                                                                ",
"                                                                                                                                                                                                                                ",
"                                                                                                                                                                                                                                ",
"                                                                                                                                                                                                                                ",
"                                                                                                                                                                                                                                "
};
