/* XPM */
static char *_570_f2cc89abfe6880b4c06d08798e59387b67415fa262c44aa8e6cd6df0de18bac1[] = {
/* columns rows colors chars-per-pixel */
"64 56 202 2 ",
"   c #3C2100",
".  c #3A2603",
"X  c #2D2919",
"o  c #3D271B",
"O  c #3B291A",
"+  c #362A19",
"@  c #1A1F32",
"#  c #281F34",
"$  c #1A242E",
"%  c #1B292C",
"&  c #1E2633",
"*  c #1C233E",
"=  c #1F2D3E",
"-  c #1F2D36",
";  c #2D2A24",
":  c #262B2F",
">  c #2F292F",
",  c #3C2621",
"<  c #362C23",
"1  c #3B2C24",
"2  c #3A2A2C",
"3  c #3B3726",
"4  c #252436",
"5  c #2C2733",
"6  c #242A35",
"7  c #2A2D36",
"8  c #24253C",
"9  c #29273B",
"0  c #242A3C",
"q  c #2B2C3B",
"w  c #332939",
"e  c #23313C",
"r  c #2B313C",
"t  c #223335",
"y  c #33333E",
"u  c #471D00",
"i  c #41251B",
"p  c #412613",
"a  c #482404",
"s  c #412A22",
"d  c #241F47",
"f  c #1C2543",
"g  c #1C2943",
"h  c #242543",
"j  c #292644",
"k  c #232C43",
"l  c #2B2B44",
"z  c #24274B",
"x  c #242A4A",
"c  c #292D4A",
"v  c #352E46",
"b  c #213142",
"n  c #2C3143",
"m  c #2B314B",
"M  c #343343",
"N  c #3A3C43",
"B  c #383048",
"V  c #3B3B4E",
"C  c #373E44",
"Z  c #2D2D51",
"A  c #413549",
"S  c #3E4659",
"D  c #42494F",
"F  c #42475B",
"G  c #484560",
"H  c #FEA524",
"J  c #FAAA24",
"K  c #FDA62C",
"L  c #F5AA2B",
"P  c #F9A92C",
"I  c #F4AA26",
"U  c #EBAD36",
"Y  c #FBA532",
"T  c #F4AC32",
"R  c #F5A939",
"E  c #EEB039",
"W  c #FEC13D",
"Q  c #DDA751",
"!  c #DEAC54",
"~  c #DBAE5B",
"^  c #DCB15C",
"/  c #D7B15C",
"(  c #EDAA42",
")  c #E6AC4A",
"_  c #ECA94C",
"`  c #EEA74B",
"'  c #F0A74D",
"]  c #FEBE44",
"[  c #E3AB54",
"{  c #E9AA54",
"}  c #E5AB59",
"|  c #E6B95A",
" . c #CBAD6D",
".. c #D7AF67",
"X. c #D1AE6E",
"o. c #CDB06C",
"O. c #DAB468",
"+. c #C8AE71",
"@. c #D4AD73",
"#. c #D8AB70",
"$. c #CFB171",
"%. c #DBB577",
"&. c #FCC94C",
"*. c #FBC248",
"=. c #EEC75E",
"-. c #F3C757",
";. c #FDC552",
":. c #F5C75B",
">. c #EBC86D",
",. c #E8C66B",
"<. c #E7C87B",
"1. c #F2C665",
"2. c #868F8D",
"3. c #888E8C",
"4. c #959E8F",
"5. c #8A8B94",
"6. c #828B92",
"7. c #8D9593",
"8. c #8E9B93",
"9. c #8E9A9A",
"0. c #8F9799",
"q. c #919795",
"w. c #959C95",
"e. c #989B96",
"r. c #95969B",
"t. c #98979D",
"y. c #969C9A",
"u. c #9A9C9C",
"i. c #94A08D",
"p. c #94A095",
"a. c #99A195",
"s. c #95A19B",
"d. c #9AA19C",
"f. c #A0A29E",
"g. c #8288A0",
"h. c #8F99A2",
"j. c #9396A1",
"k. c #959CA2",
"l. c #999BA3",
"z. c #969BA8",
"x. c #9B9DA8",
"c. c #949EB1",
"v. c #96A1A2",
"b. c #99A2A2",
"n. c #99A3AB",
"m. c #9BA6A8",
"M. c #98A4B0",
"N. c #A3A9A2",
"B. c #A4A9A9",
"V. c #B2AEAD",
"C. c #ACB2A8",
"Z. c #A7A6B4",
"A. c #D2B780",
"S. c #C3BD9D",
"D. c #C9B8A4",
"F. c #DFC885",
"G. c #DFC893",
"H. c #D9C698",
"J. c #E1C981",
"K. c #D5C4A8",
"L. c #CBC8BB",
"P. c #D6CDB9",
"I. c #D4CAB4",
"U. c #E9C4A5",
"Y. c #E6CBA4",
"T. c #E2D2A1",
"R. c #B7BDC7",
"E. c #BFC9C4",
"W. c #BDC7C9",
"Q. c #BEC4D3",
"!. c gray78",
"~. c #C6CBC4",
"^. c #CCCCC5",
"/. c #C5CCCB",
"(. c #CBCCCB",
"). c #C9C7C6",
"_. c #D2CDCB",
"`. c #D3C8C7",
"'. c #CCD5C7",
"]. c #C7D1CA",
"[. c #CDD1CB",
"{. c #C7D3C5",
"}. c #D1D0CE",
"|. c #C6CBD3",
" X c #CACED3",
".X c #C5CBDB",
"XX c #D6CDD4",
"oX c #CCD1D2",
"OX c #CED1DC",
"+X c #D3D2D2",
"@X c #D3D3DA",
"#X c #DAD6DC",
"$X c #D7D9D7",
"%X c #E1DECB",
"&X c #E4DCD1",
"*X c #DAE3DD",
"=X c #DFDAE1",
"-X c #E2DCE1",
";X c #E7E2E3",
":X c #EBE5E6",
">X c #EAEAEC",
",X c #E8E4EB",
/* pixels */
"y.y.y.y.y.y.y.y.y.y.y.y.y.y.y.y.y.y.y.y.y.y.y.y.y.y.s.y.y.y.e.y.y.y.y.y.y.y.y.y.y.y.y.y.y.y.y.y.y.y.y.y.y.y.y.y.y.y.y.y.y.y.y.y.",
"y.y.y.y.y.y.y.y.y.y.e.y.y.y.y.y.y.y.y.y.y.y.y.y.y.y.y.y.y.y.s.y.y.y.e.y.y.y.y.y.y.y.y.e.y.y.y.y.y.y.y.y.y.y.y.y.y.y.y.y.y.y.y.y.",
"y.y.y.y.y.y.y.y.y.y.y.y.s.y.y.y.y.y.e.y.y.y.y.y.y.y.y.y.y.y.y.y.y.y.y.y.y.y.y.y.y.y.y.y.y.y.y.y.y.y.y.e.y.y.y.y.y.y.y.y.y.y.y.y.",
"y.y.y.y.e.y.y.y.y.y.y.y.e.y.y.y.y.y.y.y.y.y.y.e.y.y.e.y.y.y.y.y.y.y.y.y.y.y.y.y.y.y.y.y.y.y.y.y.y.y.y.y.y.y.y.y.y.y.e.y.y.y.y.y.",
"y.y.y.y.y.y.y.y.y.y.y.y.y.y.y.y.y.y.y.y.y.y.y.y.y.y.y.y.y.y.y.y.y.y.y.y.y.y.y.e.y.y.e.y.y.y.y.y.y.y.y.y.y.y.y.y.s.e.y.y.y.y.y.y.",
"y.y.e.y.y.y.y.y.y.y.e.y.y.y.y.y.y.y.y.y.y.y.y.y.y.y.y.y.e.y.y.y.s.y.y.y.y.y.y.y.y.y.s.y.y.y.y.e.y.y.y.y.y.y.y.y.y.y.y.y.e.y.y.y.",
"y.y.y.y.y.y.y.y.y.y.y.y.y.y.y.y.y.y.y.s.y.y.y.y.y.y.y.y.y.y.y.y.e.y.y.y.y.y.y.y.y.y.y.y.y.y.y.y.y.y.y.y.d.y.y.y.y.y.y.y.y.y.y.y.",
"y.y.y.y.y.y.y.y.y.y.y.y.y.y.y.y.y.y.y.e.y.y.y.y.y.y.y.y.y.y.y.y.y.y.y.y.y.y.y.y.y.y.y.y.y.y.y.y.y.y.y.y.y.y.y.y.y.y.y.y.y.y.y.y.",
"y.y.y.y.y.y.y.y.y.y.y.e.s.y.y.y.y.y.y.y.y.y.y.y.y.y.y.y.e.y.y.y.y.y.y.y.y.y.y.y.y.y.y.y.y.y.y.y.y.y.s.e.y.y.y.y.y.y.y.y.y.y.y.y.",
"y.y.y.y.y.y.y.y.y.y.y.y.y.y.y.y.y.y.y.y.y.y.y.y.y.y.y.y.y.y.y.y.y.y.y.y.y.y.y.y.y.y.y.y.y.y.y.y.y.y.y.y.y.y.y.y.y.y.y.y.y.y.y.y.",
"y.y.e.y.y.y.s.y.y.y.y.y.y.y.y.y.y.y.y.y.y.y.e.y.e.y.y.y.y.y.y.y.y.y.y.y.y.y.y.y.y.y.y.y.y.y.e.w.y.y.y.y.y.y.y.y.y.y.y.e.y.y.y.y.",
"y.y.y.y.y.y.e.y.y.y.y.y.y.y.y.y.y.y.y.y.y.y.y.y.y.y.y.y.y.s.y.y.e.y.y.y.y.y.y.y.y.y.y.y.y.y.y.y.y.y.y.y.y.y.y.y.y.y.y.y.y.y.y.y.",
"y.y.y.y.y.y.y.y.y.e.y.y.e.y.y.y.y.y.y.y.y.y.y.y.y.y.y.y.y.y.y.y.y.y.y.y.y.y.y.y.y.y.y.y.y.y.y.y.y.y.y.y.y.y.y.y.y.y.y.e.y.e.y.y.",
"y.y.y.y.y.y.y.y.y.y.y.y.y.y.y.y.y.y.y.y.y.y.y.y.y.y.y.y.y.y.y.y.y.y.s.y.y.y.y.y.y.y.y.y.y.y.y.y.y.y.y.e.y.y.e.y.y.y.y.y.y.y.y.y.",
"y.y.y.y.y.y.y.y.y.y.y.y.y.y.y.y.y.y.y.y.y.y.y.y.y.y.y.y.y.y.y.y.y.y.y.y.y.y.y.y.y.y.y.y.y.y.y.y.y.y.y.y.y.y.y.y.y.y.y.y.y.y.y.s.",
"y.y.s.e.y.y.y.y.y.y.y.y.y.y.y.y.l.y.y.y.y.y.9.k.y.v.k.y.k.k.y.t.k.k.y.k.y.k.y.k.y.y.y.y.y.y.y.y.y.y.y.y.y.y.y.y.y.y.y.y.y.y.y.y.",
"y.y.y.y.y.y.y.y.y.y.y.y.y.y.y.y.t.x.t.r.b.y.k.v.e = = 0 - 0 0 6 n 0 6 0 0 0 0 & v.r.y.d.r.t.u.w.y.y.y.e.y.y.y.y.y.y.y.y.y.y.y.y.",
"y.y.y.e.y.y.y.y.y.y.y.y.y.y.y.y.l.f.t.t.u.e.9.h.b k k b b k k q n k k j c m j 9 j.r.s.y.w.w.l.y.y.y.y.y.y.y.y.y.y.y.y.y.y.y.y.y.",
"y.y.y.y.y.y.y.y.y.e.y.y.y.y.y.y.t.w.q.d.w.d.l.k.6 9 9 8 j 9 0 0 0 g f h h l j 4 l.l.b.y.k.y.y.9.s.y.y.y.y.y.y.y.y.e.y.y.y.y.y.y.",
"y.y.y.y.y.y.y.y.y.y.y.y.y.y.y.y.q.r.y.N.3.q.l.x.r w l l l n q r 0 0 h l v B v y x.l.r.2.m.s.9.9.y.y.y.y.y.y.y.y.y.y.y.y.y.y.y.y.",
"y.y.y.y.y.y.y.y.y.y.y.y.y.y.y.y.n.k.y.2.C r 7 6 |.|.|.|.|.|././.].]. X@X=X=X-X-X5 9 r S 3.w.k.b.y.y.y.y.y.y.y.y.y.y.y.y.y.e.s.y.",
"y.y.y.y.y.y.e.y.y.y.y.y.y.y.y.y.l.k.d.9.r 8 0 0 oXoX X XoXoX{.'.'.'.}.$X-X,X,X,X9 9 6 : q.d.y.l.k.y.y.y.y.y.y.y.y.e.y.y.y.y.y.y.",
"y.y.y.y.y.y.y.y.y.y.y.y.y.y.y.y.e.e.a.y.0 k c k |./.|.(.|./.].~.~.~.(.XX&X;X;X,Xl c j 9 l.d.y.t.y.y.y.y.y.y.y.y.y.y.y.y.y.y.y.y.",
"y.y.y.y.y.y.y.y.y.y.y.y.y.y.y.y.u.q.w.s.0 k c 0 oX].].(.].(.(.(.^.(._.$X-X:X>X>Xj c z 0 l.e.r.y.y.y.y.y.y.y.y.e.y.y.y.y.y.y.y.y.",
"y.y.e.s.y.y.y.y.y.y.y.y.y.y.y.y.e.w.a.s.k h c 0 [.^.L.^.^._.(.!.).(.}.^._.^.^.[.0 c g g v.s.y.s.y.y.y.y.y.y.y.y.y.y.y.y.y.y.y.e.",
"y.y.y.y.y.y.y.y.y.y.y.y.y.y.y.y.y.q.s.y.j j l q ~.^.(.[._.}.XX@X@XoX[.~.^.(.^.~.q c z x v.s.9.9.s.y.y.y.y.y.e.y.y.y.y.y.y.y.y.y.",
"y.y.y.y.e.s.y.y.y.y.y.y.y.y.y.y.k.v.b.r.l h 9 6 /.oXoX/./.W.|..X|.W.~.{.~.oX[./.: 6 h l 9.s.s.k.y.y.y.y.y.y.y.y.y.y.y.y.y.y.y.y.",
"y.y.y.y.y.y.y.y.y.y.e.y.y.y.y.y.v.s.q.5.V v 7 6 |..XQ.R.*X$X.XOXOXoX$X*XR.Q.|./.: 7 n V 2.w.s.v.y.y.y.y.y.y.y.y.y.y.y.y.y.y.y.y.",
"y.y.y.y.y.y.y.y.y.y.y.y.y.y.y.s.8.8.a.N.5.r.v.v.- x c F C.L.P._.XX`.L.V.F Z c 8 z.k.j.5.N.e.e.q.y.y.y.y.y.y.y.y.y.y.y.y.y.y.y.y.",
"y.y.y.y.y.y.y.y.y.y.y.y.y.y.y.y.w.4.4.d.y.l.s.s.k g f N S.T.Y.Y.U.U.Y.D.A d z j v.s.x.k.e.4.e.w.y.y.y.y.y.y.y.y.y.y.y.y.y.y.y.y.",
"y.y.y.y.y.y.y.y.y.y.y.y.y.y.e.y.s.s.q.q.k.k.w.9.b c 4 1 o.| ) _ ' ' | X.s # c l 9.8.y.k.e.e.y.d.y.y.y.y.y.y.y.y.y.y.y.y.y.y.d.y.",
"y.y.e.y.y.y.y.y.y.y.y.y.y.y.y.y.r.k.y.q.b.k.8.s.- r > O +./ Q [ } Q ^ o.i > r - s.8.s.d.q.w.y.w.y.y.y.y.y.y.y.y.e.y.y.y.y.y.y.y.",
"y.y.y.y.y.y.y.y.y.y.y.y.y.y.y.y.t.l.w.w.y.y.w.p.w.b.7.f.; 3 X < 2 + 3 X f.7.d.w.w.y.w.e.y.l.u.e.y.y.y.y.y.y.y.y.y.y.y.y.y.y.y.y.",
"y.y.y.y.y.e.y.y.y.y.y.y.y.y.y.y.y.y.y.y.y.y.y.y.d.w.8.b.* b g f f g e % m.9.p.a.y.y.e.e.t.l.y.e.t.y.y.y.y.y.y.y.y.y.y.y.y.y.y.y.",
"y.y.y.y.y.y.y.y.y.y.y.y.y.y.y.y.y.p.9.v.k.k.k.y.7.9.m.v.6 @ k c c k $ % c.M.9.8.y.y.4.i.y.y.w.w.e.y.y.y.s.y.y.y.y.e.y.y.y.y.y.y.",
"y.y.y.y.y.y.y.y.y.y.y.y.y.y.y.s.p.p.v.k.j.y.y.s.n.n.v.6.D r l v n n r S g.M.n.s.y.y.i.i.p.y.p.p.s.y.e.y.e.y.y.y.y.y.y.y.e.y.y.y.",
"e.y.y.y.y.y.y.y.y.y.y.y.y.y.y.y.y.9.k.k.y.y.9.h.& g * S B.(././.(.(.|.Z.F * & $ j.j.w.i.9.s.s.y.y.y.y.y.y.y.y.y.y.y.y.y.y.y.y.y.",
"y.y.y.y.y.y.y.y.y.y.y.y.y.y.y.y.9.v.k.y.p.w.s.k.m M * y L.%XP.P.I.P.&X_.v # y y z.z.w.p.y.y.9.k.y.y.y.y.y.y.y.y.y.s.e.y.y.y.y.y.",
"y.y.y.y.y.y.y.y.y.y.y.y.y.y.y.y.l.k.k.k.y.w.e.u.5 2 2 1 K.H.H.G.G.A.H.K.1 2 < ; l.z.y.y.y.k.y.j.y.y.y.y.y.y.y.y.y.y.y.y.y.y.y.y.",
"y.y.y.y.y.y.y.e.y.y.y.y.y.y.y.y.y.l.l.k.y.y.l.e.O   a u %...O./ O.%.$.A.  . . + l.z.l.y.l.y.l.w.k.y.y.y.y.y.y.y.y.y.y.y.y.y.y.y.",
"y.y.y.y.y.y.y.y.y.y.y.y.y.y.y.e.r.y.l.j.e 0 l , $.! { ' ` ( R ) :.1.1.>.<.<.F.H.< 7 7 t t.l.w.w.y.y.e.y.y.y.y.y.y.y.y.y.y.y.y.y.",
"y.y.y.y.y.y.y.y.y.y.y.y.y.y.s.e.e.t.k.k.k k l , / U L K Y K K Y ;.:.:.:.-.1.,.F.+ 7 6 7 y.y.w.w.y.y.s.y.y.y.y.y.y.y.y.y.y.y.y.y.",
"y.y.e.y.y.y.y.y.y.y.y.y.y.y.y.e.e.t.e.j.0 k j i Q I H H H K H K &.;.;.&.&.&.:.J.O q 0 k r.y.w.p.y.y.y.y.y.y.y.y.y.y.e.y.y.y.y.y.",
"y.y.s.y.y.y.y.e.y.y.e.y.y.y.y.y.w.w.e.9.e g v i ) J H H H K H J ] ] ] ] W W *.,.O q k b h.y.w.w.y.y.y.y.y.y.y.y.y.y.y.y.y.y.y.y.",
"y.y.y.y.y.y.y.y.y.y.y.y.y.y.y.y.r.w.y.0.t - l o ! L Y Y K P P P P T T T P L E ~ O 9 g b k.k.r.r.y.y.e.y.e.y.y.y.y.y.y.y.y.y.y.y.",
"y.y.s.y.y.y.y.y.y.y.y.y.y.y.y.y.w.r.l.j.t - 9 o ! T Y Y P L L P L L L I H J T ! i l g b j.k.y.y.y.y.y.y.y.y.y.y.y.y.y.y.e.y.y.s.",
"y.y.e.y.y.y.y.y.y.y.y.y.y.y.y.w.w.w.l.z.0 8 w i [ L K K J J K J J J J K H K P } p w 0 e r.y.y.y.y.y.y.y.y.y.y.y.y.y.e.y.y.y.y.y.",
"y.y.y.y.y.y.y.y.y.y.y.y.y.y.y.w.w.r.l.z.e 9 w s @.[ _ _ ) ) { } ) ) ) _ ' ' } #.o 7 6 e 9.v.y.y.y.y.y.y.y.y.y.y.y.y.y.y.y.y.y.y.",
"y.y.e.y.y.y.y.y.y.y.y.y.y.y.y.y.y.y.k.l.k.k.l.l., O O o O O O o O o O O o o O < u.k.k.k.l.y.y.y.y.y.y.y.y.y.y.y.y.y.e.s.y.y.y.y.",
"y.y.y.y.y.y.y.y.y.y.y.y.y.y.y.y.y.y.y.y.y.y.l.z.0 9 k l l j j k l k l j l 0 l 7 z.k.y.y.y.y.k.y.y.y.y.y.y.y.y.y.y.y.y.y.y.y.y.y.",
"y.y.y.y.s.y.y.y.y.y.y.y.y.y.y.y.y.y.y.y.y.y.k.k.6 0 0 9 0 k 0 0 0 0 0 0 0 9 0 6 l.l.y.y.y.y.y.y.y.y.y.y.e.y.y.y.y.y.y.y.y.y.y.y.",
"y.y.y.y.e.y.y.y.y.y.y.e.y.y.y.y.y.y.y.e.y.y.l.y.7 r 7 7 q q q r l q q q q 7 7 r l.y.y.y.y.y.s.e.y.e.y.y.y.y.y.y.y.y.y.y.y.y.y.y.",
"y.y.y.y.y.y.y.y.y.y.y.y.y.y.y.y.e.y.y.p.y.y.y.y.y.j.j.j.r.j.j.r.j.j.r.j.r.j.r.y.r.y.w.y.y.w.e.w.y.y.e.y.y.y.y.y.y.y.y.y.e.y.y.y.",
"y.y.y.e.y.y.y.y.y.y.y.y.y.y.e.y.w.y.p.e.w.w.y.y.y.k.k.k.k.k.k.y.y.l.k.k.k.k.k.k.y.w.w.y.w.e.y.y.y.y.s.y.y.y.y.y.y.e.y.y.y.y.y.y.",
"y.y.y.y.y.y.y.y.e.y.y.y.y.s.y.y.y.w.e.p.w.w.y.y.w.y.l.y.y.y.y.y.r.y.y.y.l.r.y.y.y.y.w.w.s.w.y.y.y.y.y.y.y.y.y.y.y.y.y.y.y.y.y.y.",
"y.y.y.y.y.y.y.y.y.y.y.y.y.y.y.y.y.y.y.e.p.e.w.y.y.y.r.r.y.y.r.w.y.w.y.y.w.y.y.y.w.y.w.e.e.p.y.y.y.y.y.y.y.y.y.y.y.y.y.y.y.y.y.y."
};
