/* XPM */
static char *_d8c19d6a5ed4875c5ee8db0f867a1caOEqkt7dw49PD5Ojg[] = {
/* columns rows colors chars-per-pixel */
"64 56 198 2 ",
"   c #2C1E1B",
".  c #3D260F",
"X  c #35260F",
"o  c #292017",
"O  c #3B2516",
"+  c #392910",
"@  c #3C271C",
"#  c #372A1B",
"$  c #3B2B1A",
"%  c #362714",
"&  c #291C23",
"*  c #1F222A",
"=  c #1C2A2D",
"-  c #1C2D34",
";  c #1C253A",
":  c #1C2B3C",
">  c #1B2534",
",  c #2B272D",
"<  c #342B23",
"1  c #392B26",
"2  c #242532",
"3  c #252B35",
"4  c #2A2C35",
"5  c #23263B",
"6  c #2A273B",
"7  c #252A3C",
"8  c #2A2C3C",
"9  c #2D2733",
"0  c #372733",
"q  c #35273A",
"w  c #223136",
"e  c #23313A",
"r  c #2A323B",
"t  c #2A3839",
"y  c #32323E",
"u  c #4C2A0D",
"i  c #462F0F",
"p  c #40251A",
"a  c #432C1C",
"s  c #452713",
"d  c #433012",
"f  c #6B3B05",
"g  c #1E2745",
"h  c #1D2A42",
"j  c #1E2B4A",
"k  c #1F3145",
"l  c #252744",
"z  c #242B43",
"x  c #2A2B43",
"c  c #242B4B",
"v  c #292C4D",
"b  c #262747",
"n  c #322B41",
"m  c #233244",
"M  c #2B3143",
"N  c #25324A",
"B  c #2B324B",
"V  c #313343",
"C  c #363F46",
"Z  c #2A3052",
"A  c #30404F",
"S  c #434754",
"D  c #40475A",
"F  c #FEA413",
"G  c #FEA21C",
"H  c #FFAD1F",
"J  c #D99833",
"K  c #DC9634",
"L  c #FF9F25",
"P  c #EEA727",
"I  c #EDA92B",
"U  c #FCA423",
"Y  c #F4A926",
"T  c #FDAB25",
"R  c #FDA42C",
"E  c #FFA928",
"W  c #F6A629",
"Q  c #FFB12E",
"!  c #EDAA32",
"~  c #E8A439",
"^  c #FAA435",
"/  c #F2AA34",
"(  c #F9A838",
")  c #FEB534",
"_  c #FBB23C",
"`  c #F8B638",
"'  c #DBA24C",
"]  c #DEB04E",
"[  c #DBAD53",
"{  c #D9AE5B",
"}  c #D9AB56",
"|  c #DCB357",
" . c #E5AB46",
".. c #ECAB44",
"X. c #E4AB4B",
"o. c #EAAA4A",
"O. c #E1A640",
"+. c #FDAF40",
"@. c #F1A94A",
"#. c #E4B14C",
"$. c #F8B543",
"%. c #EBA751",
"&. c #E2AC52",
"*. c #EAAC53",
"=. c #E3AF5B",
"-. c #E4B252",
";. c #CEAB6B",
":. c #D7AC64",
">. c #D5B46F",
",. c #C9AD70",
"<. c #D2AD74",
"1. c #D2AE7A",
"2. c #EFBF6A",
"3. c #E2B961",
"4. c #FFC04B",
"5. c #FEC752",
"6. c #EEC873",
"7. c #F2C970",
"8. c #888F89",
"9. c #868F8A",
"0. c #85908C",
"q. c #9D9D8D",
"w. c #848F94",
"e. c #818997",
"r. c #8E9993",
"t. c #8E979B",
"y. c #8B9C9C",
"u. c #949695",
"i. c #949C95",
"p. c #999B95",
"a. c #94969A",
"s. c #98979F",
"d. c #969C9A",
"f. c #9A9B9B",
"g. c #A19C9C",
"h. c #92A196",
"j. c #9DA196",
"k. c #95A19C",
"l. c #9AA19C",
"z. c #8D97A3",
"x. c #8D9DA2",
"c. c #9397A1",
"v. c #959BA2",
"b. c #9A9CA3",
"n. c #959CAB",
"m. c #939EB1",
"M. c #95A1A2",
"N. c #9AA1A5",
"B. c #9DA3AD",
"V. c #9EA9A9",
"C. c #9EABA4",
"Z. c #A0A8AB",
"A. c #A7A4A8",
"S. c #A6AAB5",
"D. c #DCC99F",
"F. c #E4CC8C",
"G. c #E4C69A",
"H. c #E3CD9E",
"J. c #DFC6A7",
"K. c #DECBA3",
"L. c #DDC6AB",
"P. c #DDCCAE",
"I. c #D5C9B3",
"U. c #DFCBB0",
"Y. c #D4CEBC",
"T. c #E3CAA4",
"R. c #E4C3AB",
"E. c #E2C8A9",
"W. c #E2C9B3",
"Q. c #E4D0B8",
"!. c #F1E1BD",
"~. c #CCCFC5",
"^. c #C4C6CD",
"/. c #CBCCCD",
"(. c #D3CEC5",
"). c #D1CCCF",
"_. c #D2D0C4",
"`. c #C4CCD4",
"'. c #CBCDD3",
"]. c #CCCDDB",
"[. c #D4CCD3",
"{. c #D2CBD9",
"}. c #CBD1D4",
"|. c #CAD1DA",
" X c #C6D4D4",
".X c #D7D4DA",
"XX c #F3D8C1",
"oX c #E9E1CC",
"OX c #ECE4DB",
"+X c #E2E3DD",
"@X c #D5DCE2",
"#X c #E5DBE7",
"$X c #DDE5E6",
"%X c #E5E5E3",
"&X c #E9E4E4",
"*X c #E4E5EA",
"=X c #EAE2EB",
"-X c #E6E3F1",
/* pixels */
"d.d.d.d.d.d.d.d.d.d.d.d.d.d.d.d.d.d.d.d.d.d.d.d.d.d.d.d.d.d.d.d.d.d.d.d.d.d.d.d.d.d.d.d.d.d.d.d.d.d.d.d.d.d.d.d.d.d.d.d.d.d.d.d.",
"d.d.d.d.d.d.d.d.d.d.d.d.d.d.d.d.p.d.d.d.d.d.d.d.d.d.d.d.d.d.d.d.d.d.d.d.d.d.d.d.d.d.d.d.d.d.d.d.d.d.d.d.d.d.d.d.d.d.d.d.d.d.d.d.",
"d.d.d.d.d.d.d.d.d.d.d.d.d.d.p.d.d.d.d.d.d.d.d.d.d.d.d.d.d.d.d.d.d.d.d.d.d.d.p.d.d.d.d.d.d.d.d.d.d.d.d.d.d.d.d.d.d.d.d.d.d.d.d.d.",
"d.d.d.d.d.d.d.d.d.d.d.d.d.d.d.d.d.d.d.d.d.d.d.d.d.d.d.d.d.d.d.d.d.d.d.d.d.d.d.d.d.d.d.d.d.d.d.d.d.d.d.d.d.d.d.d.d.d.d.d.d.d.p.d.",
"d.d.d.d.d.d.d.d.d.d.d.d.d.d.d.d.d.d.d.d.d.d.d.d.d.d.d.d.d.d.d.d.d.d.d.d.d.d.d.d.d.d.d.d.d.d.d.d.p.d.d.d.d.d.p.d.d.d.d.d.d.d.d.d.",
"d.d.d.d.d.d.d.d.d.d.d.d.d.d.d.d.d.d.d.d.d.d.h.d.p.f.d.d.d.d.d.d.d.d.d.d.d.d.d.d.d.d.d.d.d.d.d.d.d.d.l.d.d.d.d.d.d.d.d.d.d.d.d.d.",
"d.d.d.d.d.d.d.p.d.d.d.d.d.d.d.d.d.d.d.d.d.d.d.d.d.d.d.d.d.d.d.d.d.d.d.d.d.d.d.d.d.d.d.d.d.d.d.d.d.d.d.d.d.d.d.d.d.d.d.d.d.d.d.d.",
"d.d.d.d.d.d.d.d.d.d.d.d.d.d.d.d.d.d.d.d.d.d.d.d.l.d.d.d.d.d.d.i.f.d.d.d.d.d.d.d.d.d.d.d.d.d.f.d.d.d.d.d.d.d.d.d.d.d.d.d.d.d.d.d.",
"d.d.d.d.d.d.d.d.d.d.d.d.d.d.d.d.d.d.d.d.d.d.d.d.d.d.d.d.d.d.d.d.p.d.d.d.d.d.d.d.d.d.d.d.d.d.d.d.d.d.d.d.d.d.d.d.d.d.d.d.d.d.d.d.",
"d.d.d.d.d.d.d.d.d.d.d.d.d.d.d.d.d.d.d.d.d.d.d.d.d.d.d.d.d.d.d.d.d.d.d.d.d.d.d.d.d.d.d.d.d.d.d.d.d.d.d.d.d.d.d.d.d.d.d.d.d.d.d.d.",
"d.d.d.d.d.d.d.d.d.d.d.d.d.d.d.d.d.d.d.d.d.d.d.d.d.d.d.d.d.d.d.d.l.d.d.d.d.d.d.d.d.d.d.d.d.d.d.d.d.d.d.d.d.d.p.d.d.p.l.d.d.d.d.d.",
"d.d.d.d.d.d.d.d.p.l.d.d.d.d.d.d.d.d.d.d.d.d.d.d.d.d.d.d.d.d.d.d.d.d.d.d.d.d.d.d.d.d.d.d.d.d.d.d.d.d.d.d.d.d.d.d.d.d.d.d.d.d.d.d.",
"d.d.d.d.d.d.d.p.d.d.d.d.d.d.d.d.d.d.d.d.d.d.d.d.d.d.d.d.d.d.d.d.d.d.d.d.d.d.d.d.d.d.d.d.d.d.d.d.d.d.d.d.d.d.d.d.d.d.d.d.d.d.d.p.",
"d.d.d.d.d.d.d.d.d.d.d.d.d.p.d.d.d.d.d.d.d.d.d.d.d.d.d.d.d.d.d.d.d.d.d.d.d.d.d.d.d.d.d.d.d.d.d.d.l.p.d.d.d.d.d.d.d.d.d.d.d.d.d.d.",
"d.l.d.d.d.d.d.d.d.d.d.d.d.d.d.d.d.d.d.d.d.d.d.d.d.d.d.d.d.f.d.d.d.d.d.d.d.d.d.d.d.d.d.d.d.d.d.d.d.d.d.d.d.d.d.d.d.d.d.d.d.d.d.d.",
"d.p.d.d.d.d.d.d.d.d.d.d.d.d.d.d.d.d.d.k.p.p.d.d.d.c.d.b.c.d.d.b.v.v.d.c.v.v.d.d.f.d.p.p.k.d.d.d.d.d.d.d.d.d.d.d.d.d.d.d.d.d.d.d.",
"d.d.d.d.d.d.d.d.d.d.d.d.d.d.d.d.p.d.x.y.j.q.i.d.- 7 z z 7 4 8 z c z ; : z z - = b.u.q.j.y.v.f.u.d.d.d.d.d.d.d.d.d.d.d.d.d.d.d.d.",
"d.d.d.d.d.d.d.d.d.d.d.d.d.d.d.d.f.M.y.y.q.q.p.a.w k c v z 8 m c Z N z z v Z e w a.d.q.p.y.x.b.f.d.d.d.d.d.d.d.d.d.d.d.d.d.d.d.d.",
"d.d.d.d.d.d.d.d.d.d.d.d.d.d.d.d.d.p.y.k.p.f.v.M.- - g b h - : : : ; > : z z - - n.b.l.p.M.y.d.s.d.d.d.d.d.d.d.d.d.d.d.d.d.d.d.d.",
"d.d.d.d.d.d.d.p.d.d.d.d.d.p.d.d.u.u.k.C.8.t.m.m.w 3 z x m 7 e 7 7 3 - 8 M B t r m.n.a.9.V.d.d.u.f.d.d.d.d.d.d.d.d.d.d.d.d.d.d.d.",
"d.d.d.d.d.d.d.d.d.d.d.d.d.d.d.d.g.g.i.0.y M c z /.~.{.{.].].[.).[.[..X.X#X#X+X%Xz c x A 9.i.d.N.d.d.d.d.d.d.d.d.d.d.d.d.f.d.d.d.",
"d.d.d.d.d.d.d.d.d.d.d.d.d.d.d.d.f.f.f.u.t 7 b 6 I.K.R.R.L.L.J.E.T.T.U.Q.XXXX!.oX8 b 2 r i.l.d.d.p.d.d.d.d.d.d.d.d.d.d.d.p.d.d.d.",
"d.d.d.d.d.d.d.d.d.d.d.d.d.d.d.f.b.s.l.f.7 z x 1 >.-.*.*.-.-.#.#.] ] | 3.7.7.6.F.1 x 7 7 d.l.a.d.d.d.d.d.d.d.d.d.d.d.d.d.d.d.d.d.",
"d.d.d.d.d.d.d.d.d.d.d.d.d.d.d.f.b.a.d.b.h z n O ] I T U Y Y Y W P I ! ` $.4.5.6.O 8 z 7 f.h.a.M.d.d.d.d.d.d.d.d.d.d.d.d.d.d.d.d.",
"d.d.d.d.d.d.d.d.d.d.d.d.d.d.d.d.b.a.f.v.h j n O *.U G U U E R L R ^ ^ E ^ R ! =.s n b z k.d.r.d.d.d.d.d.d.d.d.d.d.d.d.d.d.d.d.d.",
"d.d.d.p.d.d.d.d.d.d.d.d.d.d.d.d.d.u.N.v.j j n s X.W U G F G L R R R U G R E / } a q b g v.j.i.i.k.d.d.d.d.d.d.d.d.d.d.d.l.d.d.d.",
"d.d.d.d.d.d.d.d.d.d.d.d.d.d.d.d.i.d.l.t.m h 9 O { $._ U H F G E T G F T W _ $.{ O 9 : N a.l.i.h.d.d.d.d.d.d.p.d.d.p.d.d.d.d.d.d.",
"d.d.d.d.d.d.d.d.d.d.d.d.d.d.d.d.l.l.i.w.A m 9 # ,.{ ' K ) T W R R G H ) J ' { ,.O 4 x A w.d.k.k.d.p.d.d.d.d.d.d.d.d.d.d.d.d.d.d.",
"d.d.d.d.d.d.d.d.d.p.d.d.d.d.d.p.r.i.l.V.w.z.b.g.# + u f K ( / ( ( ^ ^ K f u i $ g.b.c.e.V.k.r.r.h.d.d.d.d.d.d.d.d.d.d.d.d.d.d.p.",
"d.d.d.d.d.d.d.d.d.d.d.d.d.d.d.i.h.r.a.d.v.M.b.b.r , & s ' $.^ ^ ^ ^ +.' u   , , b.b.b.v.N.a.i.d.d.d.d.d.d.d.d.d.d.d.d.d.d.d.d.d.",
"d.d.d.d.p.d.d.d.d.d.d.d.d.d.d.k.h.k.d.u.h.p.p.c.m B z a &.E G G U W ) &.a 7 N m c.a.d.d.a.d.k.d.d.d.d.d.d.d.d.d.d.d.d.d.d.d.d.d.",
"d.d.l.d.d.d.d.d.d.d.d.d.d.d.d.d.i.k.d.u.j.p.p.v.: B z 1 ;.o.~ $...O.] ;.1 m N : v.p.l.l.a.d.N.a.d.d.d.d.d.d.d.d.d.d.d.d.d.d.d.d.",
"d.d.d.d.d.d.d.p.d.d.d.d.d.d.d.f.d.i.p.p.i.d.d.d.b.b.c.A.o $ + + + + $ o A.s.M.v.d.y.d.d.i.d.d.c.f.d.d.d.d.d.d.d.d.d.d.d.d.d.d.d.",
"d.d.d.d.d.d.d.d.d.p.d.d.d.d.d.d.f.p.i.p.h.k.d.d.f.u.a.Z.7 B c 7 : x B 5 Z.a.i.l.k.v.d.k.h.i.f.b.d.d.d.d.d.d.d.d.d.d.d.d.d.d.d.d.",
"d.d.d.d.d.d.d.d.d.d.d.d.d.d.d.d.d.d.h.h.h.y.d.x.a.t.n.n.5 ; x : z z ; z n.n.t.a.y.d.d.k.i.i.f.d.d.d.d.d.d.d.d.d.d.d.d.d.p.d.d.d.",
"d.d.d.d.d.d.d.d.d.d.d.d.d.d.d.d.k.d.d.i.h.h.k.a.V.B.v.e.D x 7 - ; x M A e.n.B.V.d.k.d.i.i.i.d.f.d.d.d.d.d.d.d.d.d.d.d.d.d.d.d.d.",
"d.d.d.d.d.d.d.d.d.d.d.d.d.d.d.d.d.f.f.d.i.p.d.d.* 2 2 S S.'.`.].|.`.`.S.S 2 2 * f.d.d.p.p.f.f.f.f.d.d.d.d.d.d.d.d.d.d.d.d.d.d.d.",
"d.d.d.d.d.d.d.d.d.d.d.d.d.d.d.d.f.f.f.s.f.p.f.f.r V 2 y '..X/.'.`.`.@X`.M > M 8 d.d.p.p.f.f.p.i.d.d.d.d.d.d.d.d.d.d.d.d.d.d.d.d.",
"d.d.d.d.d.d.d.d.d.d.d.d.d.d.d.d.d.d.c.c.d.d.d.b.6 x 8 7 './.^.].|.^./.`.7 x M 5 v.y.k.k.a.d.k.h.d.d.d.d.d.d.d.d.d.d.d.d.d.d.d.d.",
"d.d.d.d.d.d.d.d.d.d.d.d.d.d.d.d.k.k.v.v.v.f.c.v.7 5 5 9 }./.)././.]./.].9 5 5 8 v.d.d.y.v.x.y.k.d.d.d.d.d.d.d.d.d.d.d.d.d.d.d.d.",
"d.p.d.d.d.d.d.d.d.d.d.d.d.d.d.d.y.d.v.z.e 3 8 3 ].].].'.~.~.~.~.OXOXOXOX&X=X-X-X4 4 4 r v.v.y.a.k.d.d.d.d.d.d.p.d.d.d.d.d.d.d.d.",
"d.d.d.d.d.d.d.d.d.d.d.d.d.d.d.d.d.y.v.c.r 7 8 8 ].`.'./.~./.~.~.OXOXOXOX&X=X=X-X4 8 3 4 z.v.d.d.d.d.d.d.d.d.d.d.d.d.d.l.d.d.d.d.",
"d.d.d.d.d.d.d.l.d.d.d.d.d.d.d.d.f.u.b.c.8 l x z ].].}.}.}.}. X X%X%X&X%X&X&X*X-X8 x 7 x c.b.p.p.d.d.d.d.d.d.d.d.d.d.d.p.d.d.d.d.",
"d.d.d.d.p.d.d.d.d.d.d.d.d.d.d.i.p.p.p.d.z z c z ]./.~./.'.`.`.`.$X*X*X%X&X+X%X*Xl c z x c.d.p.p.p.d.d.d.d.d.d.d.d.d.d.d.d.d.d.d.",
"d.d.d.d.d.d.d.d.d.d.d.d.d.d.d.d.i.i.h.y.z j c c [._._.(.[.].[.'. X'.].).(.Y._./.z c j k x.y.r.h.p.d.d.d.d.d.d.d.d.d.d.d.d.d.d.d.",
"d.d.d.d.d.d.d.d.d.d.d.d.d.d.d.d.i.p.h.y.k j c q I.T.G.G.R.R.L.L.P.P.W.R.T.H.K.Y.4 c j m y.h.i.d.d.d.d.d.d.d.d.d.d.d.d.d.d.d.d.d.",
"d.d.d.d.d.d.d.d.d.d.d.d.d.d.d.d.i.d.k.y.z 6 q s <.&.....@.@..... . .%.%. .X.[ <.@ q b x y.d.d.d.d.d.d.d.d.d.d.d.d.d.d.d.d.d.p.d.",
"d.d.d.d.d.d.d.d.d.d.d.d.d.d.d.d.d.d.v.y.8 6 0 @ 1.{ o.o.%.%.o...o.*.*.=.o.&.:.1.p 0 6 x d.d.c.f.f.d.d.d.d.d.d.d.d.d.d.d.d.d.d.d.",
"d.d.d.d.l.d.d.d.d.d.d.d.d.d.d.d.d.d.d.v.v.v.b.g.< # $ O 1 p @ @ @ @ @ 1 O $ # < s.b.b.v.d.d.f.d.d.d.d.d.d.d.d.d.d.d.i.d.d.d.d.d.",
"d.d.d.d.p.d.d.d.d.d.d.d.d.d.d.p.d.d.d.d.v.v.v.v.8 6 x z x x b x x x l x x x 7 8 b.b.c.c.d.d.d.d.d.d.d.d.d.d.d.d.d.d.d.d.d.d.d.d.",
"d.d.d.d.d.d.d.d.d.d.d.d.d.d.d.d.d.d.d.f.f.v.v.b.3 4 3 5 7 7 l 7 7 7 8 7 7 5 3 3 v.b.v.d.v.d.d.d.d.d.d.d.d.d.d.d.d.d.l.d.d.d.d.d.",
"d.p.d.d.d.d.d.d.d.d.d.d.d.d.d.d.i.d.d.d.d.v.d.c.4 r 8 4 8 8 8 8 8 x 8 8 r 4 4 r c.c.f.d.d.d.d.i.d.d.d.d.d.d.d.p.d.d.d.d.d.d.d.d.",
"d.d.d.d.d.d.d.d.d.d.d.d.d.d.d.d.i.p.h.i.i.d.d.v.a.a.a.v.v.z.v.c.c.c.c.c.v.a.a.a.f.d.d.d.i.p.h.d.d.d.d.d.d.d.d.d.d.d.d.d.d.d.d.d.",
"d.d.d.d.d.d.d.d.d.d.d.d.d.d.d.d.d.i.p.d.d.d.d.d.f.v.d.v.b.c.v.v.b.b.c.c.d.v.v.M.d.d.d.d.p.h.p.d.d.d.d.d.d.d.d.d.d.d.d.d.d.d.d.d.",
"d.d.d.d.d.d.d.d.d.d.d.d.d.d.d.d.p.d.i.d.d.i.i.d.d.d.d.d.d.d.d.d.d.d.d.d.a.d.d.d.d.d.d.i.p.d.d.p.d.d.d.d.d.d.d.d.p.d.d.d.d.d.d.d.",
"d.d.d.d.d.d.d.d.d.d.d.d.d.d.d.d.d.i.d.d.p.d.a.p.d.d.a.d.d.i.a.d.d.d.d.d.p.d.d.d.i.d.p.d.d.d.i.d.d.d.d.d.d.d.d.d.d.d.d.d.d.d.d.d."
};
