/* XPM */
static char *_2333_9a3c2d3480cbc3219ded7e072664dd905305aeb03625b21b24e9c42c27ca8a02[] = {
/* columns rows colors chars-per-pixel */
"64 56 199 2 ",
"   c #3E290E",
".  c #282214",
"X  c #3C271B",
"o  c #3A2A1D",
"O  c #382716",
"+  c #2F1B21",
"@  c #221F35",
"#  c #1E222B",
"$  c #1E2533",
"%  c #1E2A3A",
"&  c #1F283B",
"*  c #2D2A23",
"=  c #25242F",
"-  c #2B2A2D",
";  c #28272D",
":  c #3B2720",
">  c #352923",
",  c #3C2A21",
"<  c #302B2F",
"1  c #382C2C",
"2  c #232434",
"3  c #2D2537",
"4  c #242B35",
"5  c #2B2C35",
"6  c #24253B",
"7  c #2B253C",
"8  c #242B3C",
"9  c #2A2C3C",
"0  c #31283B",
"q  c #312538",
"w  c #2A323C",
"e  c #24303C",
"r  c #30323E",
"t  c #4C2A0F",
"y  c #412615",
"u  c #442A1D",
"i  c #45281A",
"p  c #5C3B15",
"a  c #402921",
"s  c #1F2B45",
"d  c #1D2742",
"f  c #242644",
"g  c #242C44",
"h  c #2A2C43",
"j  c #23274C",
"k  c #22294A",
"l  c #292D4C",
"z  c #292641",
"x  c #332F46",
"c  c #312D4E",
"v  c #213045",
"b  c #2C3244",
"n  c #223049",
"m  c #2A304A",
"M  c #313244",
"N  c #36394A",
"B  c #2A2D50",
"V  c #364041",
"C  c #434756",
"Z  c #484456",
"A  c #FDA41D",
"S  c #FCAB19",
"D  c #FCA424",
"F  c #F5AB24",
"G  c #FCAA23",
"H  c #F5A72B",
"J  c #FBA62B",
"K  c #F2AC29",
"L  c #FBA92B",
"P  c #ECA839",
"I  c #F4AD31",
"U  c #F6A637",
"Y  c #F2B33D",
"T  c #F3B337",
"R  c #BE9F73",
"E  c #BCA071",
"W  c #C79A49",
"Q  c #D3A54F",
"!  c #DCAB54",
"~  c #DCAD5D",
"^  c #D3A550",
"/  c #EDA74C",
"(  c #EAAF4C",
")  c #E3A642",
"_  c #F2A848",
"`  c #E7B04D",
"'  c #E4A954",
"]  c #E9AB51",
"[  c #EAA65A",
"{  c #E4AB5A",
"}  c #E2B65F",
"|  c #CAAA6D",
" . c #D5AC6E",
".. c #D7B077",
"X. c #D6AB76",
"o. c #E2B560",
"O. c #FFC44E",
"+. c #FCC454",
"@. c #FAC459",
"#. c #F3C469",
"$. c #E4C076",
"%. c #ECC473",
"&. c #EAC47C",
"*. c #878F8D",
"=. c #86908A",
"-. c #859187",
";. c #969E8F",
":. c #858695",
">. c #898B9E",
",. c #868E90",
"<. c #8E9994",
"1. c #8E969B",
"2. c #8F999D",
"3. c #8E9794",
"4. c #939794",
"5. c #959C95",
"6. c #999C96",
"7. c #95979C",
"8. c #9A959C",
"9. c #969C9A",
"0. c #9A9C9C",
"q. c #989697",
"w. c #94A194",
"e. c #9BA197",
"r. c #95A19B",
"t. c #9CA19C",
"y. c #BEA98D",
"u. c #BEB29C",
"i. c #8E9AA2",
"p. c #8F99A5",
"a. c #9396A1",
"s. c #959BA3",
"d. c #999DA2",
"f. c #959CA9",
"g. c #9A9DAA",
"h. c #94A0A1",
"j. c #9CA1A3",
"k. c #9BA2AB",
"l. c #9FA0B2",
"z. c #A6A5A3",
"x. c #A0A9A4",
"c. c #A1A6AD",
"v. c #B6B0A2",
"b. c #A6A7B6",
"n. c #E3BF8B",
"m. c #DDC59C",
"M. c #E4C384",
"N. c #E3C088",
"B. c #ECC794",
"V. c #E6CC94",
"C. c #DFCFAE",
"Z. c #CFCABB",
"A. c #CFC8B8",
"S. c #DDCEB5",
"D. c #D1CDBF",
"F. c #DECEBC",
"G. c #D6C7BC",
"H. c #DCD1BB",
"J. c #DBD0B2",
"K. c #E5C6A7",
"L. c #E2C7AB",
"P. c #E2C8A5",
"I. c #E1CFB6",
"U. c #FBE4BD",
"Y. c #BDCACB",
"T. c #BECEDB",
"R. c #CCCCC6",
"E. c #C7CBCE",
"W. c #CCCCCC",
"Q. c #D3CBC3",
"!. c #D2CCCC",
"~. c #CAD1CD",
"^. c #C4D0CC",
"/. c #C4CCD3",
"(. c #CBCCD3",
"). c #CACDDA",
"_. c #C7CAD9",
"`. c #D0CED1",
"'. c #C5D3D4",
"]. c #CBD2D2",
"[. c #C3D1DD",
"{. c #D3D1DA",
"}. c #D9D5DC",
"|. c #DDDBDE",
" X c #D2D1D7",
".X c #E2D2C4",
"XX c #E4DEDE",
"oX c #F7E4C5",
"OX c #F8E4C2",
"+X c #ECE3DA",
"@X c #E5E1DE",
"#X c #F1E4D4",
"$X c #DADCE2",
"%X c #D5DCE6",
"&X c #E3DFE0",
"*X c #E6E5E1",
"=X c #EAE4E2",
"-X c #E6E8E5",
";X c #E9E8E8",
/* pixels */
"9.9.9.9.9.9.9.9.9.9.9.9.9.9.9.9.9.9.9.9.9.9.9.9.9.9.9.9.0.9.9.9.9.9.9.9.9.0.9.9.9.9.9.9.9.9.9.9.6.9.9.9.9.9.9.9.9.9.9.9.9.9.9.9.",
"9.9.9.9.9.9.9.9.9.9.9.9.9.9.9.9.9.9.9.9.9.9.9.9.9.5.9.9.9.9.9.9.9.9.5.9.9.9.9.9.9.9.9.9.9.9.9.9.9.9.9.9.9.9.9.9.9.9.9.9.9.9.9.9.",
"9.9.9.9.9.9.9.9.9.9.9.6.9.9.9.9.9.5.9.9.9.9.9.9.0.9.9.9.9.9.5.9.9.9.9.9.9.9.9.9.9.9.9.9.9.9.9.9.9.9.9.9.9.9.9.9.9.9.9.9.9.9.9.9.",
"9.9.9.9.9.9.9.9.9.9.9.9.9.9.9.9.9.9.9.9.0.9.9.9.9.9.9.9.9.9.9.9.9.9.9.9.9.9.9.9.9.9.9.9.9.9.9.9.9.9.9.9.9.9.9.9.9.9.9.9.6.9.9.9.",
"9.9.9.9.9.9.9.9.9.9.9.9.9.9.9.9.9.9.0.9.9.9.9.9.9.9.9.9.9.0.9.9.9.9.9.9.9.9.9.9.9.9.9.9.9.9.9.9.9.9.9.9.9.9.9.9.9.9.9.9.9.9.9.9.",
"9.9.9.9.9.9.9.9.9.9.9.9.9.9.9.9.9.9.9.9.9.9.9.9.9.r.9.9.9.9.9.9.9.9.9.9.9.9.5.9.9.9.6.9.9.9.9.9.9.9.9.9.9.6.e.9.9.9.9.9.9.9.9.9.",
"9.9.9.9.9.9.9.9.9.9.9.9.6.9.9.9.9.9.9.9.9.5.9.0.9.9.5.9.9.9.9.9.9.9.9.9.9.9.9.9.9.9.9.9.9.9.9.9.9.9.9.9.9.9.9.9.9.9.9.9.9.9.9.9.",
"9.9.9.9.9.9.6.9.9.9.9.9.9.9.9.9.9.9.9.9.9.9.9.9.9.9.9.9.9.9.9.9.9.9.9.9.9.0.9.9.9.9.9.9.9.9.9.9.9.9.9.9.9.9.9.9.9.9.9.9.9.9.9.9.",
"e.9.9.9.9.9.9.6.9.9.9.9.6.9.9.9.0.9.9.9.9.9.9.9.0.9.9.9.9.9.9.9.9.9.9.0.9.9.9.9.9.9.9.9.9.6.9.9.9.9.9.9.9.e.9.9.9.9.9.9.9.9.9.9.",
"9.9.9.9.9.9.9.9.9.9.9.9.9.9.9.9.9.9.9.9.9.5.9.9.5.9.9.9.9.9.9.9.9.5.9.9.9.9.9.9.9.9.9.9.9.9.9.9.9.9.9.9.9.9.9.9.9.6.9.9.9.9.9.9.",
"9.9.9.9.9.9.9.9.9.9.9.9.9.9.9.9.9.9.9.9.9.9.9.9.9.9.9.9.9.9.9.9.9.9.9.9.9.9.9.9.9.9.9.9.9.9.9.9.9.9.9.9.9.9.9.9.9.9.9.9.9.9.9.9.",
"9.9.9.9.9.9.9.9.9.9.9.9.9.9.9.9.9.9.9.9.9.9.9.9.9.9.9.9.9.9.5.0.9.9.9.9.9.9.9.9.9.9.9.9.9.9.9.9.9.9.9.9.9.9.9.9.9.9.9.9.9.9.9.9.",
"9.9.9.9.9.9.9.9.9.9.9.9.9.9.9.9.9.9.9.9.9.5.9.9.9.9.9.9.9.9.9.9.9.9.9.9.9.9.9.9.9.9.9.9.9.9.9.9.9.9.9.9.9.9.9.9.9.9.9.9.9.9.6.9.",
"9.9.9.9.9.9.9.9.9.9.9.9.9.9.9.9.9.5.9.9.9.9.9.9.9.9.9.9.9.9.9.9.9.9.9.9.9.9.9.9.9.9.9.9.9.9.9.9.9.9.9.9.9.9.9.9.9.9.9.9.9.9.9.9.",
"9.9.9.9.9.9.9.9.9.9.9.6.9.9.9.9.r.0.9.9.9.0.9.9.9.5.9.9.5.9.9.9.9.9.9.9.9.9.9.r.9.9.9.9.9.9.9.9.9.9.9.9.9.6.9.9.9.9.9.9.9.9.9.9.",
"9.9.9.9.9.9.9.9.9.9.9.9.9.9.9.9.2.9.9.9.0.5.9.9.s.r.s.s.s.0.s.0.s.r.i.s.r.9.s.2.9.9.9.9.9.9.9.9.9.9.9.9.9.9.9.9.9.9.9.9.9.9.9.9.",
"9.9.9.9.9.9.9.9.9.9.9.9.9.9.9.5.2.r.9.1.t.6.6.d.4 4 e % 8 g f 8 w 8 % % 8 8 % $ d.q.0.t.7.5.r.2.9.9.6.9.9.9.9.9.9.9.9.9.9.9.9.9.",
"9.9.9.9.9.6.9.9.9.9.9.9.9.9.9.9.r.s.7.7.9.6.q.7.e g g v g g h h m g g g v v v 8 0.0.0.9.5.2.r.r.9.9.9.9.9.9.9.9.9.9.9.9.9.9.6.9.",
"9.9.9.9.9.9.9.9.9.9.9.9.9.9.9.9.5.5.2.t.6.d.g.f.8 8 8 f h f z z 7 6 f f f g 8 8 f.d.t.9.0.<.2.5.r.9.9.9.9.9.9.9.9.9.9.9.9.9.9.9.",
"9.9.9.9.9.9.9.9.6.9.9.9.9.9.9.9.<.2.w.x.,.1.f.g.h w h h h h x 0 7 9 7 h M M M r g.f.2.,.j.r.5.<.9.9.9.9.6.9.9.9.9.9.9.9.9.9.9.9.",
"9.9.9.6.9.9.9.9.9.9.9.9.9.9.9.9.e.e.;.-.V w 8 4 E.E.E./.(./.E.E.(.(.(.{.}.$X$X$X4 4 w V =.5.r.t.9.9.9.9.9.9.9.9.6.9.9.9.9.9.9.9.",
"9.9.9.9.9.9.9.9.9.9.9.9.9.9.9.9.0.6.e.4.e % % 8 '.~.W.].(.].~.~.]. X X|.&X*X-X-X4 8 4 e <.e.9.0.9.9.9.9.9.9.9.9.9.9.9.9.9.9.9.9.",
"9.9.9.9.9.9.9.9.9.9.9.9.9.9.9.0.8.q.0.g.k s B n (.R.R.W.E./././././.(.{.XXXX*X-Xg l s g i.h.7.0.9.9.9.9.9.9.9.9.9.9.9.9.9.9.9.9.",
"9.9.9.9.9.9.9.9.9.9.9.9.9.9.9.0.d.8.0.g.k j B 8 W.R.W.W.W.(.'././.(.(.}.@X=X;X;Xf B j s k.0.7.s.0.9.9.9.9.9.9.9.9.9.9.9.9.9.9.9.",
"9.9.9.9.6.9.9.9.9.9.9.9.9.9.9.9.d.q.6.d.f j l 9 !.Z.Z.Q.Q.!.~.(.E.W.!.Q.Q.D.D.!.9 l j s f.9.5.0.9.9.9.9.9.9.9.9.9.9.9.9.9.9.9.9.",
"9.9.9.9.9.9.9.9.9.9.9.9.9.9.9.9.8.q.0.0.h h h 5 D.H.H.S.I.S.H..X.XS.C.I.F.F.H.Q.0 h f h s.w.<.w.6.9.9.9.9.9.9.9.9.9.9.9.9.9.9.9.",
"9.9.9.9.9.9.9.9.9.9.9.9.9.9.9.9.9.9.e.4.r 6 - * A.J.C.m.V.M.n.B.B.n.M.V.m.C.S.D.* 9 6 h <.w.w.r.r.9.6.9.9.9.9.9.9.9.9.9.9.9.9.9.",
"9.9.9.9.9.9.9.9.9.9.9.9.9.9.9.9.j.e.6.*.N b - * u.u.y.E ..o.{ [ [ ! } ..E y.u.v.* 5 w N =.w.w.r.9.9.9.9.9.9.9.9.9.9.9.9.9.6.9.9.",
"9.9.9.9.9.9.9.9.9.9.9.9.9.9.9.0.7.i.h.c.>.a.0.0.- 1 u p W ) P _ _ P ) W p a 1 < 0.g.a.>.k.h.2.2.9.9.9.9.9.9.9.9.9.9.9.9.9.9.9.9.",
"9.9.9.9.9.9.9.9.9.9.9.9.9.9.9.0.a.a.7.d.f.g.f.9.9 3 + t Q _ J D D H Y ^ t + 3 7 d.s.g.f.j.7.i.s.9.9.9.9.9.9.9.9.9.9.9.9.9.9.9.9.",
"9.6.9.9.9.9.9.9.9.9.9.9.9.9.9.9.r.r.6.4.d.d.7.2.m B 3 u ! T S S A A T ! u q c m 2.5.0.0.6.5.r.s.0.9.9.9.9.9.9.9.9.9.9.9.9.9.9.9.",
"9.9.9.9.9.9.9.9.9.e.9.9.9.9.9.6.5.9.5.4.d.0.5.h.d l 7 , | ! ) _ _ ) ! | , 7 l 8 h.5.0.0.4.6.r.7.5.9.9.9.9.9.9.9.6.9.9.9.9.9.9.9.",
"9.9.9.9.9.9.0.9.9.9.5.9.9.9.9.9.6.6.6.9.s.0.5.6.f.g.7.z.. , O X X O o . x.a.k.h.9.5.9.s.9.9.6.5.5.9.9.9.9.9.9.9.9.9.9.9.9.9.9.9.",
"9.9.9.9.9.9.9.9.9.9.9.0.9.9.9.5.6.5.6.9.s.0.;.;.j.a.3.j.2 x l f d l b $ k.5.2.r.5.0.0.9.9.9.9.6.9.9.9.9.9.9.9.9.9.9.9.9.9.9.9.9.",
"9.9.9.9.5.9.9.9.9.9.9.9.9.9.9.5.5.w.w.<.9.9.;.5.i.p.d.d.6 6 z f f h 2 2 f.g.1.7.9.5.9.0.9.9.5.5.9.9.9.9.9.9.9.0.9.9.9.0.9.9.9.9.",
"9.9.9.9.9.9.9.9.9.9.9.9.9.9.9.9.r.2.r.5.5.9.5.6.c.l.d.:.Z x 7 3 6 7 h Z :.g.k.c.0.5.6.5.9.5.s.r.9.9.9.9.9.9.9.5.9.9.9.5.9.9.9.9.",
"0.9.9.9.9.9.9.9.9.9.9.9.9.9.9.9.s.a.d.0.0.d.0.8.@ 3 2 Z b.).!.`.(./._.b.V $ 2 # 0.7.5.5.9.r.s.s.9.9.9.9.9.9.9.9.9.9.9.9.9.9.9.5.",
"9.9.9.5.9.9.9.9.9.9.9.9.9.9.9.0.s.f.0.q.0.s.0.0.7 M = r ).%XW.W.W./.%X_.N & M w f.p.0.5.9.5.s.a.9.9.9.9.9.9.9.9.9.9.9.9.9.9.9.0.",
"9.9.9.9.9.9.9.5.9.0.9.9.9.9.r.9.5.5.6.5.r.2.h.h.4 w 4 8 T.T.Y.'.].Y./.[.8 9 h 4 f.p.s.9.9.7.s.9.0.0.9.9.9.9.9.9.9.9.9.9.9.9.9.9.",
"9.9.9.9.9.9.9.9.9.9.9.9.9.9.9.2.w.5.;.5.h.i.p.i.4 4 4 $ [.[.'.E.W.~.].).; ; ; 5 f.f.f.s.0.9.9.0.9.5.9.9.9.9.9.9.5.9.9.9.9.9.9.9.",
"9.9.9.9.9.9.9.9.9.9.9.9.9.9.9.9.9.9.0.7.g g j h (.!.!.`.(.(.(.Q.+X+X*X*X#X+X+X;X9 g 8 w 7.9.6.r.9.9.9.9.9.9.9.9.0.9.9.9.9.9.9.9.",
"9.9.9.9.5.9.9.9.9.9.9.9.9.9.9.9.2.7.d.a.n g l 7 F.L.K.K.L.L.K.P.U.OXoXoXU.U.OX#X3 g f g 2.6.5.<.9.9.9.9.9.9.9.9.9.9.9.9.9.9.9.9.",
"9.9.9.9.0.r.9.9.9.9.9.0.9.0.9.9.5.9.0.8.9 9 0 X ..{ ( ( ] ( ( ` %.%.&.&.%.%.M.m.> 8 g v 2.6.<.w.9.9.9.9.9.9.9.9.9.9.9.9.9.9.9.9.",
"9.9.0.9.9.9.9.9.9.9.9.9.r.5.9.9.5.5.0.a.9 3 q y ' P H G D F F F O.@.@.@.O.O.#.M.o 9 g g 2.r.r.<.9.9.5.0.9.9.9.9.9.9.9.9.9.9.0.5.",
"9.9.9.9.9.9.9.9.5.9.9.9.9.9.9.9.h.h.s.p.g g 7 i { I G D G F G F F F K K S F P ~   9 s v i.r.2.r.h.5.9.9.9.9.9.9.9.9.9.5.9.9.9.9.",
"9.9.9.0.9.9.5.9.9.9.9.9.9.9.0.5.2.i.s.p.n s 7 X ! K A A A D A D F S L G S S K {   5 s n i.5.5.2.2.6.9.9.5.0.9.9.9.9.9.0.9.9.9.9.",
"9.9.9.9.9.9.9.9.9.9.9.9.9.9.9.6.5.5.0.i.g s x y ' L D D L L L L L L J J A A I {   9 s n 2.w.9.5.0.5.9.9.9.r.9.9.9.9.9.9.9.9.9.9.",
"9.9.9.9.9.9.9.9.9.9.9.9.9.9.9.6.4.;.6.7.e 8 9 X  .] / / ] ' ' ' ' [ [ [ _ / [ X.: 9 % v 2.9.9.6.9.9.9.9.9.9.9.9.9.9.9.9.9.9.9.9.",
"9.9.9.9.9.9.9.9.0.9.9.9.9.9.9.9.9.0.9.9.s.s.f.8.o o X X X : : : : : : X X X X > 9.s.f.i.s.5.9.9.9.9.9.9.9.9.9.9.9.9.9.9.9.9.9.9.",
"5.9.9.9.9.9.9.9.9.9.9.9.5.9.9.9.9.9.9.s.9.a.s.f.9 8 h 9 h h h h h h h h h h 9 9 d.s.s.0.9.0.9.9.9.9.9.9.9.9.9.9.0.9.9.9.9.9.9.9.",
"9.0.9.9.5.9.9.9.9.9.9.9.9.9.9.0.9.9.0.5.9.9.s.s.5 4 8 8 8 6 8 8 6 8 8 6 8 5 4 4 f.0.9.9.5.9.9.9.9.9.9.9.9.9.9.9.5.9.9.9.9.5.9.9.",
"9.9.9.9.9.9.9.9.9.9.9.9.9.9.9.9.9.9.9.5.5.0.s.9.5 9 5 9 9 9 9 w 9 9 9 9 9 9 9 e a.0.9.9.9.9.9.9.9.9.9.9.9.9.9.9.9.9.9.9.9.0.9.9.",
"9.9.9.9.9.9.9.9.9.9.9.9.9.9.9.9.9.9.5.6.9.9.0.a.7.7.a.a.a.a.7.2.a.a.a.a.7.a.7.7.0.0.5.5.5.5.9.9.9.9.9.9.9.9.9.9.9.9.5.0.9.9.9.9.",
"9.9.9.5.9.9.9.9.9.9.9.9.9.9.r.9.5.9.9.9.w.5.5.9.0.s.0.s.s.0.s.s.d.0.0.s.s.s.s.r.5.9.9.5.6.5.9.9.9.9.9.9.9.9.9.9.9.9.9.9.9.9.9.9.",
"9.9.9.9.9.9.9.9.9.9.9.9.9.9.5.9.9.5.6.w.6.5.9.9.5.7.9.s.9.9.9.5.9.9.9.9.s.9.9.5.5.6.6.5.6.5.5.9.9.0.r.9.9.9.9.9.9.9.9.9.9.9.9.9.",
"9.9.9.9.9.0.9.9.9.9.9.9.9.9.0.9.0.5.5.5.6.9.5.9.9.9.9.2.9.5.9.7.5.5.7.9.7.9.9.7.5.9.r.5.9.r.9.9.9.9.5.9.9.9.0.5.9.9.9.9.9.9.9.9."
};
