/* XPM */
static char *_0081_3c5ca748ab97c08d1a743bda2f3ade06346f4c5b197c7ba8d12cdf3002c48a4f[] = {
/* columns rows colors chars-per-pixel */
"64 56 188 2 ",
"   c #151D28",
".  c #1D1C2E",
"X  c #2A1C2E",
"o  c #321529",
"O  c #341A32",
"+  c #3B1C30",
"@  c #1D242C",
"#  c #162528",
"$  c #1D2632",
"%  c #1C2E36",
"&  c #1E293B",
"*  c #222535",
"=  c #252B36",
"-  c #292D37",
";  c #25263D",
":  c #29273C",
">  c #252A3B",
",  c #2B2D3C",
"<  c #342633",
"1  c #3C2235",
"2  c #3C2139",
"3  c #342A3B",
"4  c #3F2C3C",
"5  c #302833",
"6  c #24313B",
"7  c #2B323C",
"8  c #33313F",
"9  c #480E1E",
"0  c #471628",
"q  c #421F34",
"w  c #401F3A",
"e  c #402035",
"r  c #402038",
"t  c #412B39",
"y  c #572132",
"u  c #1D2B44",
"i  c #242C43",
"p  c #2A2B43",
"a  c #262C49",
"s  c #282E4B",
"d  c #382A41",
"f  c #223042",
"g  c #2C3341",
"h  c #2D3049",
"j  c #343443",
"k  c #373E46",
"l  c #333448",
"z  c #393A48",
"x  c #412440",
"c  c #7B334A",
"v  c #783848",
"b  c #773646",
"n  c #743F55",
"m  c #3B4E58",
"M  c #49424E",
"N  c #41484E",
"B  c #434956",
"V  c #7F495E",
"C  c #9F232E",
"Z  c #852B3D",
"A  c #892636",
"S  c #9D2331",
"D  c #9D2933",
"F  c #912D3E",
"G  c #9B2A39",
"H  c #9B2A38",
"J  c #89313F",
"K  c #A4252C",
"L  c #AB232E",
"P  c #AB282E",
"I  c #B1202F",
"U  c #A52533",
"Y  c #AA2433",
"T  c #A52934",
"R  c #A82933",
"E  c #A22638",
"W  c #AA273A",
"Q  c #A6283E",
"!  c #832E46",
"~  c #8E2D43",
"^  c #912C41",
"/  c #843343",
"(  c #8A3144",
")  c #873B40",
"_  c #8C3F47",
"`  c #92344B",
"'  c #883F53",
"]  c #913750",
"[  c #CE3D46",
"{  c #CD3C4B",
"}  c #C73E4E",
"|  c #D13C4D",
" . c #CC3D52",
".. c #D03B51",
"X. c #884149",
"o. c #884859",
"O. c #AC495D",
"+. c #BA495E",
"@. c #9D556B",
"#. c #AC4D64",
"$. c #B34C61",
"%. c #B35065",
"&. c #C44454",
"*. c #C1445B",
"=. c #CD4559",
"-. c #D54351",
";. c #D94152",
":. c #7F909A",
">. c #868E91",
",. c #888D91",
"<. c #818F98",
"1. c #8E9995",
"2. c #8F969C",
"3. c #8E9B9A",
"4. c #819190",
"5. c #949594",
"6. c #959C96",
"7. c #999A96",
"8. c #95969C",
"9. c #969C9A",
"0. c #9A9B9B",
"q. c #989698",
"w. c #8CA09D",
"e. c #95A19C",
"r. c #9CA19C",
"t. c #96A097",
"y. c #8F9BA1",
"u. c #9397A0",
"i. c #9D97A5",
"p. c #959CA2",
"a. c #9A9DA3",
"s. c #959FA8",
"d. c #9A9CA9",
"f. c #8DA0A2",
"g. c #95A2A3",
"h. c #9AA2A2",
"j. c #90A1A9",
"k. c #98A7AB",
"l. c #9FAAAA",
"z. c #9AA4B0",
"x. c #A2A9AC",
"c. c #A2A6A7",
"v. c #B0B1B5",
"b. c #B2BCBE",
"n. c #C9AFBC",
"m. c #C6B0BC",
"M. c #DCB6BA",
"N. c #DDB5B6",
"B. c #DCBEC8",
"V. c #E1BBC8",
"C. c #BDC3C6",
"Z. c #BEC3CD",
"A. c #BBC8CE",
"S. c #CCC5C5",
"D. c #CAC4CA",
"F. c #C5CBCE",
"G. c #CBCCCC",
"H. c #C8C8C8",
"J. c #D3C4C4",
"K. c #D3CCCD",
"L. c #CAD0CE",
"P. c #C5CCD4",
"I. c #CACBD3",
"U. c #C7CFDA",
"Y. c #CBCBD5",
"T. c #D7CCD2",
"R. c #DACED1",
"E. c #D0CCDA",
"W. c #C6D1D3",
"Q. c #CCD3D5",
"!. c #CDD4DC",
"~. c #D3D1D2",
"^. c #D5D3DA",
"/. c #D8D4DA",
"(. c #D6DBDB",
"). c #DBD8D5",
"_. c #EEC5CB",
"`. c #F3C4CA",
"'. c #EDCDD5",
"]. c #E4DFDC",
"[. c #DDDBE5",
"{. c #DFE9EA",
"}. c #E2E2E3",
"|. c #E5E5EA",
" X c #E7E8E9",
".X c #EAE9F1",
"XX c #E6E6F0",
"oX c #F0E6F1",
/* pixels */
"9.9.9.9.9.7.9.9.9.9.9.9.9.9.9.9.9.9.9.9.9.9.9.9.9.9.9.9.9.9.9.9.9.9.9.9.0.9.9.9.9.9.9.9.9.9.9.9.7.9.9.9.9.9.9.9.9.9.0.7.t.9.9.9.",
"9.9.9.9.9.9.9.9.9.9.9.9.9.9.9.9.9.9.9.9.9.9.9.9.9.9.9.9.9.9.9.9.9.9.9.9.9.9.9.9.9.9.9.9.9.9.9.9.t.9.9.9.9.9.9.9.9.9.9.9.9.9.9.9.",
"9.9.9.9.9.9.9.9.9.9.9.9.9.9.9.9.9.9.9.9.9.9.9.9.9.9.9.9.9.9.9.9.9.9.9.9.9.9.9.9.9.9.9.9.9.9.9.0.9.9.9.9.9.9.9.9.9.9.9.9.9.9.9.9.",
"9.9.9.9.9.9.9.9.9.9.9.9.9.9.9.9.9.9.9.9.9.9.9.7.9.9.9.9.9.9.9.9.9.9.9.9.9.9.9.9.9.9.9.9.9.9.9.9.9.9.9.9.9.9.9.0.9.9.9.9.9.9.9.9.",
"9.9.9.9.9.9.9.9.9.9.9.9.0.7.9.9.9.9.9.9.9.7.9.9.9.9.9.9.9.9.9.9.9.9.9.9.9.9.9.9.9.9.9.9.9.9.9.9.9.9.9.9.9.9.9.9.9.9.9.9.9.9.9.9.",
"9.9.9.9.9.9.9.9.9.9.9.9.9.9.9.9.9.9.9.9.9.9.9.9.9.9.9.0.t.7.9.9.9.9.9.9.9.9.9.9.9.9.9.9.9.9.9.9.9.9.9.9.9.9.9.9.9.9.9.9.9.9.9.9.",
"9.9.9.9.9.9.9.9.9.9.9.9.9.9.9.9.9.9.9.9.9.9.9.9.9.9.9.9.9.9.9.9.9.9.9.9.0.9.9.9.9.7.9.9.9.9.9.9.9.9.9.9.9.9.9.9.9.9.9.9.9.9.9.9.",
"9.9.9.9.9.9.9.9.9.9.9.9.9.9.9.9.9.9.9.9.9.9.9.9.9.9.9.9.9.9.9.9.9.9.9.t.7.9.9.9.9.9.9.9.9.9.9.9.9.9.9.9.9.9.9.9.9.9.9.9.9.9.9.9.",
"9.9.9.9.7.9.9.9.9.9.9.9.9.0.7.t.9.9.9.9.9.9.9.9.9.9.9.9.9.9.9.9.9.9.9.9.9.9.9.9.9.9.9.9.9.9.9.9.9.9.9.9.9.7.9.9.9.9.9.9.9.7.9.9.",
"9.9.9.9.9.9.9.9.9.9.9.9.9.9.9.9.9.9.9.9.9.9.9.9.9.9.9.9.9.9.9.9.9.9.9.9.9.9.9.9.9.9.9.9.9.9.9.9.9.9.9.9.9.9.9.0.9.0.9.9.9.9.9.9.",
"9.9.9.9.9.9.9.9.9.9.9.9.9.9.9.9.9.9.9.9.9.9.9.9.9.9.9.9.9.9.9.9.9.9.9.9.9.9.9.9.7.9.9.9.9.9.9.9.9.9.9.9.9.9.9.9.9.9.9.9.9.9.9.9.",
"9.9.9.9.9.9.9.9.9.9.9.9.9.9.9.9.9.9.9.9.9.9.9.9.9.9.9.9.9.9.9.9.9.9.9.9.9.9.9.9.9.9.9.9.9.9.9.9.9.9.9.9.9.9.9.9.9.9.9.9.9.9.9.9.",
"9.9.9.9.9.9.9.9.9.9.9.9.9.9.9.9.9.9.9.9.9.9.9.9.9.9.9.9.9.9.9.9.9.9.9.9.9.9.9.9.9.9.9.9.9.9.9.9.9.9.9.9.9.9.9.9.9.9.t.0.9.9.9.9.",
"9.9.9.9.9.9.9.9.9.9.9.9.9.9.9.9.9.9.9.9.9.9.9.9.9.9.9.9.9.9.9.9.9.9.9.9.9.9.9.9.9.9.9.9.9.9.9.9.9.9.9.9.9.9.9.9.9.9.9.9.9.9.9.9.",
"9.9.9.9.9.0.9.9.9.9.9.9.9.9.9.9.9.9.9.9.9.9.9.9.9.7.9.9.7.7.7.0.9.9.9.9.9.9.9.9.9.9.9.9.9.9.9.9.9.9.9.9.9.9.9.9.9.9.9.9.9.9.9.9.",
"9.9.9.0.9.9.9.9.9.9.9.9.9.9.9.9.9.9.6.9.6.9.9.9.p.p.p.p.p.p.p.0.0.p.p.p.p.9.p.p.9.9.9.6.9.7.9.9.9.9.9.9.9.9.9.9.9.9.9.9.9.9.9.9.",
"9.9.9.9.9.9.9.9.9.9.9.9.9.9.9.9.7.9.6.1.t.7.9.g.> > i i i > > > 7 > & ; u i & $ j.9.t.t.5.7.9.6.0.9.9.9.9.9.9.9.9.9.9.7.9.9.9.9.",
"7.9.9.9.9.9.9.9.9.9.9.9.9.9.9.9.r.0.6.6.t.7.8.y.> p a a a a p , g p i a s s a > 2.3.9.t.6.6.0.9.7.9.9.9.9.9.9.9.9.9.9.9.9.9.9.9.",
"t.9.9.9.9.9.9.9.9.9.9.9.9.9.9.9.9.3.1.t.8.r.a.p.> : ; p : : : - > * * ; > p : * p.h.r.9.t.1.8.9.9.9.9.9.9.9.9.9.9.9.9.9.9.9.9.9.",
"9.9.9.9.9.9.9.9.9.9.7.9.9.9.9.t.3.3.e.l.4.8.a.d., 3 p 3 , , 7 - > = = - d j j j d.a.2.4.l.e.3.3.t.9.9.9.9.0.9.9.9.9.9.9.9.9.9.9.",
"9.9.9.9.9.9.9.9.9.9.9.9.9.9.9.9.g.e.8.<.k 7 - = I.P.P.G.F.F.P.P.W.W.I.!./.[.[.[.= - 7 k >.p.g.h.9.9.9.9.9.9.9.9.9.9.9.9.9.9.9.9.",
"9.9.9.9.9.9.9.9.9.9.9.9.9.9.9.9.9.p.p.u.7 * * = I.L.I.I.L.L.W.W.Q.W.Q.(.}. X XXX= > $ 7 2.d.9.9.9.9.9.9.9.9.9.9.9.7.9.9.9.9.0.9.",
"9.9.9.9.0.9.9.9.9.9.9.9.9.9.9.9.7.8.a.d.> = g , L.G.G.G.F.F.G.F.F.H.G.~.).}.|.|.> g > > p.a.q.0.9.9.9.9.9.9.9.9.9.9.9.9.9.9.9.9.",
"9.9.9.9.9.9.9.9.9.9.9.9.9.9.9.9.0.q.a.d.> i p = L.L.G.G.G.G.I.I.F.G.K.).]. X X.X= i i > d.a.q.0.9.9.9.9.9.9.9.9.9.9.9.9.9.9.9.9.",
"9.9.9.9.9.9.9.9.0.9.9.9.9.9.9.9.0.q.a.d.> > p > [.D.Q.G.K.H.^.D.D./.D.K.K.T.D.^.> p : > k.a.6.9.0.9.9.9.9.9.9.9.9.9.9.9.9.9.9.9.",
"9.9.9.9.9.9.9.9.9.9.9.9.9.9.9.6.9.6.a.p.> > p 3 P.D.^.G.~.F.^.~.E./.D.T.K.).D.Y., p > > p.a.8.6.7.9.9.9.9.9.9.9.9.9.9.9.9.9.9.9.",
"t.7.9.9.9.9.9.9.9.9.9.9.9.9.9.9.t.9.a.8.- X > > P.!.^.C.Q.C.C.F.F.C.C.!.C.^.!.U.> > & 7 8.j.t.t.t.9.9.9.9.9.9.9.t.9.9.9.9.9.9.9.",
"9.0.9.9.9.9.9.9.9.9.9.9.9.9.9.9.e.e.9.>.m 3 > > U.!.A.b.{.(.F.T.~.G.(.{.b.Z.!.U.= > , k >.8.t.e.9.9.9.9.9.9.9.9.9.9.9.9.9.9.0.9.",
"9.9.9.9.9.9.9.9.9.9.9.9.9.9.9.t.1.1.0.x.,.8.p.j.6 6 6 N v.K.S.J.J.S.G.v.N = f 6 j.p.2.>.l.0.6.5.9.9.9.9.9.9.9.9.9.0.9.9.9.9.9.9.",
"9.9.9.9.9.9.9.9.9.9.9.9.9.9.9.9.6.6.6.0.7.a.p.j.= % 6 x m.'.`.`.`._.'.m.M * = % p.j.g.7.0.6.6.0.9.9.9.9.9.9.9.9.9.9.9.9.9.9.9.9.",
"9.9.9.9.9.9.9.9.9.9.9.9.9.9.9.9.e.0.7.5.0.9.9.y.g 8 X o V ' A A A Z ' V o X 7 g y.3.t.9.6.7.0.0.9.9.9.9.9.9.9.9.9.7.9.9.9.9.9.9.",
"9.9.9.9.9.9.9.9.9.7.9.9.9.9.9.0.6.9.7.q.r.9.9.p.$ 7 < + V b ! ` ] ! c n + < 7 $ g.9.0.0.5.0.0.q.9.9.9.9.9.9.9.9.9.9.9.9.9.9.9.9.",
"9.9.9.9.9.9.9.9.9.9.9.9.9.9.9.9.6.6.9.9.0.0.9.9.6.l.8.8.t t O x d O t t 8.2.c.6.9.e.7.0.8.9.7.7.9.9.9.9.9.9.9.9.9.9.9.9.9.9.9.9.",
"9.9.9.9.9.9.9.9.9.9.9.9.9.9.9.9.t.6.w.9.7.0.0.9.8.1.e.g.- : s s s s : - p.g.6.6.e.9.9.0.9.9.7.7.7.9.9.9.9.9.9.9.9.9.9.9.9.9.9.9.",
"9.9.9.9.9.9.9.9.9.9.9.9.9.9.9.9.9.6.9.9.0.7.9.9.3.:.k.p.$ . l ; ; l X . s.k.>.9.9.9.0.0.9.9.9.0.9.9.9.9.9.9.9.9.9.9.9.9.9.9.9.9.",
"9.9.9.9.9.9.9.9.9.9.9.9.9.9.9.9.e.9.7.6.6.0.9.9.l.w.p.<.m l z > > z j B :.s.d.x.9.9.q.7.9.9.9.9.9.9.9.9.9.9.9.9.9.9.9.9.9.9.9.9.",
"7.9.9.9.9.9.9.9.9.9.9.9.9.9.9.9.9.9.0.7.6.6.9.f.# % % m z.Z.Z.I.P.Z.B.k.m % % # f.w.9.6.6.9.p.9.9.9.9.9.9.9.9.9.9.9.9.9.9.9.9.9.",
"t.9.9.9.9.9.9.9.9.9.9.9.9.9.9.0.9.9.0.9.9.9.9.9.7 7 # k U.oXT.T.T.E.XXE.g   j g f.w.e.6.e.w.w.p.9.9.9.9.9.9.9.0.9.9.9.9.9.9.9.9.",
"9.9.9.9.9.9.9.9.9.9.9.9.9.9.9.9.p.9.0.6.9.9.9.i.- 5 o t m.J.M.N.N.M.B.n.t o 1 5 p.f.e.3.w.w.w.9.9.9.9.9.9.9.9.9.9.9.9.9.9.9.9.9.",
"9.9.9.9.9.9.9.9.7.9.9.9.9.9.9.9.9.p.7.9.y.p.p.0.q 0 y 9 o.b X.) ) _ J o.9 y 0 q p.y.3.e.t.1.9.w.9.9.9.9.9.9.9.9.9.9.9.9.9.9.9.9.",
"9.9.9.9.9.9.9.9.9.9.9.9.9.9.9.6.9.3.p.8.6 = , 1 v / ( ^ ^ ^ H S &.&.*.+.+.$.#.@.1 - > - 8.9.9.8.9.9.9.9.9.9.9.9.9.0.9.7.t.9.9.9.",
"9.9.0.9.9.9.9.9.9.9.9.9.9.9.9.9.3.9.9.8.6 & p 2 c F G E E E Y Y | | ....} } *.#.e , > , 7.9.7.7.9.9.9.9.9.9.9.7.9.9.9.9.9.9.9.9.",
"9.9.9.9.9.9.9.9.9.9.9.9.9.9.9.9.9.9.0.u.f u p w / H U K Y U Y I ;.;.;.;.;.-.=.%.q , > , 8.0.7.7.7.t.9.9.9.9.9.0.9.9.9.9.9.9.9.9.",
"9.9.9.9.9.9.9.9.9.9.9.9.9.9.9.9.7.9.a.u.f u p w / D P P U U Y L [ {  .{ [ [ &.O.q p i i 8.0.7.7.9.9.9.9.9.9.9.9.9.9.9.9.9.9.9.9.",
"9.9.7.9.9.9.9.9.9.9.9.9.9.9.9.9.6.7.0.i.f u a 1 J D K K D D D U R R Q E P P T ( 2 i u f u.0.6.6.9.9.9.9.9.9.9.9.9.9.9.0.9.9.9.9.",
"9.9.9.9.9.9.9.9.9.9.9.9.9.9.9.9.6.0.0.q.i u p 1 J D K K D H D U K S S S C K U Z 1 a u f u.9.9.1.9.9.9.9.9.9.9.9.9.9.9.9.9.9.9.9.",
"9.9.9.9.9.9.9.9.9.9.9.9.9.9.9.e.6.8.0.q.i u p w ( D U K H H E Y W W Q Q U Y W ~ 2 a u f u.a.8.e.9.9.9.9.9.9.9.9.9.9.9.9.9.9.9.9.",
"9.9.9.9.9.9.0.9.9.9.9.6.9.9.9.6.e.1.0.q.6 > , 2 v J F F ( / ~ ^ ^ ~ ~ ~ F F ~ c 1 i i > p.9.9.3.9.9.9.9.9.9.9.9.9.9.9.9.9.9.9.9.",
"9.9.9.9.9.9.9.9.9.9.9.9.9.9.9.9.9.9.9.p.p.p.i.i.< 1 e e 2 2 w w w w r + r e 2 1 i.d.d.p.p.9.e.9.9.9.9.9.9.9.9.9.9.9.9.9.9.9.9.9.",
"9.9.9.9.9.9.0.7.9.9.9.9.9.9.9.9.e.0.9.9.9.9.u.d.: p p p p p p p p p s p p p , - u.p.9.9.9.9.9.9.9.9.9.9.9.9.9.9.9.9.9.9.9.9.0.9.",
"9.9.9.9.9.9.9.9.9.9.9.9.9.9.9.9.9.9.9.9.9.9.p.p.= > > > i ; > > : > > i > > > = p.u.9.9.9.9.9.9.9.9.9.9.9.9.9.9.9.9.9.9.9.9.9.9.",
"9.9.9.9.9.9.9.9.9.9.9.9.9.9.9.9.9.9.9.6.9.9.p.9.- 7 - - , , , 6 , p , , , - , - p.p.9.9.9.9.9.9.9.9.9.9.9.9.9.9.9.9.9.9.9.9.9.9.",
"9.9.0.t.9.9.9.9.9.9.9.9.9.9.9.9.6.9.7.6.9.9.9.9.7.u.8.u.u.u.8.8.u.u.u.u.u.u.u.9.9.9.7.9.9.7.t.6.9.9.9.9.9.9.9.9.9.9.9.9.9.9.9.9.",
"9.9.9.9.9.9.9.9.9.9.9.9.9.9.9.9.9.6.t.6.t.6.9.9.9.p.p.p.p.p.p.9.9.a.9.p.9.p.p.9.9.7.6.6.6.6.9.9.9.9.9.9.0.9.9.9.9.9.9.9.9.9.9.9.",
"9.9.9.9.9.9.9.9.9.9.9.9.9.t.9.9.9.9.6.t.6.6.6.9.7.9.8.p.9.8.9.9.8.9.9.p.8.9.9.9.9.6.6.t.7.t.7.9.9.9.9.9.7.9.9.9.9.9.9.9.9.9.9.9.",
"9.9.9.9.9.9.9.9.9.9.9.9.9.7.9.9.t.7.6.7.6.t.9.6.9.8.9.9.9.7.9.9.6.8.9.7.9.9.9.9.9.9.6.6.t.7.t.9.9.9.9.9.t.9.9.9.9.9.7.9.9.9.9.9."
};
