/* XPM */
static char *e7e121b3506f4bc2a0d1c38d58780bb4aPugKLde9N8tk5e5[] = {
/* columns rows colors chars-per-pixel */
"64 72 187 2 ",
"   c #311B0E",
".  c #381E0D",
"X  c #2C1C13",
"o  c #2D1F1B",
"O  c #341E17",
"+  c #3B1E15",
"@  c #3F1719",
"#  c #351F1B",
"$  c #3B1D1B",
"%  c #3D200E",
"&  c #2F2317",
"*  c #2D231D",
"=  c #352215",
"-  c #392215",
";  c #33221D",
":  c #3A241E",
">  c #3D2A1D",
",  c #331F21",
"<  c #3C1E20",
"1  c #272624",
"2  c #2E2422",
"3  c #272822",
"4  c #2C2824",
"5  c #262729",
"6  c #2D2729",
"7  c #2C2B29",
"8  c #332422",
"9  c #3A2522",
"0  c #352922",
"q  c #3C2923",
"w  c #3D2D2B",
"e  c #3C3230",
"r  c #441316",
"t  c #43161A",
"y  c #4B141B",
"u  c #441B1C",
"i  c #4B1A1B",
"p  c #412716",
"a  c #432A16",
"s  c #42201E",
"d  c #40291B",
"f  c #432524",
"g  c #442B25",
"h  c #4A2C23",
"j  c #442628",
"k  c #442D2A",
"l  c #4B2D2A",
"z  c #5A2A26",
"x  c #552E2C",
"c  c #5B2D2B",
"v  c #473126",
"b  c #4E3126",
"n  c #44322C",
"m  c #4E322C",
"M  c #563326",
"N  c #593426",
"B  c #55342C",
"V  c #59332C",
"C  c #54382D",
"Z  c #423430",
"A  c #4E3331",
"S  c #4F3933",
"D  c #543531",
"F  c #593431",
"G  c #533834",
"H  c #593833",
"J  c #602E2F",
"K  c #4A423C",
"L  c #5D4231",
"P  c #634E2E",
"I  c #6D492C",
"U  c #764F24",
"Y  c #784F24",
"T  c #754E2D",
"R  c #7D5027",
"E  c #72512E",
"W  c #7B512A",
"Q  c #644735",
"!  c #644A33",
"~  c #6D4F33",
"^  c #614C39",
"/  c #694D38",
"(  c #724F31",
")  c #714E38",
"_  c #655136",
"`  c #6D5133",
"'  c #6C5837",
"]  c #63533C",
"[  c #6C533C",
"{  c #685A3F",
"}  c #725134",
"|  c #71533B",
" . c #78553F",
".. c #745A3C",
"X. c #7D5A3C",
"o. c #645542",
"O. c #6A5641",
"+. c #6E5C43",
"@. c #635749",
"#. c #775740",
"$. c #725C45",
"%. c #7B5D45",
"&. c #6A644E",
"*. c #6E6151",
"=. c #8D8B7E",
"-. c #908A7E",
";. c #9D907F",
":. c #A38F7C",
">. c #8C8C86",
",. c #8F938D",
"<. c #9C9585",
"1. c #97958C",
"2. c #9C958D",
"3. c #9D998D",
"4. c #8C9292",
"5. c #8A9996",
"6. c #8E9999",
"7. c #939693",
"8. c #9B9794",
"9. c #959A96",
"0. c #9B9B95",
"q. c #9A9799",
"w. c #939D9E",
"e. c #929E9E",
"r. c #939D9C",
"t. c #949D9C",
"y. c #969C9C",
"u. c #979D9D",
"i. c #959E9D",
"p. c #949C9E",
"a. c #949E9F",
"s. c #969C9A",
"d. c #999B98",
"f. c #999B9A",
"g. c #9D9998",
"h. c #9B9D98",
"j. c #9B9D9A",
"k. c #999E9A",
"l. c #989F98",
"z. c #9C9D98",
"x. c #9D9F9A",
"c. c #999A9C",
"v. c #989E9C",
"b. c #999D9A",
"n. c #A49382",
"m. c #AB9683",
"M. c #A29688",
"N. c #A0968A",
"B. c #A09788",
"V. c #A79788",
"C. c #A4978E",
"Z. c #A2968E",
"A. c #A99688",
"S. c #A59888",
"D. c #A1998E",
"F. c #A09A8E",
"G. c #A2988C",
"H. c #A3998A",
"J. c #AC9F8F",
"K. c #A89888",
"L. c #A69490",
"P. c #A29691",
"I. c #A19893",
"U. c #A49D95",
"Y. c #A29B94",
"T. c #A89F98",
"R. c #95A091",
"E. c #95A09A",
"W. c #95A09C",
"Q. c #99A29A",
"!. c #9CA19B",
"~. c #9CA09F",
"^. c #98A29C",
"/. c #A5A195",
"(. c #A2A39D",
"). c #A1A39E",
"_. c #A3A49F",
"`. c #A9A49E",
"'. c #A8A59C",
"]. c #939EA0",
"[. c #929FA1",
"{. c #959CA1",
"}. c #94A2A2",
"|. c #9CA3A3",
" X c #A2A4A3",
".X c #A4A9A2",
"XX c #A4A9A3",
/* pixels */
"s.s.s.s.s.s.s.s.f.s.f.s.s.s.s.s.w.w.r.r.9.9.s.r.r.r.r.r.9.E.9.s.s.s.w.r.r.r.r.r.s.r.9.E.s.w.w.r.r.s.s.s.d.r.d.r.d.r.d.r.d.r.d.r.",
"s.s.s.f.s.f.s.s.s.s.s.s.s.s.s.s.r.E.r.r.9.E.r.E.s.r.r.r.r.h.s.R.h.9.h.t.s.r.r.E.E.s.s.9.s.r.w.r.r.s.s.s.r.d.r.d.r.d.r.d.r.d.r.d.",
"f.s.s.s.s.s.s.f.s.f.s.s.s.s.s.r.r.r.r.s.s.h.s.9.r.s.r.9.9.9.9.0.h.9.0.R.r.E.r.r.s.9.s.s.E.9.E.r.r.h.s.s.d.r.d.r.d.r.d.r.d.r.d.r.",
"s.s.s.s.s.s.s.s.s.s.s.s.s.s.s.s.r.r.s.s.s.9.9.E.s.t.t.R.Q.9.0.Q.9.h.9.9.9.s.r.9.E.9.h.9.r.r.w.r.s.s.s.s.r.d.r.d.r.d.r.d.r.d.r.d.",
"s.s.s.s.s.s.s.s.s.s.s.s.s.s.s.s.E.r.s.s.9.s.9.s.s.9.E.h.s.9.9.9.Q.9.h.9.9.E.9.h.E.h.9.s.s.s.s.E.s.s.d.r.d.r.d.r.d.r.d.r.d.r.d.r.",
"s.s.s.f.f.s.s.s.s.s.f.s.s.f.s.s.s.s.s.s.h.s.s.9.9.s.9.9.h.9.s.9.9.9.s.9.s.9.s.s.9.9.s.s.s.s.s.s.s.s.r.d.r.d.r.d.r.d.r.d.r.d.r.d.",
"s.s.s.s.s.s.s.s.s.s.s.s.s.s.s.f.h.s.s.s.r.s.w.s.E.E.r.r.w.s.W.w.t.t.r.r.s.r.s.r.r.r.w.s.s.s.s.9.s.h.f.r.d.r.d.r.d.r.d.r.d.r.d.r.",
"f.s.s.s.s.s.s.f.f.s.s.f.s.s.s.s.9.s.s.s.s.w.s.r.t.s.s.w.w.w.w.w.{.t.w.w.E.w.E.9.s.w.s.t.s.s.s.h.s.s.r.f.r.d.s.f.r.d.r.d.r.d.r.d.",
"s.f.s.s.s.s.s.s.s.s.s.s.s.s.f.s.9.s.s.s.t.t.w.w.t.t.t.W.t.w.[.}.}.[.t.t.r.s.t.r.p.w.w.r.f.r.d.9.d.r.d.r.s.s.s.f.d.r.d.r.d.r.d.r.",
"s.s.s.s.f.s.s.s.s.s.f.s.s.s.s.s.h.s.s.s.w.w.w.w.f.f.0.9.s.w.6.6.w.6.r.s.d.0.d.d.r.w.w.w.r.f.9.9.f.d.r.d.s.s.s.s.r.d.r.d.r.d.r.d.",
"s.s.f.s.s.s.s.f.s.s.s.s.s.s.s.s.d.9.f.w.w.[.t.f.h.0.8.Y.z.z.h.h.h.h.h.z.Y.z.z.8.f.r.w.w.r.r.d.d.r.d.f.r.f.r.s.s.d.r.d.r.d.r.d.r.",
"s.s.s.s.s.s.s.s.s.f.s.s.s.s.f.s.s.f.s.p.w.t.f.0.3.3.B.M.M.B.3.3.3.3.B.M.M.B.G.0.d.f.p.w.p.f.r.r.d.r.r.f.r.f.s.s.r.d.r.d.r.d.r.d.",
"f.s.s.s.s.s.f.s.s.s.s.s.s.s.s.s.f.f.y.p.t.s.h.I.@.o.O.[ [ { [ [ O.[ [ [ [ O.o.@.3.d.s.t.t.y.f.f.r.d.r.d.s.s.h.s.d.r.d.r.d.r.d.r.",
"s.s.f.s.s.s.s.s.s.f.s.s.s.f.s.s.f.t.p.p.s.9.0.D.o./ ` E T T ~ ~ ~ ~ T T E ` [ ] 3.0.9.w.t.{.y.f.d.r.d.r.s.s.s.f.r.d.r.d.r.d.r.d.",
"f.s.s.s.s.s.s.s.s.s.s.s.s.s.s.s.t.v.{.t.t.0.0.S.O.} E W R R W W W R R R W W | [ S.3.h.s.y.t.t.h.r.f.r.d.s.s.r.9.d.r.f.r.d.r.d.r.",
"f.s.s.s.s.s.s.s.f.s.f.s.s.s.s.f.z.8.g.g.8.I.L.A.| } ( T T W T W T T T T T } } [ m.V.G.D.I.3.D.0.d.r.f.r.s.s.9.d.r.d.d.r.r.f.r.d.",
"f.y.y.y.y.r.r.r.E.9.E.9.Q.9.s.h.q v h g h f h g - - = - - - = = - - - # $ - - % ) } } } E E E ] ).6.|.6.|.7.x.,.s.s.r.r.t.t.t.t.",
"c.y.y.y.p.r.r.9.E.9.9.9.9.9.9.8.v d d h h h h h = : 8 2 * * ; 8 8 2 2 2 8 ; - + ) ( Y Y U U R ` 1.4.c.4.h.7.Q.d.9.s.r.w.w.w.{.t.",
"y.y.c.y.s.s.r.r.Q.6.E.Q.7.z.Y.3.v h h h h g l j : * 8 * 8 2 ; 2 8 2 , 2 8 8 ; = [ ) ( E E E } ` J.Y.`.8.).7.v.w.t.s.r.E.r.r.w.y.",
"y.y.y.c.s.s.s.9.6.R.E._.>.1.I.L.g > d g j l q q ; * 2 2 * 8 8 ; 8 , 8 2 2 2 ; # O.O.[ [ } } ) [ :.;.n.=.!.d.t.6.w.r.r.s.s.w.p.{.",
"{.y.y.y.s.f.9.r.R.R.7.>.K n k l : : : : : 9 9 8 * 2 * * 2 8 8 8 ; 8 8 2 2 2 2 8 # = = . + + + +  ...$.*.1.0.w.W.r.w.s.E.s.r.w.w.",
"y.y.y.c.h.f.9.9.9.9.0.1.e w j l ; ; ; ; # * * * 2 8 8 2 , 8 8 8 ; ; 8 , 2 2 2 , * # ; = ; # ; + I T ! ] <.h.9.9.s.E.9.9.f.r.r.w.",
"{.p.t.t.h.s.9.h.z.z.0.3.n v h g ; & ; ; * ; ; ; ; ; ; 8 8 ; 8 ; 9 ; , 8 9 8 , 2 9 ; ; 9 2 , 9 ;  .X.| [ S.U.1.h.h.9.9.9.r.s.s.w.",
"w.p.s.r.s.9.h.h.8.3.Z.Z.v k g g ; * 2 : ; : ; ; ; ; ; ; ; 2 8 ; # ; 8 # , ; , 9 # ; ; , 8 8 2 ; Q ) / [ n.K.M./.3.0.h.9.r.r.s.r.",
"p.w.r.r.E.R.h.z.e n k q : - # ; ; * & q n G G m A A S Z : * ; * * 8 # 9 A G A A A S G Z 9 2 2 ; = - . a Q +.] @.3.R.9.9.E.t.s.s.",
"p.w.r.r.6.E.9.8.n n l j : - = ; * & * > n D C B F B G m : & 2 * 2 ; = 9 A D F F C F D k 9 o o * 8 :   p Q | _ ] S.F.9.d.s.t.s.s.",
"s.w.6.E.E.6.h.Y.Z k l f : : ; * * # o : h C V V V B F B 9 * 8 * 2 ; ; : D F c c c V C b 9 = O * 4 2 X d / %.#.O.S.F.h.r.t.t.s.h.",
"t.E.6.E.9.r.0.8.w j j 9 : ; ; ; : : d d M C V J c c F A : ; * 1 * 2 ; : x F c F c V B B g : : q 2 2 * d L / ! ^ S.0.h.f.t.s.s.s.",
"s.s.E.9.E.r.0.8.8 9 9 9 , # * ; v b h b B B J N V c F D 9 # 2 4 3 2 * : l F V V V V V V b b h m 2 8 8 ; : p : > 8.0.f.p.y.y.c.f.",
"f.s.s.9.E.9.h.8.6 , 9 , # # ; # G B B V V V N N V V F l 9 o 2 2 2 3 * : B B V V V V V V B B B G , 8 9 ; O X X & 0.0.p.p.y.y.f.f.",
"f.9.s.h.9.9.h.0.1 o , , , o 8 # F V V V V N V V c c F B 9 , 2 2 3 2 * 9 m B V N V V V F B V V B # # 9 9 8 2 2 7 f.c.y.{.y.s.f.f.",
"f.f.9.s.R.9.h.h.1 1 2 8 , ; < : B c V V V V V V V V F B 9 , 8 5 2 3 * : m B V V V V B B B B x x @ O # # 2 2 6 5 c.y.p.p.p.r.f.d.",
"t.E.E.E.R.9.9.h.1 1 * 9 A D A B V V V M V V N V c V D m 9 , 2 2 2 4 o 9 m F V V V V B C B V V B B C M m ; * 6 5  X9.|.6.}.6.Q.,.",
"t.6.6.9.9.0.z.8.1 4 o 9 D F x B V V B B B B V V V V F m 9 , 8 2 2 8 # : m F V V V V M M V B V V M M C b : , 2 6 7.,.9.4.}.5.Q.E.",
"v.p.r.Q.7.0.Y.8.* 2 # : A F B B B V B V B B V B V M V B : # 8 6 2 4 8 9 m V M x V B V C B C V B B B N C 9 , 4 2 T.L.'.7.|.6.W.w.",
"y.f.Q..X>.1.I.Z.; ; # 9 x F M B V V B B B M V V V V D m : , 2 2 2 8 # 9 m B V V V V B V B M V V M B C m 9 8 8 ; n.;.<.=.|.6.{.p.",
"s.d.4.>.K Z n k ; ; ; : B D V V B V M C B B V B V M V m 9 # 2 2 2 2 # : B F V V V V M B B B V B N M N B 9 # 9 ; $.' &.&.1.9.t.{.",
"9.s.h.1.Z k j n > ; = : B V V V N V B B B B M V x V F m 9 # 2 2 2 2 , 9 m F V V B V M C B M V V N M B M 9 # = = ! P P ] 1.h.y.[.",
"s.h.h.8.e j g k ; : # : x B V V N V V B M B V V V B V m 9 # 8 2 2 8 # 9 m V M V V V B V B V V V V M V m 9 # ; = ....' { 3.h.9.{.",
"s.d.0.8.w k l g ; = ; : B V N V V V B B B B V V V V F B : , 6 2 2 2 ; 9 m B x V V V B C M M V B V M N B : # ; = L ' _ ] 3.h.q.{.",
"h.d.g.0.8 # 8 ; * & & 0 m C V x B V B B V C V V V x B B 9 # 8 2 6 8 , 9 B D V V V V V B N C V V x F F l 9 o 2 ; = > O ; 0.j.q.t.",
"f.9.x.8.8 ; 9 ; * * * ; b V V V V V B V M M V V V V B b 9 2 6 2 2 8 # 9 m V V x V V B M B B V V c D F m 9 1 o 2 * > ; 8 q.v.f.t.",
"y.q.s.7.2 # 8 8 * * * 9 l V F c V N B C B B V V V V B B : # 8 2 2 2 o 9 m D V x V M B B V B B V D F F l 9 , 2 2 ; 9 2 6 q.v.7.9.",
"y.6.h.d.6 2 8 ; 8 2 > g B B V V B V B M N B V B V V F m # , 2 2 2 2 # 9 B B M V V V B B C M V V F F V b q 9 0 0 ; 8 , 6 f.E.9.R.",
"s.9.R.9.3 & 0 ; n n n l V F V V V V B B C V V V V M V m 9 ; 2 2 2 8 # 9 m D V V V B M C V B B V x V V M b v n n ; : 2 4 q.9.9.R.",
"R.9.Q.1.2 ; : # S S D D V V V C V V B V B B B V V V F m : 8 8 8 2 6 # 9 m B M V V V M V B B V V D V V N V C m S O : ; 4 d.s.9.R.",
"h.9.Q.0.* ; 9 # D D F F J V N M V V M C B B V V V V F l 9 # 2 4 2 8 , 9 B F V V V V B B V V V V V V N N V B F D $ : # 2 f.W.5.R.",
"s.9.R.9.* ; : $ D B F V V N N N V M M B B B B N V B B m 9 # 2 2 2 8 o 9 l F V V V M B B M C B B V V V V V x D B $ : * 2 f.W.9.E.",
"E.9.s.7.3 2 : # F D c D c V V V V V N B B B V M V N C B : o 2 2 2 2 * : m B M V V B V V V B B B M V V V D V D D # 9 2 4 d.s.6.s.",
"r.9.Q.9.2 1 0 = D B F V V V V V V V V M B M B V V B V b : ; 8 * 8 ; * 0 m B V M M M B B N V V B V B V V c V V D # 9 * 7 d.f.9.s.",
"r.9.h.d.6 * 9 ; D D c V V V V B C C B B B V V V V V C C : # 8 2 ; 8 ; = m M x V B C V V V J J V V V V V F V D B # ; * 3 d.s.9.r.",
"r.9.Q.7.3 * 9 - D D B V V V B M m m m x B x z z c V F l : # ; 8 ; 8 * : B G B B b B b x c c c c V V V V V B x D # 9 * 3 d.s.9.E.",
"s.6.h.0.4 * 9 ; D B F V V V N B : > : s u i i i J V V m 9 # , 8 8 8 ; : m F C C : : : s u i y i V V V V c V B D = 8 * 4 d.s.9.r.",
"E.9.Q.7.4 * 8 # D D V V V V V B * & ; # r r r r J c F B : # 8 9 8 9 ; : m F B B = ; # + t r y r V V V V V B D B ; 9 2 4 d.9.9.s.",
"r.6.E.7.4 * 8 # D x V V V V V m ; 8 9 $ $ u r r J V F x : # 8 , 8 8 # : m F C A : : : # < t y t V V V V V V D D # 9 * 3 0.E.9.w.",
"s.9.Q.0.4 2 8 = D D V V x V V C ; 2 8 , # + @ @ V c F B 9 # 8 2 8 2 # : m F B C ; ; ; ; < @ @ t c V V V V F B D ; 9 * 1 d.s.9.r.",
"r.r.Q.7.4 * 9 # D D V V V V V B ; 8 8 8 ; : $ u D c D B : ; 2 8 2 2 * : m F C D = ; 2 ; 9 : < $ B V c V c B D A # 9 * 4 9.Q.9.s.",
"s.9.h.7.4 1 9 ; G x D c V V B B ; ; 8 ; ; ; : - D D D m : ; ; 1 2 2 * : m F B B = ; ; 8 9 ; < : B V V V F V B B = 8 * 4 f.s.9.w.",
"E.6.s.d.4 * 8 = D x V V c V B B + # ; ; ; & * = B B C b : ; 8 2 2 2 & : m V B B = ; * & ; ; # ; B B V V V V D D # 9 1 4 d.E.9.w.",
"r.9.s.q.4 * 9 # D D F V V V V B : : : : : : : : C m G m : # 2 2 2 2 * : m F x D : : : : : : : = B V B c F V B D # 8 * 2 d.s.9.s.",
"E.6.E.0.4 * 8 = D B F V V V V V B m m m m m m b C B C m : ; * * 1 2 * : B F V B B m v m m m m v B V V V V D F B = 8 * 4 q.Q.9.r.",
"s.9.h.7.1 * 9 ; D D V V V V V V B B F B C C N B B b C m : ; 8 8 ; * * > m B V V B B C C G B C C B V V V c V B D # 9 2 3 7.s.9.s.",
"s.6.Q.7.4 2 9 # D x B V V M V V V M c N V V N V B B C n 9 # 8 8 8 ; & : m V z N N M N V V V M B V N V V V F B D # 8 * 4 d.s.9.r.",
"E.9.h.0.4 * 9 # D D B c V V V V N V V V N J V V M B C m 9 = ; ; : 8 ; : m V V V V V c N J N V V c V V V V x D C : 9 * 1 d.h.9.r.",
"t.d.h.8.8 ; 9 # D F B B V F V c V M V V V V V V V V F m 9 # ; ; 9 = # q l F F B V V c V V N V V V V V V B F D B # 9 o 6 0.v.9.f.",
"f.9.h.8.2 8 9 # D m B B V x B V V V V M V V c V F F G A q # ; : ; # # q A H H F c B V V B C M B c N B C x B B D # 9 # 2 g.g.9.r.",
"w.9.h.q.6 o 9 # S G G B F F B B C C B C C V F F D G G m q ; ; ; ; ; ; q A G G F F F F B M C C C B F F F D D G S # 9 8 2 q.h.r.w.",
"w.6.v.q.8 8 8 # m m m m m m m B m m v b m m m m m m A j 9 ; ; 8 8 o 9 9 j n A l m B A b C v m v b B m m m m m A ; 9 , 6 q.h.9.p.",
"w.9.s.q.4 2 8 ; > > ; : : : : : : > > > > : > : 9 q 9 9 8 2 ; 2 8 * , ; q q 9 9 9 : : > = > > > : : : : 9 : : : , 8 2 2 0.v.6.W.",
"w.r.t.q.6 2 8 8 ; ; * ; ; = ; ; & & & & ; & ; ; # ; 8 ; 8 * * 2 8 o * 2 ; ; ; # # ; ; ; * & & * = ; = > o ; * * 8 8 2 4 q.W.6.W.",
"w.6.c.f.6 1 8 8 * 0 8 ; ; ; ; ; * & * & ; ; 8 8 ; ; # 2 8 o 2 2 2 2 2 * 8 ; 2 # ; ; 8 ; & * * 0 * ; ; * ; 8 ; ; 8 8 2 6 f.y.6.W.",
"W.9.c.q.2 2 8 2 8 * ; ; & ; * * * * * 4 * * ; * 9 8 8 8 2 * 2 2 2 2 * 2 8 8 8 8 * ; * * * * & * * ; * ; ; * ; ; 2 2 2 2 q.v.r.W."
};
