/* XPM */
static char *_411_272b0936bb989e3e15128baf1594988f7d337d2dec480e096b96a88fcfb31afc[] = {
/* columns rows colors chars-per-pixel */
"70 70 236 2 ",
"   c #000001",
".  c #090303",
"X  c #020902",
"o  c #0B0905",
"O  c #02040A",
"+  c #09060C",
"@  c #05090B",
"#  c #0B0B0B",
"$  c #140A08",
"%  c #0B120C",
"&  c #13120E",
"*  c #000413",
"=  c #030B14",
"-  c #0A0C11",
";  c #00061B",
":  c #000B1C",
">  c #0C0C18",
",  c #110D13",
"<  c #0D1115",
"1  c #00111D",
"2  c #0B1719",
"3  c #141314",
"4  c #141A1D",
"5  c #1C1B1C",
"6  c #171616",
"7  c #201F1D",
"8  c #000C22",
"9  c #000E29",
"0  c #001324",
"q  c #00132A",
"w  c #051725",
"e  c #1D1C21",
"r  c #181624",
"t  c #000F32",
"y  c #021C39",
"u  c #001836",
"i  c #201B21",
"p  c #1A2528",
"a  c #002030",
"s  c #232323",
"d  c #2B2B2C",
"f  c #272428",
"g  c #322626",
"h  c #33322F",
"j  c #263032",
"k  c #353334",
"l  c #3A3C37",
"z  c #052C49",
"x  c #13345F",
"c  c #293E5D",
"v  c #003F78",
"b  c #134674",
"n  c #1B4D7C",
"m  c #164D76",
"M  c #0A5179",
"N  c #1D527F",
"B  c #144471",
"V  c #2F4D73",
"C  c #4B4F51",
"Z  c #455B68",
"A  c #545E67",
"S  c #5A6977",
"D  c #506B7D",
"F  c #636476",
"G  c #054D86",
"H  c #154D83",
"J  c #03548B",
"K  c #005493",
"L  c #0B5A92",
"P  c #005D9B",
"I  c #085594",
"U  c #165789",
"Y  c #265485",
"T  c #00629D",
"R  c #14649B",
"E  c #396884",
"W  c #3D759B",
"Q  c #317297",
"!  c #0064A3",
"~  c #0767A4",
"^  c #1A7BA6",
"/  c #037EBB",
"(  c #1C7CBA",
")  c #0076A9",
"_  c #2978A8",
"`  c #357CB7",
"'  c #2E70A6",
"]  c #49728E",
"[  c #567A97",
"{  c #4F748F",
"}  c #4378A0",
"|  c #38849E",
" . c #1C87AB",
".. c #0985BA",
"X. c #1C8CBD",
"o. c #1887B5",
"O. c #1E91BB",
"+. c #2985AD",
"@. c #2786AD",
"#. c #3885A9",
"$. c #2485B6",
"%. c #278BB3",
"&. c #2B8BB4",
"*. c #2B8CB9",
"=. c #2188BD",
"-. c #3F8CB4",
";. c #2A91B6",
":. c #3A96BD",
">. c #41849F",
",. c #4989A9",
"<. c #488ABA",
"1. c #5A87A8",
"2. c #7D98A8",
"3. c #6C91AF",
"4. c #51A0BE",
"5. c #748893",
"6. c #048DC5",
"7. c #0B8BC2",
"8. c #008CCA",
"9. c #0D8ECC",
"0. c #0885C2",
"q. c #1A8AC6",
"w. c #0292CE",
"e. c #0D94CC",
"r. c #0993C6",
"t. c #1392C4",
"y. c #1991C5",
"u. c #1491CB",
"i. c #1898CC",
"p. c #0E8DD2",
"a. c #008ED4",
"s. c #138ED1",
"d. c #0294D4",
"f. c #0B96D2",
"g. c #029CD5",
"h. c #0B9AD5",
"j. c #0295DB",
"k. c #019BDC",
"l. c #0D9CDB",
"z. c #0B95DC",
"x. c #129DD3",
"c. c #1A9BD2",
"v. c #119CDD",
"b. c #1692D5",
"n. c #228BC5",
"m. c #288AC8",
"M. c #328BC5",
"N. c #2D9CC6",
"B. c #2194CC",
"V. c #2998C9",
"C. c #3494C5",
"Z. c #3A9AC4",
"A. c #329BCC",
"S. c #379BC7",
"D. c #219DDB",
"F. c #01A0DD",
"G. c #0DA2D8",
"H. c #1AA4DB",
"J. c #3CA4CD",
"K. c #28A4D7",
"L. c #3FABD9",
"P. c #0294E4",
"I. c #019CE3",
"U. c #0C9DE7",
"Y. c #119DE3",
"T. c #009FF3",
"R. c #03A2E5",
"E. c #0CA2E3",
"W. c #05A7EA",
"Q. c #17A7E6",
"!. c #10ADEF",
"~. c #21AAE0",
"^. c #4296C2",
"/. c #52A4D0",
"(. c #7AA0C4",
"). c #6FB1D4",
"_. c #54B7E0",
"`. c #6DB8E2",
"'. c #8898A9",
"]. c #919AAF",
"[. c #95AAB8",
"{. c #89A3B2",
"}. c #A8ABB6",
"|. c #829DC2",
" X c #87A8C8",
".X c #95B1C9",
"XX c #8BB2CF",
"oX c #B9BDC0",
"OX c #BEC4CA",
"+X c #AAC4D4",
"@X c #BDCCD5",
"#X c #B7CFD9",
"$X c #BCCDDB",
"%X c #B1C5D9",
"&X c #B8D0DE",
"*X c #9BD8F9",
"=X c #8FD6F6",
"-X c #BAD2E1",
";X c #B8D2E8",
":X c #A2DCFF",
">X c #B5D7F1",
",X c #AFCDE6",
"<X c #9EE1FF",
"1X c #AEFFFF",
"2X c #A4FFFF",
"3X c #B4FFFF",
"4X c #BCFFFF",
"5X c #B1F3FF",
"6X c #C2C6CC",
"7X c #CBCCC8",
"8X c #C8C7D6",
"9X c #C3CBD5",
"0X c #C3CBDA",
"qX c #C8C7D9",
"wX c #D5D5D6",
"eX c #DFDFDF",
"rX c #D1D5DE",
"tX c #E4DCDA",
"yX c #E0E4D6",
"uX c #D9DBE1",
"iX c #CDD5EF",
"pX c #E0D9E0",
"aX c #C8E1F5",
"sX c #C4FFFF",
"dX c #CCFFFF",
"fX c #D2FFFF",
"gX c #DBFFFF",
"hX c #DBE3E6",
"jX c #E2E2E3",
"kX c #EBE5E6",
"lX c #EDECEC",
"zX c #E9E8EA",
"xX c #F4F4F4",
"cX c #FEFEFE",
"vX c #F9F8F7",
"bX c #F5EEEF",
/* pixels */
".     o     +   .     @     &                                                                                                               ",
"O   @     %   @   . o     #                                                                                                                 ",
"o . . #   .     o   @ O   .   @                                                                                                             ",
"  @   # #   @   O     .       .                                                                                                             ",
"d       . #   #   3       3                                                                                                                 ",
"xX  s         # o     3   #                                                                                                                 ",
"cX<     s   k     7   @     . O                                                                                                             ",
"cXcX  5 jXh jX6 @ xX6   6   %                                                                                                               ",
"cX5 cX  vXs lX3   5   @   .                                                                                                                 ",
"cXjXcX6 d 7Xf   5 eX6   3   @                                                                                                               ",
"  3       cX  5   6   3     .                                                                                                               ",
"        3 lX    #   3 #   6   #                                                                                                             ",
"3   @   @ . &     3       .   @                                                                                                             ",
".     3 #   @ .       6 o   @                                                                                                               ",
"  -       3 o     # .     @   .                                                                                                             ",
"@   o   -     . O     # @   .                                                                                                               ",
".     .   @       @ O   .                 O                                                                                                 ",
"@   .       O @ O           . @                             O                                                                               ",
"      . O   O   O O   . .                                                                                                                   ",
"  o   o 3     O   O         @                     O                                                                                         ",
". @         e - = +   + .   @                                                                                                               ",
"      . + 6 }.6XO     # o               O   O       O                                                                                       ",
"  o       O 6XuX= 2     o   . O                                                                                                             ",
"    . @   + 9XOXrX}.d                                                                                                                       ",
"          O 9X9X9X9X    .         .   o   o                                                                                                 ",
"            9X9X9X9X              -   o       #     .                                                                                       ",
"          O 9X9X9X9XO                     #                                                                                                 ",
"            @X9X9X9XO           %   @ @     @ O       X O                                                                                   ",
"  .       O 9X0X$X9XO             @ -   < @     O                                                                                           ",
"            9X0X0X9XO             3 O   6XoX< -   O O O O O O                                                                               ",
"        O O 9X$X$X9XO           O O   4 6XOX2   O   O   O   O O                                                                             ",
"          O 0X0X$X9XO       .   O : 2.{.'..X+X-X&X&X&X&X&X-X-X$X* O                                                                         ",
"        O O qX0X#X#XO         O : z ,.)./.`.=X<X*X:X*X=X*X*X*X:Xt y   $   @             . .   O                                             ",
"    .     O qX0X&X#XO . .   . * #._ S.S.q.B.;.;.M.Z.;.;.n.$.$.%.o.Q 1 . .   O -         .                                                   ",
"          O 8XqX$X#XO       . * C.9.u.9.s.b.t...s.9.e.e.h.h.h.x.H.%.:     +   O                                                             ",
"O   . .     8X8X$X@X  .       : q.d.I.z.Y.Y.f.h.U.P.k.k.k.k.F.w.r. .: O   + O       X                                                       ",
"    . .   O 8X0X0X9X          : u.T.R.j.j.a.d.k.P.P.I.I.d.d.F.g.G.N.1 O O   O O               O                                             ",
"O O .     O 8X0X9X@X        O : ..R.P.j.j.j.k.R.P.T.R.z.r.7.r.x...;.=       O O .       .                                                   ",
"O         O qX0X$X@XO         : B.I.k.E.U.g.k.d.P.U.8...S.C.%.*.;.4.@   o   O O   .     .     X                                             ",
"  O     O O qX0X$X$XO     .   : ;.d.w.k.d.g.W.k.k.l.7.L.1XsXsXsX4X4X2 .     O O . O   . . .                                                 ",
". +     - r .XiX>X#X@ < . $ . = O.g.k.k.k.k.F.k.l.u.o.J.1XsXsXsXsXfX  . .   O O     + . . .   X     # .     % .                             ",
".   X % C F iXiX+XaXZ A . .   0 O.g.F.k.k.k.F.g...A.1X3X/.+.&.$.S.#.O $ . % @   #   +   .               @                                   ",
"+     2 A F %X.X,X>XD S + .   : O.g.k.k.I.k.k.f.C.^.1X2XX...c.D.b._ q o   .   -   X       . %       #   . .   #                             ",
".     O 8 q [ [ 1.] 0 0 * = 0 9 t.k.k.k.k.k.k.u.sX5X_.V.9.Y.j.z.8.A.8   $ . . o % X % X X           @                                       ",
"  X O O O ; ] W } W t t 9 9 t u u.j.k.k.k.j.z.y.fXgX@.) E.P.a.j.I.B.0 O 3 . 6 .     O   3 o   O %         o @                               ",
"    .   * ; ,.#.' ^._ $.&.&.*.A.b.k.g.g.j.j.h.n.gXgX@.i.R.j.!.d.I...q r   . cXcX  &   j hXcXvXcX      #                                     ",
"    . . = 8 #.@.' ` =.i.c.s.b.p.z.j.k.F.k.k.k.y.gXgX@.h.k.j.!.8.l.X.:     s pXcX. 6     cXcXxXcX  7     #   .                               ",
"    . O * : | #.` ' $.y.r.e.D.p.z.k.k.k.k.k.j.y.dXdX%.r.R.I.g.h.6.A.: @ cXkXf . cXbXf - cXzX5   cXlX7   O                                   ",
"  .   > * 9 { [ W <.' #.:.@.+.o.w.k.k.I.I.I.d.t.4X4X&. .X.H.w.d.6.J.8 O cXcX3   vXvX-   cXcX    cXcX  #   .           .                     ",
"o o   * * ; D ] ] E y 9 q 9 q u i.E.k.j.P.j.d.c.o.J.3X3XN...H.G...&.8 e zXcXxXcXcXcX7 O cXvX@ i cXcX        @ 3 .         O   .             ",
".     + O 2 Z S S Z q * * = = 8  .6.w.z.k.k.h.r.t.X.3X3X:.^ C.^ V.-.* # kXcXlXcXcXvXo   vXvX    lXcX. O 3           o @ @ .                 ",
"o X   .   O 3 - * - O   @     * J T u.Q.k.k.E.w.x.t.N.S.3X4XsXsX4XsXO . cXcX4   cXcXX   vXcX5 . cXcX    +   3 o . @         @ o             ",
"                      . .   . * M ! 0.u.w.g.k.I.8.Q...X.3XsXsXsX4XdX: . vXtX< O vXzX% X yX7Xh , cXjX3       #     o   # #   @               ",
". . + . . @     + . . . . . . O -.X.P P h.Q.j.P.k.G.d.c.K.o.S._ *.,.O . g 3   @   l     C 6 . .   s           3 . O           .             ",
"    O     .   O               * <.q.P P 0.l.a.j.E.d.d.E./ r.K.r.i.%.w   . .   O   6         3 e   O .   s 6     @   6     5   #             ",
"O   +   O @     O   O       O ; G ! m.B.! ! p.z.j.U.j.I.8.!.0.G.r.;.1 4 bXcXcXcXcXwXk     h zXcX+     5 lXcXp     6 xXcXcXxX6               ",
"                        O     ; H K m.m.P ! q.s.s.p.v.E.k.k.I.j.g.o.0 p zXkXcXcXcXzXf   # 7 jXcX  s   @ cXcX&       cXcXcXcX3               ",
"                              * Y G L ~ ( ( ~ P K ~ / f.d.d.P.j.G.N.0 X k g zXcX, , O + vXlX7 # cXlX7   cXcX@   5   cXeX  <   .             ",
"                              * B H G G M.M.K K K ~ ( m.q.b.b.b.0.@.u   . . vXcX      @ cXcX.   cXcX    cXcX@ #     cXvX5 5   #             ",
"                              O V H H B U R v I G U L L K J K K R M 1 X . & cXcX  k O 6 xXcXcXcXvXcX6   cXcX      5 cXcXcXjX.               ",
"                      O     X O c x Y N b H H Y n b v B b H n n m z O     . xXlX  6   4 xXcXcXcXcXcXo   cXxX6 6 . 6 wXcXcXcXd #             ",
"                              O ; u 3..X3.(.(.|.|.|.|..X,X>X>X;X0 0   .   + cXcX.   o   cXcX.   cXcX    cXcXlXcX    cXcXxXcXxXlX            ",
"  X                             O w 5.[.2.'.'.].].].].[.+X$X@X0XO O .   < < hXcXo . &   lXcX  # cXeXd d wXcXcXcXO o vXcXwXcXcXcX            ",
"                O               @ O @ O   2 O O . * O O O O   O . 3 .   r   j   . . .   7         f     4   .       6   # d   @             ",
"                                                  O                                                                                         ",
"                                                                                                                                            ",
"                                                                                                                                            ",
"                                                                                                                                            ",
"                                                                                                                                            ",
"                                                                                                                                            "
};
