/* XPM */
static char *_1975_cbe2910b68199ad7884ddfe709a8e4a228a00699e81726d79e76267d5ad6b6af[] = {
/* columns rows colors chars-per-pixel */
"70 70 88 1 ",
"  c black",
". c #010101",
"X c #020202",
"o c gray1",
"O c #040404",
"+ c gray2",
"@ c #060606",
"# c #070707",
"$ c gray3",
"% c #090909",
"& c gray4",
"* c #0B0B0B",
"= c #0C0C0C",
"- c gray5",
"; c #0E0E0E",
": c gray6",
"> c #101010",
", c #111111",
"< c gray7",
"1 c #131313",
"2 c #151515",
"3 c #161616",
"4 c gray9",
"5 c #181818",
"6 c #191919",
"7 c gray10",
"8 c #1B1B1B",
"9 c gray11",
"0 c #1D1D1D",
"q c #1E1E1E",
"w c gray12",
"e c #202020",
"r c #232323",
"t c gray14",
"y c #252525",
"u c gray15",
"i c #282828",
"p c #2C2C2C",
"a c #2D2D2D",
"s c #2F2F2F",
"d c gray19",
"f c #313131",
"g c #323232",
"h c gray22",
"j c #393939",
"k c gray23",
"l c #3E3E3E",
"z c #3F3F3F",
"x c #464646",
"c c gray28",
"v c #505050",
"b c #515151",
"n c #606060",
"m c gray39",
"M c #6A6A6A",
"N c gray44",
"B c #808080",
"V c #AEAEAE",
"C c gray73",
"Z c gray74",
"A c gray76",
"S c #C3C3C3",
"D c #C8C8C8",
"F c gray79",
"G c #CBCBCB",
"H c #CECECE",
"J c gray83",
"K c gray84",
"L c #D8D8D8",
"P c #DADADA",
"I c #DDDDDD",
"U c #DFDFDF",
"Y c gray89",
"T c gray90",
"R c #E6E6E6",
"E c #E7E7E7",
"W c #E9E9E9",
"Q c #EAEAEA",
"! c #EEEEEE",
"~ c #EFEFEF",
"^ c gray94",
"/ c gray95",
"( c gray96",
") c #F6F6F6",
"_ c #F9F9F9",
"` c gray98",
"' c #FEFEFE",
"] c white",
/* pixels */
"                                                                      ",
"                                                                      ",
"                                                                      ",
"                                                                      ",
"                                                                      ",
"                                                                      ",
"                                                                      ",
"                                                                      ",
"                                                                      ",
"                                                                      ",
"                                                                      ",
"                                                                      ",
"                                                                      ",
"                                                                      ",
"                                                                      ",
"                                                                      ",
"                                                                      ",
"                                                                      ",
"                                                                      ",
"                                                                      ",
"                                                                      ",
"                                                                      ",
"                                                                      ",
"                                                                      ",
"                        o : *  X < . 5= ; e >  #                      ",
"                        X #&  ; ,  r   t q 5 X%                       ",
"                         & #-u O w   h  9 ;X & -                      ",
"                         ,3  ]I50P9 bBn ] '; %                        ",
"                        &  2tSML ] %SNSt/j`-  :                       ",
"                        X 5  ]Ze ] &]G] ,R6   >%                      ",
"                         =O uJd &]GzFmK& ] O&  o                      ",
"                        @  & t +  l k u   ;% > o                      ",
"        *    o  X. X%X .#  &oX$@. +o  X O =oo ;o                      ",
"         %O X    XO    @ #      X # @ %     #                         ",
"         % .  -$  XX.X   @O.#X :++& * OOX * +O -                      ",
"        $    .  <   X&  O        o     o  &                           ",
"        @ = .% q. -O  +1 .  O*@ * > 2 1o*    #%o                      ",
"        @ = # -_']]Ca    XX@O  :; $ + %  X *  .                       ",
"        % X @ 7]]]]V0X$%o O  49  f s p y 0 X= o                       ",
"        X # X# #]]Tv  -   = 9(]&;~,W0(4_]!0 o Xo                      ",
"        @  +  ; eHx O2 : @ &#/d  iU&oX  ]O ; + .                      ",
"          & -X :^]Dc     @o  ]Ah;KbE3Q4 ]*   X #                      ",
"        # + + 3]]]]P, 7   ++1]]E;) ] ]1oY8 XO                         ",
"        # & o ='])]!0 5 - O  o%, g p u  a X  $$$                      ",
"          + *o 4. *4  o.  #.,   , u q $#  2                           ",
"        o    #&  @ .>8  *o#   & = ;@#.+ oX# $.*                       ",
"        O +*  +#     * *  .&  .  , 4 *  %   @ #.                      ",
"         .X  =  = #& ;  -  . + o @  - $  X..% #                       ",
"                                                                      ",
"                                                                      ",
"                                                                      ",
"                                                                      ",
"                                                                      ",
"                                                                      ",
"                                                                      ",
"                                                                      ",
"                                                                      ",
"                                                                      ",
"                                                                      ",
"                                                                      ",
"                                                                      ",
"                                                                      ",
"                                                                      ",
"                                                                      ",
"                                                                      ",
"                                                                      ",
"                                                                      ",
"                                                                      ",
"                                                                      ",
"                                                                      "
};
