/* XPM */
static char *_8368_0cdcf3c755f8327e3be9b82b580fee37896d747c91384c90b6500a5e1af3fafe[] = {
/* columns rows colors chars-per-pixel */
"112 72 98 2 ",
"   c black",
".  c #010000",
"X  c #000100",
"o  c #010100",
"O  c #010101",
"+  c #030000",
"@  c #000200",
"#  c #000300",
"$  c #030301",
"%  c #000002",
"&  c #010002",
"*  c #000102",
"=  c #010103",
"-  c #020202",
";  c gray1",
":  c #040000",
">  c #060000",
",  c #070000",
"<  c #040002",
"1  c #040402",
"2  c #000004",
"3  c #010004",
"4  c #000104",
"5  c #000005",
"6  c #010005",
"7  c #000105",
"8  c #030005",
"9  c #000007",
"0  c #010007",
"q  c #020106",
"w  c #000206",
"e  c #000307",
"r  c #040005",
"t  c #050006",
"y  c #000405",
"u  c #040404",
"i  c gray2",
"p  c #060606",
"a  c #070707",
"s  c #080200",
"d  c #0C0000",
"f  c #0E0000",
"g  c #090600",
"h  c #000009",
"j  c #010009",
"k  c #00000B",
"l  c #01000B",
"z  c #00020E",
"x  c #08000B",
"c  c #03080B",
"v  c gray3",
"b  c gray4",
"n  c #120000",
"m  c #150000",
"M  c #080B12",
"N  c #0D0C11",
"B  c #191919",
"V  c #1D1D1D",
"C  c #343434",
"Z  c #EFC24B",
"A  c #FACA4E",
"S  c #E6C554",
"D  c #E7C655",
"F  c #E1C95D",
"G  c #F0C856",
"H  c #E3C56F",
"J  c #E9C469",
"K  c #F6CE6E",
"L  c #E9CF7A",
"P  c #E4D47F",
"I  c #F1D37D",
"U  c #EFDD89",
"Y  c #F5DB86",
"T  c #F1D999",
"R  c #EDE2A0",
"E  c #D7D7D7",
"W  c #FCF6D6",
"Q  c #FFF8D1",
"!  c #FFF9D4",
"~  c #FFF8DE",
"^  c #FFFFDF",
"/  c gray93",
"(  c #FFFFE3",
")  c #FFFFEA",
"_  c #F1F1F1",
"`  c gray95",
"'  c #FFFEF3",
"]  c #FFFCF6",
"[  c #FFFEF6",
"{  c #FFFFF6",
"}  c #FFFBFA",
"|  c #FFFBFF",
" . c #FFFEFD",
".. c #FFFCFF",
"X. c #FFFDFF",
"o. c #FCFFFF",
"O. c #FFFEFF",
"+. c white",
/* pixels */
"+.+.+.+.+.+.+.+.+.+.+.+.+.+.+.^ K A G I m n x l &   & &   X X X                                                                                                                                                                 ",
"+.+.+.+.+.+.+.+.+.+.+.+.+.+.+.^ J Z S L n d t j   X & 3 %     X                                                                                                                                                                 ",
"+.+.+.+.+.+.+.+.+.+.+.+.+.+.+.( H D F P f , . 2 X X & 6 6 9 9 5 %                                                                                                                                                               ",
"+.+.+.+.+.+.+.+.+.+.+.+.+.+.+.) T Y U R s +   * @ @   3 3 6 5 2 %                                                                                                                                                               ",
"+.+.+.+.+.+.+.+.+.+.+.+.+.+.+.[ ~ ! Q W g q 9 4 # @ X . . . . .                                                                                                                                                                 ",
"+.+.+.+.+.+.+.+.+.+.+.+.+.+.+. .} ] ' { N z k w @ @ X . . . o .                                                                                                                                                                 ",
"+.+.+.+.+.+.+.+.+.+.+.+.+.+.+.O.| ..O.+.M k h e @ @ X . . .                                                                                                                                                                     ",
"+.+.+.+.+.+.+.+.+.+.+.+.+.+.+.O.X.X.O.o.c 7 7 y X X   & 3 2 %                                                                                                                                                                   ",
"p   i   +.+.+.+.+.+.+.+.+.+.+.+.%   X @ # @ @ X X X   % 5 5 2 %                                                 +.+.+.+.+.+.+.+.;   O   ;   -   +.+.+.+.  O   O   -   ;   O   ; +.+.+.+.  v   ; O   O   +.+.+.+.O   O   +.+.+.+.",
"    ;   +.+.+.+.+.+.+.+.+.+.+.+.  X X @ @ @ @ X X X     5 5 X X                                                 +.+.+.+.+.+.+.+.  O O   -     p +.+.+.+.  O   O p     -   O O   +.+.+.+.  a i   O   O   +.+.+.+.O   O   +.+.+.+.",
";     O +.+.+.+.+.+.+.+.+.+.+.+.& & &   X X X       X X     X X                                                 +.+.+.+.+.+.+.+.; i   -   b     +.+.+.+.  O   O     b   -   i ; +.+.+.+.    a v O   O   +.+.+.+.O   O   +.+.+.+.",
"    u V _ +.+.+.+.+.+.+.` +.+.+.& 3 6 3 . . . & %   X X   . . o                                                 +.+.+.+.` +.+.+.      B       - +.+.+.+.  O   O -       B       +.+.+.E C       O   O   +.+.+.+.O   O   +.+.+.+.",
"-       B       +.+.+./ B O       % 6 3 . . . 3 5 5     6 8 + + .                                               +.+.+./ B O     +.+.+._ V u     +.+.+.+.  O   O     u V _ +.+.+.      C E +.+.+.O   O   +.+.+.+.O   O   +.+.+.+.",
"    b   -   i ; +.+.+.+.-   O u     0 6 . . . 2 5 5   . 8 r < : .                                               +.+.+.+.-   O u +.+.+.+.O     ; +.+.+.+.  O   O ;     O +.+.+.+.v a     +.+.+.+.O   O   +.+.+.+.O   O   +.+.+.+.",
"p     -   O O   +.+.+.+.  u     X X 9 5 . o   % 2 X X . + < , > .                                               +.+.+.+.  u     +.+.+.+.  ;     +.+.+.+.  O   O     ;   +.+.+.+.  i a   +.+.+.+.O   O   +.+.+.+.O   O   +.+.+.+.",
"  -   ;   O   ; +.+.+.+.  ;   1 X X 5 2 . .     % X X o + : > : .                                               +.+.+.+.  ;   u +.+.+.+.  i   p +.+.+.+.  O   O p   i   +.+.+.+.;   v   +.+.+.+.O   O   +.+.+.+.O   O   +.+.+.+.",
"u   ;   +.+.+.+.+.+.+.+.+.+.+.+.$   = % $   -           . . . .                                                 +.+.+.+.+.+.+.+.                +.+.+.+.  ;   u O   O   +.+.+.+.+.+.+.+.+.+.+.+.                +.+.+.+.  O   O ",
"    u   +.+.+.+.+.+.+.+.+.+.+.+.  O O   -     p                                                                 +.+.+.+.+.+.+.+.                +.+.+.+.  u     O   O   +.+.+.+.+.+.+.+.+.+.+.+.                +.+.+.+.  O   O ",
"u O   - +.+.+.+.+.+.+.+.+.+.+.+.; i   -   b                                                                     +.+.+.+.+.+.+.+.                +.+.+.+.-   O u O   O   +.+.+.+.+.+.+.+.+.+.+.+.                +.+.+.+.  O   O ",
"    O B / +.+.+.+.+.+.+.+.+.+.+.      B       -                                                                 +.+.+.+.` +.+.+.                +.+.+./ B O     O   O   +.+.+.+.+.+.+.` +.+.+.+.                +.+.+.+.  O   O ",
"+.+.+.` +.+.+.+.+.+.+.+.+.+.+.+.+.+.+._ V u                                                                     +.+.+./ B O                     +.+.+.+.` +.+.+.O   O   +.+.+.+.    O B / +.+.+.                +.+.+.+.  O   O ",
"+.+.+.+.+.+.+.+.+.+.+.+.+.+.+.+.+.+.+.+.O     ;                                                                 +.+.+.+.-   O u                 +.+.+.+.+.+.+.+.O   O   +.+.+.+.u O   - +.+.+.+.                +.+.+.+.  O   O ",
"+.+.+.+.+.+.+.+.+.+.+.+.+.+.+.+.+.+.+.+.  ;                                                                     +.+.+.+.  u                     +.+.+.+.+.+.+.+.O   O   +.+.+.+.    u   +.+.+.+.                +.+.+.+.  O   O ",
"+.+.+.+.+.+.+.+.+.+.+.+.+.+.+.+.+.+.+.+.  i   p                                                                 +.+.+.+.  ;   u                 +.+.+.+.+.+.+.+.O   O   +.+.+.+.u   ;   +.+.+.+.                +.+.+.+.  O   O ",
"+.+.+.+.+.+.+.+.+.+.+.+.+.+.+.+.+.+.+.+.  i   p                                                                                                                                                                                 ",
"+.+.+.+.+.+.+.+.+.+.+.+.+.+.+.+.+.+.+.+.  ;                                                                                                                                                                                     ",
"+.+.+.+.+.+.+.+.+.+.+.+.+.+.+.+.+.+.+.+.O     ;                                                                                                                                                                                 ",
"+.+.+.+.+.+.+.+.+.+.+.+.+.+.+.+.+.+.+._ V u                                                                                                                                                                                     ",
"                                      B       -                                                                                                                                                                                 ",
"O O O O O O O O O O O O O O O O ; i   -   b                                                                                                                                                                                     ",
"                                  O O   -     p                                                                                                                                                                                 ",
"O O O O O O O O O O O O O O O O ;   O   ;   -                                                                                                                                                                                   ",
"                                                                                                                                                                                                                                ",
"                                                                                                                                                                                                                                ",
"                                                                                                                                                                                                                                ",
"                                                                                                                                                                                                                                ",
"                                                                                                                                                                                                                                ",
"                                                                                                                                                                                                                                ",
"                                                                                                                                                                                                                                ",
"                                                                                                                                                                                                                                ",
"                                                                                                                                                                                                                                ",
"                                                                                                                                                                                                                                ",
"                                                                                                                                                                                                                                ",
"                                                                                                                                                                                                                                ",
"                                                                                                                                                                                                                                ",
"                                                                                                                                                                                                                                ",
"                                                                                                                                                                                                                                ",
"                                                                                                                                                                                                                                ",
"                                                                                                                                                                                                                                ",
"                                                                                                                                                                                                                                ",
"                                                                                                                                                                                                                                ",
"                                                                                                                                                                                                                                ",
"                                                                                                                                                                                                                                ",
"                                                                                                                                                                                                                                ",
"                                                                                                                                                                                                                                ",
"                                                                                                                                                                                                                                ",
"                                                                                                                +.+.+.+.+.+.+.+.                +.+.+.+.  v   ; +.+.+.+.  i   p +.+.+.+.  i   p +.+.+.+.+.+.+.+.+.+.+.+.  i   p ",
"                                                                                                                +.+.+.+.+.+.+.+.                +.+.+.+.  a i   +.+.+.+.  ;     +.+.+.+.  ;     +.+.+.+.+.+.+.+.+.+.+.+.  ;     ",
"                                                                                                                +.+.+.+.+.+.+.+.                +.+.+.+.    a v +.+.+.+.O     ; +.+.+.+.O     ; +.+.+.+.+.+.+.+.+.+.+.+.O     ; ",
"                                                                                                                +.+.+.+.` +.+.+.                +.+.+.E C       +.+.+._ V u     +.+.+._ V u     +.+.+.` +.+.+.+.+.+.+._ V u     ",
"                                                                                                                +.+.+./ B O                           C E +.+.+.      B       -       B       -     O B / +.+.+.      B       - ",
"                                                                                                                +.+.+.+.-   O u                 v a     +.+.+.+.; i   -   b     ; i   -   b     u O   - +.+.+.+.; i   -   b     ",
"                                                                                                                +.+.+.+.  u                       i a   +.+.+.+.  O O   -     p   O O   -     p     u   +.+.+.+.  O O   -     p ",
"                                                                                                                +.+.+.+.  ;   u                 ;   v   +.+.+.+.;   O   ;   -   ;   O   ;   -   u   ;   +.+.+.+.;   O   ;   -   ",
"                                                                                                                +.+.+.+.+.+.+.+.;   O   ;   -   +.+.+.+.  O   O +.+.+.+.  O   O +.+.+.+.  O   O O   O   +.+.+.+.                ",
"                                                                                                                +.+.+.+.+.+.+.+.  O O   -     p +.+.+.+.  O   O +.+.+.+.  O   O +.+.+.+.  O   O O   O   +.+.+.+.                ",
"                                                                                                                +.+.+.+.+.+.+.+.; i   -   b     +.+.+.+.  O   O +.+.+.+.  O   O +.+.+.+.  O   O O   O   +.+.+.+.                ",
"                                                                                                                +.+.+.+.+.+.+.+.      B       - +.+.+.+.  O   O +.+.+.+.  O   O +.+.+.+.  O   O O   O   +.+.+.+.                ",
"                                                                                                                +.+.+.+.+.+.+.+.+.+.+._ V u     +.+.+.+.  O   O +.+.+.+.  O   O +.+.+.+.  O   O O   O   +.+.+.+.                ",
"                                                                                                                +.+.+.+.+.+.+.+.+.+.+.+.O     ; +.+.+.+.  O   O +.+.+.+.  O   O +.+.+.+.  O   O O   O   +.+.+.+.                ",
"                                                                                                                +.+.+.+.+.+.+.+.+.+.+.+.  ;     +.+.+.+.  O   O +.+.+.+.  O   O +.+.+.+.  O   O O   O   +.+.+.+.                ",
"                                                                                                                +.+.+.+.+.+.+.+.+.+.+.+.  i   p +.+.+.+.  O   O +.+.+.+.  O   O +.+.+.+.  O   O O   O   +.+.+.+.                "
};
