/* XPM */
static char *_6884_adc44f1d616c4537271461febe34ae37f5c432c5cd8d2080826e859f495c3c3e[] = {
/* columns rows colors chars-per-pixel */
"112 68 94 2 ",
"   c black",
".  c #010000",
"X  c #000100",
"o  c #010100",
"O  c #010101",
"+  c #030000",
"@  c #000200",
"#  c #000300",
"$  c #000002",
"%  c #010002",
"&  c #000102",
"*  c #030002",
"=  c #000202",
"-  c #000303",
";  c #020202",
":  c gray1",
">  c #040000",
",  c #070000",
"<  c #000400",
"1  c #020401",
"2  c #000004",
"3  c #010004",
"4  c #000104",
"5  c #000005",
"6  c #010005",
"7  c #000105",
"8  c #030004",
"9  c #030005",
"0  c #000007",
"q  c #010007",
"w  c #000107",
"e  c #020106",
"r  c #030007",
"t  c #040007",
"y  c #040404",
"u  c gray2",
"i  c #060606",
"p  c #070707",
"a  c #080000",
"s  c #090001",
"d  c #0D0000",
"f  c #0E0000",
"g  c #0A0501",
"h  c #090004",
"j  c #060803",
"k  c #030009",
"l  c #00030A",
"z  c gray3",
"x  c gray4",
"c  c #0A0C09",
"v  c #100000",
"b  c #110000",
"n  c #100200",
"m  c #140000",
"M  c #150000",
"N  c #0C0D12",
"B  c #191919",
"V  c #1D1D1D",
"C  c #343434",
"Z  c #EBC44B",
"A  c #EAC64E",
"S  c #E5C35F",
"D  c #E6C663",
"F  c #E3C766",
"G  c #E5C765",
"H  c #EACB70",
"J  c #E3C87B",
"K  c #EACC83",
"L  c #EBCF85",
"P  c #E8D086",
"I  c #F8DA80",
"U  c #F4DA8F",
"Y  c #E8D299",
"T  c #F2DA92",
"R  c #F3DEA7",
"E  c #D7D7D7",
"W  c #FFF7DD",
"Q  c #FFF9DB",
"!  c #FFFFDF",
"~  c gray93",
"^  c #FCF3E2",
"/  c #FFF8E1",
"(  c #FFFFE6",
")  c #FFFFE8",
"_  c #F1F1F1",
"`  c gray95",
"'  c #FFFFF6",
"]  c #FEFFFB",
"[  c #FFFCFD",
"{  c #FFFDFD",
"}  c #FFFFFD",
"|  c #FFFDFF",
" . c #FFFEFF",
".. c white",
/* pixels */
"                                                                                                                ................:   O   :   ;   ........  O   O   ;   :   O   : ........  z   : O   O   ........O   O   ........",
"                                                                                                                ................  O O   ;     i ........  O   O i     ;   O O   ........  p u   O   O   ........O   O   ........",
"                                                                                                                ................: u   ;   x     ........  O   O     x   ;   u : ........    p z O   O   ........O   O   ........",
"                                                                                                                ........` ......      B       ; ........  O   O ;       B       ......E C       O   O   ........O   O   ........",
"                                                                                                                ......~ B O     ......_ V y     ........  O   O     y V _ ......      C E ......O   O   ........O   O   ........",
"                                                                                                                ........;   O y ........O     : ........  O   O :     O ........z p     ........O   O   ........O   O   ........",
"                                                                                                                ........  y     ........  :     ........  O   O     :   ........  u p   ........O   O   ........O   O   ........",
"                                                                                                                ........  :   y ........  u   i ........  O   O i   u   ........:   z   ........O   O   ........O   O   ........",
"                                                                                                                ................                ........  :   y O   O   ........................                ........  O   O ",
"                                                                                                                ................                ........  y     O   O   ........................                ........  O   O ",
"                                                                                                                ................                ........;   O y O   O   ........................                ........  O   O ",
"                                                                                                                ........` ......                ......~ B O     O   O   ..............` ........                ........  O   O ",
"                                                                                                                ......~ B O                     ........` ......O   O   ........    O B ~ ......                ........  O   O ",
"                                                                                                                ........;   O y                 ................O   O   ........y O   ; ........                ........  O   O ",
"                                                                                                                ........  y                     ................O   O   ........    y   ........                ........  O   O ",
"                                                                                                                ........  :   y                 ................O   O   ........y   :   ........                ........  O   O ",
"                                                                                                                                                                                                                                ",
"                                                                                                                                                                                                                                ",
"                                                                                                                                                                                                                                ",
"                                                                                                                                                                                                                                ",
"                                                                                                                                                                                                                                ",
"                                                                                                                                                                                                                                ",
"                                                                                                                                                                                                                                ",
"                                                                                                                                                                                                                                ",
"                                                                                                                                                                                                                                ",
"                                                                                                                                                                                                                                ",
"                                                                                                                                                                                                                                ",
"                                                                                                                                                                                                                                ",
"                                                                                                                                                                                                                                ",
"                                                                                                                                                                                                                                ",
"                                                                                                                                                                                                                                ",
"                                $ $     X X $           $ $ .                                                                                                                                                                   ",
"                              $ 3 2 $ X & & 4 $   X . % 3 3 * %                                                                                                                                                                 ",
"                                8 % .   X & $ $ X . . . 8 * . .                                                                                                                                                                 ",
"                              . > > > + . . . . . + + + . . @ @ X                                                                                                                                                               ",
"                              . + + + o o . . . . + + + . . @ @ X                                                                                                                                                               ",
"                              $ 0 5 X @ @ @ X X   . * 9 k q 3                                                                                                                                                                   ",
"                              $ 0 5 & @ @ @ = X X   % 9 k k r 3 $                                                                                                                                                               ",
"                              . + + . X X 4 7 4 @ X . . 8 8 * + .                                                                                                                                                               ",
"                              > d f d a > . 5 5 X X X . + + > + .                                                                                                                                                               ",
"..............................( P H J Y b n h r 3     X . . + + .                                                                                                                                                               ",
"..............................! G Z S K M v s t 6 $     . . + . .                                                                                                                                                               ",
"..............................! F A D L m d , r 5 $ X   3 3 * % .                                                                                                                                                               ",
"..............................) T I U R f a * 0 $ X X X % 3 8 %                                                                                                                                                                 ",
"..............................' / Q W ^ g e 0 7 @ < # @ . . . .                                                                                                                                                                 ",
".............................. .[ [ {  .N l w - # < @ X X   X X                                                                                                                                                                 ",
".............................. .| | } ] c X X < @ @ X   $ $ @ @                                                                                                                                                                 ",
"................................ ...} ] j @ X 1 X X   $ 2 $ X @ X                                                                                                                                                               ",
"i   u   ........................$         X             $   X X                                                 ................                ........  z   : ........  u   i ........  u   i ........................  u   i ",
"    :   ........................                                                                                ................                ........  p u   ........  :     ........  :     ........................  :     ",
":     O ........................                                                                                ................                ........    p z ........O     : ........O     : ........................O     : ",
"    y V _ ..............` ......                                                                                ........` ......                ......E C       ......_ V y     ......_ V y     ......` .............._ V y     ",
";       B       ......~ B O                                                                                     ......~ B O                           C E ......      B       ;       B       ;     O B ~ ......      B       ; ",
"    x   ;   u : ........;   O y                                                                                 ........;   O y                 z p     ........: u   ;   x     : u   ;   x     y O   ; ........: u   ;   x     ",
"i     ;   O O   ........  y                                                                                     ........  y                       u p   ........  O O   ;     i   O O   ;     i     y   ........  O O   ;     i ",
"  ;   :   O   : ........  :   y                                                                                 ........  :   y                 :   z   ........:   O   :   ;   :   O   :   ;   y   :   ........:   O   :   ;   ",
"y   :   ........................:   O   :   ;                                                                   ................:   O   :   ;   ........  O   O ........  O   O ........  O   O O   O   ........                ",
"    y   ........................  O O   ;     i                                                                 ................  O O   ;     i ........  O   O ........  O   O ........  O   O O   O   ........                ",
"y O   ; ........................: u   ;   x                                                                     ................: u   ;   x     ........  O   O ........  O   O ........  O   O O   O   ........                ",
"    O B ~ ......................      B       ;                                                                 ................      B       ; ........  O   O ........  O   O ........  O   O O   O   ........                ",
"......` .............................._ V y                                                                     ......................_ V y     ........  O   O ........  O   O ........  O   O O   O   ........                ",
"........................................O     :                                                                 ........................O     : ........  O   O ........  O   O ........  O   O O   O   ........                ",
"........................................  :                                                                     ........................  :     ........  O   O ........  O   O ........  O   O O   O   ........                ",
"........................................  u   i                                                                 ........................  u   i ........  O   O ........  O   O ........  O   O O   O   ........                ",
"........................................  O   O                                                                                                                                                                                 ",
"........................................  O   O                                                                                                                                                                                 ",
"........................................  O   O                                                                                                                                                                                 ",
"........................................  O   O                                                                                                                                                                                 "
};
