/* XPM */
static char *_3211_ff6cb0e497a2e85effcdd74b87db06d41187c56864789e11386b4f2c391a7327[] = {
/* columns rows colors chars-per-pixel */
"70 70 90 1 ",
"  c black",
". c #010101",
"X c #020202",
"o c gray1",
"O c #040404",
"+ c gray2",
"@ c #060606",
"# c #070707",
"$ c gray3",
"% c #090909",
"& c gray4",
"* c #0B0B0B",
"= c #0C0C0C",
"- c gray5",
"; c #0E0E0E",
": c gray6",
"> c #101010",
", c #111111",
"< c gray7",
"1 c #131313",
"2 c gray8",
"3 c #151515",
"4 c #161616",
"5 c gray9",
"6 c #181818",
"7 c #191919",
"8 c gray10",
"9 c #1B1B1B",
"0 c gray11",
"q c #1D1D1D",
"w c #1E1E1E",
"e c gray12",
"r c gray13",
"t c #222222",
"y c gray14",
"u c #252525",
"i c gray15",
"p c #282828",
"a c gray16",
"s c #2A2A2A",
"d c gray17",
"f c #2C2C2C",
"g c #2D2D2D",
"h c #323232",
"j c #343434",
"k c #373737",
"l c #3A3A3A",
"z c #3F3F3F",
"x c #414141",
"c c gray28",
"v c #484848",
"b c #494949",
"n c gray30",
"m c #4E4E4E",
"M c #515151",
"N c #6D6D6D",
"B c #ACACAC",
"V c #B1B1B1",
"C c #BBBBBB",
"Z c #BCBCBC",
"A c gray",
"S c #C5C5C5",
"D c #C6C6C6",
"F c gray80",
"G c #D2D2D2",
"H c gray84",
"J c #D7D7D7",
"K c #DADADA",
"L c gray86",
"P c #DDDDDD",
"I c #DFDFDF",
"U c #E1E1E1",
"Y c #E2E2E2",
"T c gray89",
"R c gray90",
"E c #E6E6E6",
"W c #E7E7E7",
"Q c gray91",
"! c #E9E9E9",
"~ c #EAEAEA",
"^ c #EEEEEE",
"/ c #EFEFEF",
"( c #F3F3F3",
") c #F4F4F4",
"_ c gray96",
"` c #F6F6F6",
"' c #F9F9F9",
"] c gray98",
"[ c #FDFDFD",
"{ c white",
/* pixels */
"                                                                      ",
"                                                                      ",
"                                                                      ",
"                                                                      ",
"                                                                      ",
"                                                                      ",
"                                                                      ",
"                                                                      ",
"                                                                      ",
"                                                                      ",
"                                                                      ",
"                                                                      ",
"                                                                      ",
"                                                                      ",
"                                                                      ",
"                                                                      ",
"                                                                      ",
"                                                                      ",
"                                                                      ",
"                                                                      ",
"                                                                      ",
"                                                                      ",
"                                                                      ",
"                                                                      ",
"        o O+.$ ,; +2  - $ % ;O   ;.  ;> > e -  %                      ",
"        @     q{{[{A8     --  =.2  j > r q 9 O$                       ",
"          %%: =]{{{D8 16@#  3j   ;t 7:  8 :O * &                      ",
"        .      tR{Jm     2y  {Kyt^ ohVn { [= # .                      ",
"        +# o 9= cBb  8.:4  -gGNF {s TzHp_l'&  >                       ",
"         ; #   eT{Px*>    i  {Cf { u{_{ :R8   :@                      ",
"         X  & w({{{Z0 O# &  sKh #[WgLvU- { #=.                        ",
"        O O $  {{E{{q < . .- w &  j j t   -@ : @                      ",
"                        #  &oX$@+ @%  % O =oo ;o                      ",
"                         #        @ * X     #                         ",
"                         @O.#X :.=% ,  $X * +O -                      ",
"                        O                 &                           ",
"                         .  O*@ : , > 8 *    #%o                      ",
"                         XX@O  :& # * o  X *  .                       ",
"                        o O  50  k s g a q X= o                       ",
"                          = 0_{&<!1/6)w_{^q o Xo                      ",
"                        .   1Qk  pI&oX  {X - o                        ",
"                         o# X{Sk;HMW4~5 {-   O &                      ",
"                          .&;{{Q;` { {1oY9 Xo                         ",
"                        *+ + ;X1 h f i  d    +@@                      ",
"                         + -+&  , i w $#  6                           ",
"                        &+X  .# = ;@#.+ Oo$ %X*.                      ",
"                          +++ o  , 5 *  @   o +                       ",
"                        : & *  . @  - $  OXo* $                       ",
"                                                                      ",
"                                                                      ",
"                                                                      ",
"                                                                      ",
"                                                                      ",
"                                                                      ",
"                                                                      ",
"                                                                      ",
"                                                                      ",
"                                                                      ",
"                                                                      ",
"                                                                      ",
"                                                                      ",
"                                                                      ",
"                                                                      ",
"                                                                      ",
"                                                                      ",
"                                                                      ",
"                                                                      ",
"                                                                      ",
"                                                                      ",
"                                                                      "
};
