/* XPM */
static char *_7615_c415f857a06ad178cccc2e5d1a90e019ebd83f9a952becac3cb05ca024a5967b[] = {
/* columns rows colors chars-per-pixel */
"64 56 196 2 ",
"   c #361D19",
".  c #1D2433",
"X  c #1D2A33",
"o  c #1D273C",
"O  c #1C2B3E",
"+  c #1B2429",
"@  c #2A2125",
"#  c #24242E",
"$  c #25242B",
"%  c #3C2524",
"&  c #32262B",
"*  c #232632",
"=  c #292633",
"-  c #242B36",
";  c #2B2B35",
":  c #24273B",
">  c #2A2739",
",  c #252A3C",
"<  c #2B2C3C",
"1  c #34273B",
"2  c #302A3A",
"3  c #352B33",
"4  c #25303B",
"5  c #2C323B",
"6  c #3D3130",
"7  c #32323E",
"8  c #353132",
"9  c #4B1F1C",
"0  c #44231C",
"q  c #49221B",
"w  c #512B17",
"e  c #5F3319",
"r  c #431E26",
"t  c #412322",
"y  c #422E2C",
"u  c #4E2E29",
"i  c #482625",
"p  c #1D2C43",
"a  c #1A2C48",
"s  c #1F3146",
"d  c #1E324B",
"f  c #232C42",
"g  c #292C43",
"h  c #242D49",
"j  c #2A2E4B",
"k  c #222646",
"l  c #233142",
"z  c #2B3143",
"x  c #24324A",
"c  c #323343",
"v  c #393D46",
"b  c #293651",
"n  c #32404B",
"m  c #3D4A50",
"M  c #434654",
"N  c #BF6F34",
"B  c #FE7315",
"V  c #F6751C",
"C  c #FC741B",
"Z  c #F5781E",
"A  c #DE7427",
"S  c #DA7529",
"D  c #C06E34",
"F  c #CE773A",
"G  c #DA773C",
"H  c #EF782A",
"J  c #F47523",
"K  c #F37A25",
"L  c #F3772A",
"P  c #F2792B",
"I  c #F97A23",
"U  c #EC7C32",
"Y  c #E27C3C",
"T  c #E97C39",
"R  c #F97E30",
"E  c #A37A5E",
"W  c #BD7C5A",
"Q  c #A77760",
"!  c #CE7B45",
"~  c #D97F42",
"^  c #D57C4C",
"/  c #D97D4A",
"(  c #D87744",
")  c #E67D45",
"_  c #F4822E",
"`  c #F58031",
"'  c #9C887F",
"]  c #A28578",
"[  c #D48147",
"{  c #D8844E",
"}  c #C4845E",
"|  c #DC8951",
" . c #D38256",
".. c #E0814B",
"X. c #C38463",
"o. c #DC9465",
"O. c #FFA665",
"+. c #FEA86B",
"@. c #FBA872",
"#. c #7E8A93",
"$. c #7E909A",
"%. c #8B8D8A",
"&. c #998784",
"*. c #888D94",
"=. c #8D9A94",
"-. c #87999A",
";. c #8D9B9B",
":. c #8F979A",
">. c #939794",
",. c #999695",
"<. c #959C95",
"1. c #9A9C96",
"2. c #94979A",
"3. c #969C9A",
"4. c #9A9C9B",
"5. c #989699",
"6. c #A18581",
"7. c #A29C99",
"8. c #9CA096",
"9. c #95A19D",
"0. c #9AA19E",
"q. c #A5A89F",
"w. c #8D9CA2",
"e. c #8D9DAB",
"r. c #8D97A1",
"t. c #9397A0",
"y. c #959CA2",
"u. c #999DA3",
"i. c #929CAA",
"p. c #9895A0",
"a. c #8EA2A4",
"s. c #93A1A3",
"d. c #9AA2A2",
"f. c #97A4AC",
"g. c #9DA8AB",
"h. c #9AA5A9",
"j. c #A6A6A2",
"k. c #A6A5AA",
"l. c #A9A9B4",
"z. c #E8AD8D",
"x. c #ECB78F",
"c. c #F4B489",
"v. c #ECB694",
"b. c #EEBB96",
"n. c #F1B690",
"m. c #F1B996",
"M. c #DFBAA6",
"N. c #E0BAA7",
"B. c #CEC5BE",
"V. c #DFCEBE",
"C. c #D7C4B7",
"Z. c #CFD0BE",
"A. c #E8C7A6",
"S. c #FCC6A5",
"D. c #E3CDBE",
"F. c #E6C7B9",
"G. c #E6D1BE",
"H. c #BEC9CF",
"J. c #BFCCDC",
"K. c #CACCC5",
"L. c #C5CDCB",
"P. c #CCCCCC",
"I. c #C6C8C2",
"U. c #D3C6C3",
"Y. c #D4CBC4",
"T. c #DECDC5",
"R. c #D2CECC",
"E. c #DECFCC",
"W. c #CCD2C4",
"Q. c #C6D0CC",
"!. c #CCD1CB",
"~. c #D5D2CE",
"^. c #D8D1C9",
"/. c #C6CBD2",
"(. c #CBCCD3",
"). c #CBCCDA",
"_. c #D1CED0",
"`. c #CBD2D3",
"'. c #C2D2DC",
"]. c #CAD3D7",
"[. c #D5D7DB",
"{. c #E3C8C3",
"}. c #E9CBC0",
"|. c #F9DACD",
" X c #F4DEC9",
".X c #F1DDD6",
"XX c #DFE1DE",
"oX c #E7E7DB",
"OX c #C1CCE0",
"+X c #DCDAE2",
"@X c #E1DDE3",
"#X c #E5E4E1",
"$X c #ECE3E4",
"%X c #EBE3EA",
"&X c #E7E6EA",
"*X c #F0E8E5",
/* pixels */
"3.3.3.3.3.3.3.3.1.3.3.3.3.3.3.3.3.3.3.3.3.3.3.3.3.3.3.3.3.3.3.3.3.3.3.3.3.3.3.3.9.3.3.3.3.3.3.3.3.3.3.3.3.3.3.3.3.3.3.3.3.3.3.3.",
"3.3.3.3.3.3.3.3.3.3.3.3.3.3.3.3.3.3.3.3.3.3.3.3.3.3.3.3.3.3.3.3.3.3.8.3.3.3.3.3.1.3.3.3.3.3.3.1.3.3.3.3.3.3.3.3.3.3.3.3.3.3.3.3.",
"3.3.3.3.3.3.3.3.3.3.3.3.3.3.3.3.3.3.3.3.3.3.3.3.3.3.1.3.3.3.3.3.3.3.3.3.3.3.3.3.3.3.3.3.3.3.3.3.3.3.3.3.3.3.3.3.3.3.3.3.3.3.3.3.",
"3.3.3.3.3.3.3.3.3.3.3.3.3.3.3.3.3.3.1.3.3.3.3.3.3.3.3.3.3.3.3.3.3.3.3.3.3.3.3.3.3.3.3.3.3.3.3.3.3.3.3.3.3.3.3.3.3.1.3.3.3.3.3.3.",
"3.3.3.3.3.3.3.3.3.3.3.3.3.3.1.3.3.3.3.3.3.3.3.3.3.3.3.3.3.3.3.3.3.3.3.3.3.3.3.3.3.3.3.3.3.3.3.3.3.3.3.3.3.1.3.3.3.3.3.3.3.3.3.3.",
"3.3.3.3.3.1.3.3.3.3.3.3.3.3.3.3.3.3.3.3.3.3.3.3.3.3.3.3.3.3.3.1.3.3.3.3.3.3.3.3.3.3.3.3.3.3.3.3.3.3.3.3.3.3.3.3.3.3.3.3.3.3.3.3.",
"3.3.3.3.3.3.3.3.3.3.3.3.3.3.3.3.3.3.3.0.3.3.3.3.3.3.3.3.3.3.3.3.3.3.3.3.3.3.3.3.3.3.3.3.3.3.3.3.3.3.3.3.3.3.3.3.3.3.3.3.3.3.3.3.",
"3.3.3.3.3.3.3.3.3.3.3.3.3.3.3.3.3.3.3.3.3.3.3.3.3.3.3.3.3.3.3.3.3.1.3.3.<.3.3.3.3.3.3.3.3.3.3.3.3.3.3.3.3.3.3.3.3.3.3.3.3.3.8.1.",
"3.3.3.3.3.3.3.3.3.3.3.3.3.3.3.3.3.3.3.3.3.3.3.3.3.1.3.3.3.3.3.3.3.3.3.3.3.3.3.3.3.3.3.3.4.3.3.3.3.3.3.3.3.3.8.3.3.3.3.3.3.3.3.3.",
"3.3.3.3.3.3.3.3.3.3.3.3.3.3.3.3.3.3.3.3.3.3.3.3.3.3.3.3.3.3.3.3.3.3.3.3.3.3.3.3.3.3.3.3.3.3.3.3.3.3.3.3.3.3.3.3.3.3.3.3.3.3.3.3.",
"3.3.3.3.3.3.3.3.3.3.3.3.3.3.3.3.3.3.3.3.3.3.3.3.3.3.3.3.3.3.3.3.3.3.3.3.3.5.3.3.3.3.3.3.3.3.3.3.3.3.3.3.3.3.3.3.3.3.3.3.3.3.3.3.",
"3.1.3.3.3.3.3.3.3.3.1.3.3.3.3.3.3.3.3.3.3.3.3.3.3.3.3.3.3.3.3.3.3.3.3.3.3.3.3.3.3.3.3.3.3.3.3.3.3.3.3.3.3.3.3.3.3.3.3.3.3.3.3.3.",
"3.3.3.3.1.3.3.3.3.3.3.3.3.3.3.3.3.3.3.3.3.3.3.3.3.3.3.3.3.3.3.3.3.3.3.3.3.3.3.3.3.3.3.3.3.3.3.3.3.3.3.3.3.3.3.3.3.3.3.3.3.3.3.3.",
"3.3.3.3.3.3.3.3.3.3.3.3.3.3.3.3.3.3.3.3.3.3.3.3.3.3.3.3.3.3.3.3.3.3.3.3.3.3.3.3.3.3.3.3.3.3.3.3.3.3.3.3.3.3.3.3.3.3.3.3.3.3.3.3.",
"3.3.3.3.3.3.3.3.3.3.3.3.9.1.3.3.3.3.3.3.3.3.3.3.3.3.3.3.3.3.3.3.3.3.3.3.3.3.3.3.3.3.3.3.3.3.3.3.3.3.3.3.3.3.3.3.3.3.3.3.3.3.3.3.",
"3.3.3.3.3.3.3.3.3.3.3.3.3.3.3.3.3.3.3.3.3.3.3.3.y.3.y.3.w.y.y.3.3.y.3.y.y.3.y.3.4.3.3.3.3.3.3.3.3.3.3.3.3.3.3.1.<.3.3.3.3.3.3.3.",
"3.3.3.3.3.1.3.3.3.3.3.3.3.3.3.3.<.3.4.2.d.3.3.i.> > - , s O f p x f o , , , : * y.t.3.d.:.3.4.1.3.3.3.3.3.3.3.3.3.3.3.3.3.3.3.3.",
"3.3.3.3.3.3.3.3.3.3.3.3.3.3.3.3.0.1.5.1.3.3.;.;.< , g g s s h h x h h f g z g - t.3.3.9.:.3.3.1.1.3.3.3.3.3.3.3.3.3.3.3.3.3.3.3.",
"3.3.3.3.3.3.3.3.3.3.3.3.3.3.3.<.<.<.,.1.<.d.s.u.; > > , , , , , , O O O , , - * y.d.3.3.9.>.<.<.3.3.3.3.3.3.3.3.3.3.3.3.3.3.<.3.",
"3.3.3.3.3.3.3.3.3.3.3.3.3.3.3.3.=.>.8.q.%.2.y.u.7 2 2 2 5 g < < - - , 4 5 c 7 5 i.y.<.%.q.8.>.>.3.3.3.3.3.3.3.3.3.3.3.3.3.3.3.1.",
"3.3.3.3.3.3.3.3.3.3.3.3.3.3.3.3.d.9.1.%.v 4 - ; (.P././././.L.P.(.(.(.].+X+X+X@X; < 5 7 %.7.1.0.3.3.3.3.3.3.3.3.3.3.3.3.3.3.3.3.",
"3.3.3.3.3.3.3.3.3.3.3.3.3.3.3.3.y.3.0.2.4 : , , (.!.(.(.(.(.(.P.~._.].+X#X&X%X%X> , - 7 ,.0.5.9.3.3.3.3.3.3.3.3.3.3.3.3.3.3.3.3.",
"3.3.3.3.3.3.8.3.3.3.3.3.3.3.3.3.3.:.4.4.f f x g P.P.L.P././.L.Q.L.L.P.].[.#XoX&Xl d p , 4.4.;.;.3.3.3.3.3.3.3.3.3.3.3.3.3.3.3.3.",
"3.3.3.3.3.3.3.3.3.3.3.3.3.3.3.3.y.3.3.y.p a j , (.Y.!.P.P.!.Q.Q.L.!.Q.[.#X#X*X&X, d a O d.3.;.a.9.<.3.3.3.3.3.3.3.1.3.3.3.3.3.3.",
"3.3.3.3.3.3.3.3.3.3.3.3.3.3.3.3.3.>.8.9.s p z ; ~.Y.^.B.T.U.R.K.K.K.Z.^.K.^.U.R.- x a O 0.1.<.3.3.3.3.3.3.3.3.3.3.3.3.3.3.3.3.3.",
"3.3.3.3.3.3.3.3.3.3.3.3.3.3.3.3.2.<.8.9.O p g 2 U.C.T.C.G.F.D.V.V.D.C.}.C.T.C.U.2 g a f 4.7.>.<.3.3.3.3.3.3.3.3.3.3.3.3.3.3.3.3.",
"3.3.3.3.3.3.3.3.3.3.3.1.3.3.3.3.3.3.8.=.4 O > & V.D.D.M.S.x.b.b.b.m.n.S.N.}.{.{.& > p x ,.7.7.4.3.3.3.3.3.3.3.3.3.3.3.3.3.3.3.3.",
"3.3.3.3.3.3.3.3.3.3.3.3.3.3.3.3.0.4.<.%.n l ; & &.' ' E o.| { { | | | o.Q ] 6.&.& ; g v %.5.4.d.3.3.3.3.3.3.3.3.3.3.3.3.3.3.3.3.",
"3.3.3.3.3.3.3.3.3.3.3.3.3.3.3.3.2.2.4.k.*.w.4.7.8 6 y e D S A H A S S N e y 6 8 7.4.w.$.g.9.;.;.3.3.3.3.3.3.3.3.3.3.3.3.3.1.3.3.",
"<.3.3.3.3.3.3.3.3.3.3.3.3.3.3.9.3.:.,.4.t.f.4.4.# = @ w F P I I I P R F w @ - * 4.3.s.w.s.;.;.;.9.3.3.3.3.3.3.3.3.3.3.3.3.3.3.3.",
"3.3.3.3.1.3.3.3.8.3.3.3.3.3.3.3.s.9.<.,.y.3.=.2.x b , u ! ` J C C Z R ^ u , b x 5.1.9.4.<.<.0.3.3.3.3.3.3.3.3.3.3.3.3.3.8.3.3.3.",
"3.3.3.3.3.3.3.3.3.3.3.3.3.3.3.<.=.9.1.>.d.9.<.s.o x : 6 W { ( ) ) G ^ ! 6 o d O u.,.4.8.=.<.1.=.3.3.3.3.3.3.3.3.3.3.3.3.3.3.3.3.",
"3.3.3.3.3.9.3.1.3.3.3.3.3.3.3.<.=.<.3.3.3.3.3.3.y.f.:.k.  i r r t   q   j.;.a.s.3.1.4.y.9.3.<.<.<.3.3.3.3.3.9.3.3.3.3.3.3.3.3.3.",
"1.3.3.3.3.3.3.<.3.3.3.3.3.3.3.<.8.<.<.3.3.4.1.3.9.;.;.h.o c j k k j c # h.=.;.9.1.3.5.3.;.a.8.3.3.3.3.3.3.3.3.3.3.3.3.3.3.3.3.3.",
"3.3.3.3.3.3.3.3.3.3.3.3.3.3.3.3.8.3.3.y.y.5.3.y.;.-.a.a.X . l O , l * * a.s.-.;.1.1.<.1.3.=.3.3.3.3.3.3.3.3.3.3.3.3.3.3.3.1.3.3.",
"3.3.3.3.3.3.3.3.3.3.3.3.3.3.3.3.3.3.y.3.3.4.3.3.g.h.a.#.m 4 - X X , z M $.a.f.g.1.1.1.<.3.9.3.3.3.3.3.3.3.3.3.3.3.3.3.3.3.3.3.3.",
"3.3.3.3.3.3.3.3.3.3.3.3.3.3.3.9.;.3.8.=.8.<.<.3.$ $ # M l.(.P.P.`././.l.M o . + 5.5.1.<.9.3.u.p.3.3.3.3.3.3.3.3.3.3.3.3.3.3.3.3.",
"3.3.3.3.3.3.3.3.3.3.3.3.3.3.3.<.;.9.=.8.=.8.3.3.; 7 $ 7 ).+XR.R.P.L.+X).z * 5 < y.4.1.3.3.3.3.p.3.3.3.3.3.3.3.3.3.3.3.3.3.3.3.3.",
"3.3.3.3.3.3.3.3.3.3.3.3.3.3.3.3.;.9.9.<.9.;.e.i.: g , g '.J.H.Q.Q.I./.).> < 7 * y.y.3.<.3.3.t.y.3.3.3.3.3.3.3.3.3.3.3.3.3.3.3.3.",
"3.3.3.3.3.3.3.3.3.3.3.3.3.3.3.3.y.3.9.;.y.e.e.e.- * - - '.J.Q.Q.Q.!.(.).= = = ; i.i.e.3.3.<.3.3.3.3.3.3.3.3.3.3.3.3.3.3.3.3.3.3.",
"3.3.3.1.3.3.3.3.3.3.3.3.3.3.3.3.3.3.4.3.4 p l , _.Y.Y.T.P.W.Z.Z.oXoX&X&X$X$X$X%Xg h , - 2.1.3.3.3.3.3.3.3.3.3.3.3.1.3.3.3.3.3.3.",
"3.3.3.3.3.3.3.3.3.3.3.3.3.3.3.3.;.3.5.2.z o , ; {.A.A.A.A.A.A.A. X X.X.X|.|.|..X> h p g <.1.1.<.3.3.3.3.3.3.3.3.3.3.3.3.3.3.3.3.",
"3.3.3.3.3.3.3.3.3.3.3.3.3.3.3.3.<.<.1.,.< , 2 t X.^ ~ ~ [ [ ~ [ c.x.v.v.c.n.v.M.3 g f g 2.1.<.<.3.<.3.3.3.3.3.3.3.3.3.3.3.3.3.3.",
"3.3.3.3.3.3.3.3.3.3.3.3.3.3.3.9.=.3.1.1.g , 1 q  .T L L T U P H O.+.@.@.O.O.@.z.% g p 4 2.1.<.<.3.3.3.3.3.3.3.3.3.3.3.3.3.3.3.3.",
"3.3.3.3.3.3.3.3.3.3.3.3.3.3.3.3.y.5.4.p.j k 1 9 ^ H C B J J V V Z H U U I K U  .9 > f f 2.3.3.3.3.3.3.3.3.3.3.3.3.3.3.3.3.3.3.3.",
"3.3.3.1.3.3.3.3.3.3.3.3.3.3.3.;.3.t.4.p.h h < 9 / K B B I J C B V Z J J B B H ^ q 1 p l 2.1.;.3.3.3.1.3.3.3.3.3.3.3.3.3.3.3.3.1.",
"3.3.3.3.3.3.3.3.3.3.3.3.3.3.3.3.3.3.1.3.l a < q ^ Z B B J K J V Z Z P J C C L ^ q > p s ;.8.3.3.3.3.3.3.3.3.3.3.3.3.3.3.3.3.3.3.",
"3.3.3.3.3.3.3.3.3.3.3.3.3.3.3.3.3.2.3.2.l O ; % } [ U Y [ ^ ~ ~ [ Y ^ / Y Y ^ X.% ; f l 2.3.3.;.3.3.3.3.3.3.3.8.3.3.3.3.3.3.3.3.",
"3.3.3.3.3.3.3.3.3.3.3.3.3.3.3.3.3.3.3.y.y.i.t.p.% t 0 0 % t t t t t t t t 0 % % 4.p.i.i.3.3.3.3.3.3.3.3.3.3.3.3.3.3.3.3.3.3.3.3.",
"3.3.3.3.3.3.3.3.3.3.3.3.3.3.3.3.3.3.3.3.3.3.y.y.< g g g g g g g g g g g g g < < u.y.3.3.3.3.3.3.3.3.3.3.3.3.3.3.3.3.3.3.3.3.3.3.",
"3.3.3.3.3.3.3.3.3.3.3.3.3.3.3.3.3.3.3.3.3.3.y.y.- ; > , g : , , k > , , , : - - y.y.3.3.3.3.3.3.3.3.3.3.3.3.3.3.3.3.3.3.3.3.3.3.",
"3.3.3.3.3.3.3.3.3.3.3.3.3.3.3.3.3.<.3.<.3.3.3.y.; 4 < < < < < > < < < < < < < < y.p.3.3.3.3.3.3.3.3.3.3.3.3.3.3.3.3.3.3.3.3.3.3.",
"3.3.3.3.3.3.3.3.3.3.3.3.3.3.3.3.<.3.3.<.<.3.3.3.3.t.2.t.t.t.t.2.t.t.t.t.t.t.3.2.3.3.3.3.<.<.3.3.3.3.3.3.3.3.3.3.3.3.3.3.3.3.3.3.",
"3.3.3.3.3.<.3.3.3.3.3.3.3.3.3.3.3.3.3.8.<.3.3.3.3.y.y.y.y.y.y.3.y.3.u.y.y.t.y.y.3.3.1.<.<.<.3.3.3.3.3.1.3.3.3.8.3.3.3.3.3.3.3.3.",
"3.3.1.3.3.3.3.3.3.3.3.3.3.3.3.3.3.<.<.8.<.8.3.3.3.3.3.t.3.3.3.3.3.2.3.3.3.3.3.<.3.3.8.<.<.8.3.3.3.3.3.3.3.3.3.3.3.3.3.3.3.1.3.3.",
"3.3.8.3.3.3.3.3.3.3.3.3.3.3.3.1.3.<.<.<.3.<.3.3.3.3.3.3.3.2.3.3.<.2.3.3.3.3.<.3.<.3.3.<.<.8.3.3.3.3.3.3.3.3.3.3.3.3.3.3.3.<.3.3."
};
